<svg width="1920" height="707.2" viewBox="0 0 1920 707.2" xmlns="http://www.w3.org/2000/svg" data-name="Camada 1" id="Camada_1"><defs><style>.cls-1{fill:#e52a29;}.cls-2{fill:#383838;}.cls-3{fill:#878787;}</style></defs><title>7horizontal</title><path d="M451.9,189.53c4.48-7.27-25.92-23.44-30.15-16C358.36,284.61,300.29,400.7,265.67,524.25c-2.34,8.35,29.1,22.2,31.77,13.94C328.76,441.35,383,301.32,451.9,189.53Z" class="cls-1"></path><path d="M383.56,157.1l-26.68-13.76a5.05,5.05,0,0,0-6.88,2.33L306.34,245.72a5,5,0,0,1-.94,1.68l-20.46,24.27A2.07,2.07,0,0,1,281.3,270l4.49-29.95a2.09,2.09,0,0,0-1.17-2.19L259,225.79a2.08,2.08,0,0,0-2.45.5l-30.09,34.1a2.08,2.08,0,0,1-3.51-2.08c3.76-10.34,10-27.28,17-45.11l10.49-26.9a2.08,2.08,0,0,0-1.2-2.7l-24.59-9.32a2,2,0,0,0-2.45.75c-4.64,6.85-26.12,40.31-48.75,104.81C150.67,344.71,142.19,385,140.6,393a2,2,0,0,0,1.08,2.22l28.65,15a2.08,2.08,0,0,0,2.65-.63c4.79-6.7,24.76-35,36.81-57.43L222,329.4a2,2,0,0,1,3.66,1.43L216.47,366a1.84,1.84,0,0,0-.05.25l-2.32,17.54a2.08,2.08,0,0,0,1.36,2.23l27.37,9.73a2.08,2.08,0,0,1,1.25,2.68c-3.33,9-17.16,47.3-23.38,77.07-7.1,34-6,25.4-6,25.4l29.51,12.63A2.06,2.06,0,0,0,247,512c2-12.33,12.77-68.26,52.17-160.26,41.16-96.11,79.22-178.82,85.28-191.93A2.07,2.07,0,0,0,383.56,157.1Z" class="cls-1"></path><path d="M717.53,261.22l-21.6,129.84a2.13,2.13,0,0,1-4.18.13L659.27,250.33a2.14,2.14,0,0,0-2.08-1.65H574.46a2.13,2.13,0,0,0-2.08,1.67L541.07,390.68a2.14,2.14,0,0,1-4.19-.11l-16.64-98.32a52.29,52.29,0,0,0-51.56-43.57h-33a2.14,2.14,0,0,0-2.07,2.66l57.17,225.82a2.13,2.13,0,0,0,2.07,1.61h86.44a2.11,2.11,0,0,0,2.07-1.63l30.72-128.92a2.13,2.13,0,0,1,4.15,0l29.58,128.89a2.14,2.14,0,0,0,2.08,1.65h86.89a2.13,2.13,0,0,0,2.07-1.6l21.6-84.61.33-1.26,28.43-111.71.38-1.39h0a23.68,23.68,0,0,0-22.95-29.52H732.33A15,15,0,0,0,717.53,261.22Z" class="cls-2"></path><path d="M862.77,414.48q-11.14-5.13-18.57-20.58a2.16,2.16,0,0,1,1.19-2.95l138.68-51.44a2.16,2.16,0,0,0,1.35-2.53,150.6,150.6,0,0,0-5-16.28q-12.29-33.06-35.15-52.32a100.72,100.72,0,0,0-52.37-23.23q-29.49-3.9-61.4,7.9c-17.55,6.51-32.29,15.37-44.35,26.54-2.73,2.6-5.33,5.29-7.77,8.1A103.22,103.22,0,0,0,755,340.31q-3.78,24.19,3.78,51c1.14,4.2,2.52,8.48,4.12,12.76a147.57,147.57,0,0,0,12.68,26.25,114.25,114.25,0,0,0,23.18,27.38c15.54,13.23,33.11,22.57,53.13,24.07,50.89,3.81,76.44-13.19,97.69-21.08.54-.21,1.55-.55,2.85-1.05l11-68.55a2.12,2.12,0,0,0-2.81-2.35c-10,3.65-67.45,24.29-72.54,26.17C879.11,418.26,870.67,418.09,862.77,414.48Zm-29.43-85.8c4-7.18,10.7-12.47,19.94-15.87s17.85-3.66,26-.72c7.48,2.8,12.92,8.16,16.43,16.24a2.17,2.17,0,0,1-1.25,2.85l-62,23a2.16,2.16,0,0,1-2.88-1.72C828.42,343.19,829.65,335.29,833.34,328.68Z" class="cls-2"></path><path d="M1175.58,248.66l-40.26,226.09h-14.49l19.64-109.83H1008.75L989.1,474.75H974.61l40.26-226.09h14.49l-18.68,104.67h131.73l18.68-104.67Z" class="cls-2"></path><path d="M1241.11,465.89a78.84,78.84,0,0,1-32-32.36q-11.28-20.94-11.27-48A143.34,143.34,0,0,1,1215,316.29a133.71,133.71,0,0,1,47.34-50.72q30.12-18.84,66.83-18.84,27.71,0,48.31,11.43a79.44,79.44,0,0,1,31.89,32.21q11.26,20.78,11.27,47.82,0,37.68-17.23,69.57a133.66,133.66,0,0,1-47.35,50.72q-30.12,18.86-66.82,18.85Q1261.88,477.33,1241.11,465.89Zm108.54-18.84a117.85,117.85,0,0,0,41.06-45.89,134.32,134.32,0,0,0,14.82-62.32q0-24.48-9.82-42.35a66.75,66.75,0,0,0-27.7-27.38q-17.88-9.5-41.06-9.5-32.54,0-58.62,17.23a119.6,119.6,0,0,0-40.9,46.06,132.93,132.93,0,0,0-14.82,61.67q0,24.48,10,42.35a69,69,0,0,0,27.7,27.54q17.7,9.66,40.9,9.66A104.85,104.85,0,0,0,1349.65,447.05Z" class="cls-2"></path><path d="M1459.63,463.16h84.06l-2.25,11.59h-98.55l40.26-226.09h14.49Z" class="cls-2"></path><path d="M1753.36,271.2q26.09,22.56,26.08,63.77a168.19,168.19,0,0,1-2.57,27.06q-9.34,53.46-45.57,83.09t-93.89,29.63h-63.12l40.26-226.09h63.12Q1727.26,248.66,1753.36,271.2ZM1722.6,436.42Q1754,409.69,1762.37,362a136.92,136.92,0,0,0,2.26-24.8q0-36.39-22.38-56.36t-66.84-20h-48.63L1591,463.16h49Q1691.2,463.16,1722.6,436.42Z" class="cls-2"></path><path d="M749.81,545.9c-2.27,1.73-5.31,2.6-9.15,2.6h-7.5L730.38,564h-2.26l6.29-35.38h9.78c3.39,0,5.92.68,7.56,2a7,7,0,0,1,2.47,5.67,12.45,12.45,0,0,1-.2,2.27A11.13,11.13,0,0,1,749.81,545.9Zm1.89-7.28a10.57,10.57,0,0,0,.2-2.16q0-5.85-8.06-5.85h-7.51l-2.82,15.92H741Q750.4,546.53,751.7,538.62Z" class="cls-3"></path><path d="M874.06,530.79a7.22,7.22,0,0,1,2.52,5.82,10.55,10.55,0,0,1-.21,2.16,12,12,0,0,1-3.5,6.73,12.53,12.53,0,0,1-7.28,3.25l6.6,15.27h-2.72L863.07,549h-7.71L852.64,564h-2.27l6.3-35.38h9.73C869.82,528.64,872.38,529.36,874.06,530.79Zm.15,5.92q0-6.11-8.17-6.1h-7.45L855.66,547h7.56a11.22,11.22,0,0,0,7.41-2.27,9.7,9.7,0,0,0,3.38-6A10.28,10.28,0,0,0,874.21,536.71Z" class="cls-3"></path><path d="M981.63,562.63a12.36,12.36,0,0,1-5-5.06,15.54,15.54,0,0,1-1.76-7.51,22.35,22.35,0,0,1,2.69-10.83,20.9,20.9,0,0,1,7.41-7.94,19.29,19.29,0,0,1,10.46-2.95,15.39,15.39,0,0,1,7.56,1.79,12.33,12.33,0,0,1,5,5,15.4,15.4,0,0,1,1.77,7.48,22.54,22.54,0,0,1-2.7,10.89,20.94,20.94,0,0,1-7.4,7.94,19.36,19.36,0,0,1-10.46,2.94A15.25,15.25,0,0,1,981.63,562.63Zm17-2.94a18.46,18.46,0,0,0,6.42-7.19,20.92,20.92,0,0,0,2.32-9.75,13.47,13.47,0,0,0-1.54-6.62,10.47,10.47,0,0,0-4.33-4.29,13.48,13.48,0,0,0-6.42-1.48,16.36,16.36,0,0,0-9.18,2.69,18.77,18.77,0,0,0-6.4,7.21,20.88,20.88,0,0,0-2.32,9.65,13.32,13.32,0,0,0,1.57,6.63,10.82,10.82,0,0,0,4.33,4.31,13.24,13.24,0,0,0,6.4,1.51A16.44,16.44,0,0,0,998.61,559.69Z" class="cls-3"></path><path d="M1136,532.17q4.08,3.52,4.08,10a27.1,27.1,0,0,1-.4,4.23q-1.47,8.37-7.13,13t-14.7,4.64h-9.87l6.3-35.38h9.87Q1131.88,528.64,1136,532.17ZM1131.14,558a19,19,0,0,0,6.23-11.64,21.79,21.79,0,0,0,.35-3.88q0-5.68-3.5-8.82t-10.46-3.12h-7.61l-5.59,31.65h7.66Q1126.23,562.21,1131.14,558Z" class="cls-3"></path><path d="M1246.52,528.64l-3.93,22.08a21.6,21.6,0,0,0-.3,3.42q0,4.23,2.22,6.23a8.83,8.83,0,0,0,6.14,2,11.32,11.32,0,0,0,7.79-2.8q3.15-2.79,4.21-8.84l3.93-22.08h2.27l-3.93,22.08q-1.22,6.9-5.12,10.28a14,14,0,0,1-9.5,3.37,11,11,0,0,1-7.56-2.47q-2.77-2.46-2.77-7.5a19.61,19.61,0,0,1,.35-3.68l3.94-22.08Z" class="cls-3"></path><path d="M1391.2,528.64l-.35,1.87h-10.08L1374.88,564h-2.27l5.89-33.51h-10.07l.35-1.87Z" class="cls-3"></path><path d="M1493.33,562.63a12.36,12.36,0,0,1-5-5.06,15.65,15.65,0,0,1-1.76-7.51,22.46,22.46,0,0,1,2.69-10.83,20.9,20.9,0,0,1,7.41-7.94,19.29,19.29,0,0,1,10.46-2.95,15.37,15.37,0,0,1,7.56,1.79,12.42,12.42,0,0,1,5,5,15.51,15.51,0,0,1,1.76,7.48,22.64,22.64,0,0,1-2.69,10.89,21,21,0,0,1-7.41,7.94,19.39,19.39,0,0,1-10.46,2.94A15.25,15.25,0,0,1,1493.33,562.63Zm17-2.94a18.39,18.39,0,0,0,6.42-7.19,20.92,20.92,0,0,0,2.32-9.75,13.58,13.58,0,0,0-1.53-6.62,10.49,10.49,0,0,0-4.34-4.29,13.46,13.46,0,0,0-6.42-1.48,16.28,16.28,0,0,0-9.17,2.69,18.72,18.72,0,0,0-6.41,7.21,20.87,20.87,0,0,0-2.31,9.65,13.43,13.43,0,0,0,1.56,6.63,10.82,10.82,0,0,0,4.33,4.31,13.27,13.27,0,0,0,6.4,1.51A16.44,16.44,0,0,0,1510.31,559.69Z" class="cls-3"></path><path d="M1643.33,530.79a7.24,7.24,0,0,1,2.51,5.82,10.57,10.57,0,0,1-.2,2.16,12.08,12.08,0,0,1-3.5,6.73,12.56,12.56,0,0,1-7.28,3.25l6.6,15.27h-2.72l-6.4-15.07h-7.71L1621.91,564h-2.27l6.3-35.38h9.73C1639.09,528.64,1641.65,529.36,1643.33,530.79Zm.15,5.92q0-6.11-8.17-6.1h-7.46L1624.93,547h7.56a11.22,11.22,0,0,0,7.41-2.27,9.7,9.7,0,0,0,3.38-6A10.28,10.28,0,0,0,1643.48,536.71Z" class="cls-3"></path><path d="M1764.32,555h-16.78l-5,9.07h-2.47l19.1-34.57h2.52l6.86,34.57h-2.47Zm-.35-1.86-4-20.72-11.39,20.72Z" class="cls-3"></path></svg>