<?xml version="1.0" encoding="UTF-8"?>
<svg id="Camada_2" data-name="Camada 2" xmlns="http://www.w3.org/2000/svg" viewBox="0 0 693.37 221.2">
  <defs>
    <style>
      .cls-1 {
        fill: #fff;
      }
    </style>
  </defs>
  <g id="Camada_1-2" data-name="Camada 1">
    <g>
      <g>
        <polygon class="cls-1" points="260.47 183.06 310.53 9.68 350.08 9.68 400.14 183.06 365.35 183.06 331.4 52.05 329.21 52.05 295.26 183.06 260.47 183.06"/>
        <path class="cls-1" d="M470.84,185.5c-9.85,0-19.41-.84-28.69-2.5-9.28-1.67-17.58-4.01-24.91-7.02l4.39-32.96c8.95,3.75,17.84,6.63,26.68,8.67,8.83,2.04,16.99,3.05,24.48,3.05,8.71,0,15.38-1.55,20.02-4.64,4.64-3.09,6.96-7.53,6.96-13.31,0-7.57-4.76-13.59-14.28-18.07l-24.91-12.09c-12.29-6.02-21.82-13.47-28.57-22.34-6.76-8.87-10.13-18.68-10.13-29.43,0-15.14,5.01-26.86,15.02-35.16,10.01-8.3,24.18-12.45,42.49-12.45,10.66,0,20.78,1.87,30.34,5.62,9.56,3.74,18.05,9.16,25.46,16.24l-22.22,25.52c-5.62-5.37-11.27-9.5-16.97-12.39-5.7-2.89-11.19-4.33-16.48-4.33-7.16,0-12.74,1.53-16.73,4.58-3.99,3.05-5.98,7.47-5.98,13.25,0,3.83,1.4,7.45,4.21,10.87,2.81,3.42,6.82,6.51,12.03,9.28l23.44,12.09c12.21,6.35,21.63,13.76,28.27,22.22,6.63,8.47,9.95,17.54,9.95,27.23,0,15.38-5.54,27.25-16.6,35.59-11.07,8.35-26.82,12.52-47.25,12.52Z"/>
        <polygon class="cls-1" points="553.49 183.06 603.55 9.68 643.11 9.68 693.17 183.06 658.37 183.06 624.43 52.05 622.23 52.05 588.29 183.06 553.49 183.06"/>
      </g>
      <g>
        <path class="cls-1" d="M259.05,215.57l4.81-16.66h3.52l4.81,16.66h-2.73l-3.73-14h-.21l-3.73,14h-2.73ZM261.34,211.79v-2.43h8.45v2.43h-8.45Z"/>
        <path class="cls-1" d="M278.74,215.81c-.94,0-1.75-.03-2.44-.08-.69-.05-1.31-.14-1.86-.27l.31-2.5c.88.13,1.63.22,2.28.28.64.06,1.22.09,1.73.09,1.2,0,2.07-.11,2.61-.32.54-.22.81-.56.81-1.03,0-.32-.09-.56-.26-.72s-.45-.29-.8-.38l-3.24-.87c-1.1-.29-1.92-.67-2.44-1.14-.52-.47-.79-1.16-.79-2.06,0-1.36.53-2.35,1.6-2.98,1.07-.62,2.76-.93,5.07-.93.58,0,1.14.02,1.68.05.54.04,1.09.1,1.67.18l-.28,2.41c-.66-.06-1.24-.1-1.74-.13-.5-.02-.97-.04-1.4-.04-1.34,0-2.31.1-2.91.31-.6.21-.9.55-.9,1.01,0,.31.11.53.32.68.21.14.54.27.97.38l2.68.69c1.24.31,2.14.72,2.72,1.26.58.53.87,1.28.87,2.24,0,1.34-.5,2.32-1.5,2.93-1,.62-2.58.93-4.74.93Z"/>
        <path class="cls-1" d="M292.82,215.81c-.94,0-1.75-.03-2.44-.08-.69-.05-1.31-.14-1.86-.27l.31-2.5c.88.13,1.63.22,2.28.28.64.06,1.22.09,1.73.09,1.2,0,2.07-.11,2.61-.32.54-.22.81-.56.81-1.03,0-.32-.09-.56-.26-.72s-.45-.29-.8-.38l-3.24-.87c-1.1-.29-1.92-.67-2.44-1.14-.52-.47-.79-1.16-.79-2.06,0-1.36.53-2.35,1.6-2.98,1.07-.62,2.76-.93,5.07-.93.58,0,1.14.02,1.68.05.54.04,1.09.1,1.67.18l-.28,2.41c-.66-.06-1.24-.1-1.74-.13-.5-.02-.97-.04-1.4-.04-1.34,0-2.31.1-2.91.31-.6.21-.9.55-.9,1.01,0,.31.11.53.32.68.21.14.54.27.97.38l2.68.69c1.24.31,2.14.72,2.72,1.26.58.53.87,1.28.87,2.24,0,1.34-.5,2.32-1.5,2.93-1,.62-2.58.93-4.74.93Z"/>
        <path class="cls-1" d="M307.87,215.81c-1.74,0-3.1-.56-4.06-1.69s-1.44-2.71-1.44-4.76.48-3.65,1.44-4.77c.96-1.12,2.32-1.68,4.06-1.68s3.1.56,4.06,1.68c.96,1.12,1.44,2.71,1.44,4.77s-.48,3.64-1.44,4.76c-.96,1.13-2.32,1.69-4.06,1.69ZM307.87,213.33c.87,0,1.54-.35,2.01-1.04.47-.69.71-1.67.71-2.94s-.24-2.26-.71-2.95c-.47-.69-1.14-1.03-2.01-1.03s-1.54.34-2.01,1.03c-.47.69-.71,1.67-.71,2.95s.24,2.25.71,2.94c.47.69,1.14,1.04,2.01,1.04Z"/>
        <path class="cls-1" d="M323.23,215.81c-2.17,0-3.84-.56-5.02-1.67-1.18-1.12-1.77-2.72-1.77-4.81s.55-3.61,1.65-4.74,2.68-1.69,4.72-1.69c1.24,0,2.3.23,3.17.7.88.47,1.51,1.12,1.88,1.98l-2.04,1.56c-.34-.56-.79-1-1.33-1.3-.55-.31-1.14-.46-1.78-.46-1.12,0-1.99.33-2.61,1-.62.66-.93,1.61-.93,2.84,0,1.34.37,2.36,1.12,3.06.75.7,1.82,1.06,3.21,1.06.57,0,1.14-.03,1.72-.08s1.13-.13,1.67-.22l.29,2.43c-.64.14-1.3.24-1.98.28-.68.05-1.34.07-1.99.07Z"/>
        <path class="cls-1" d="M330.81,215.57v-2.42h4.93v2.42h-4.93ZM331.51,205.55v-2.42h6.69v2.42h-6.69ZM336.75,201.25c-.52,0-.95-.18-1.3-.53-.35-.35-.52-.79-.52-1.3s.17-.96.52-1.31.78-.52,1.3-.52.96.17,1.31.52.52.79.52,1.31-.17.95-.52,1.3c-.35.35-.78.53-1.31.53ZM335.5,215.57v-11.74h2.7v11.74h-2.7ZM337.97,215.57v-2.42h4.01v2.42h-4.01Z"/>
        <path class="cls-1" d="M348.25,215.81c-1.3,0-2.31-.32-3.03-.95s-1.08-1.53-1.08-2.69c0-1.34.49-2.37,1.46-3.08.97-.72,2.35-1.07,4.14-1.07.73,0,1.37.04,1.92.12.56.08,1.07.21,1.54.38l-.52,1.94c-.51-.12-1.01-.19-1.48-.21-.47-.02-.95-.03-1.46-.03-2,0-2.99.6-2.99,1.8,0,.51.17.9.52,1.17s.85.41,1.49.41c.74,0,1.37-.13,1.87-.4.5-.27.88-.6,1.13-1.01.25-.41.37-.83.37-1.27v-1.17l.65,3.19h-.99l.4-.38c0,.72-.17,1.32-.5,1.8-.32.48-.78.84-1.37,1.08s-1.28.36-2.09.36ZM352.59,215.69l-.2-3.68-.25-1.22v-2.97c0-.77-.29-1.34-.86-1.71-.58-.36-1.43-.56-2.58-.59l-3.04-.08.24-2.42,2.57.03c2.12.03,3.69.48,4.72,1.33,1.03.86,1.54,2.11,1.54,3.75v5l1.98.26v2.18l-4.13.12Z"/>
        <path class="cls-1" d="M365.48,215.81c-2.17,0-3.84-.56-5.02-1.67-1.18-1.12-1.77-2.72-1.77-4.81s.55-3.61,1.65-4.74,2.68-1.69,4.72-1.69c1.24,0,2.3.23,3.17.7.88.47,1.51,1.12,1.88,1.98l-2.04,1.56c-.34-.56-.79-1-1.33-1.3-.55-.31-1.14-.46-1.78-.46-1.12,0-1.99.33-2.61,1-.62.66-.93,1.61-.93,2.84,0,1.34.37,2.36,1.12,3.06.75.7,1.82,1.06,3.21,1.06.57,0,1.14-.03,1.72-.08s1.13-.13,1.67-.22l.29,2.43c-.64.14-1.3.24-1.98.28-.68.05-1.34.07-1.99.07ZM362.78,221.2v-1.8c.72,0,1.25-.07,1.61-.21.35-.14.53-.34.53-.6s-.15-.45-.45-.58c-.3-.13-.76-.19-1.38-.19l.81-2.33,1.83.13-.29,1.15c.66.14,1.15.37,1.47.69.32.32.49.73.49,1.24,0,.83-.38,1.45-1.15,1.87-.77.42-1.92.63-3.46.63Z"/>
        <path class="cls-1" d="M376.41,215.81c-1.3,0-2.31-.32-3.03-.95s-1.08-1.53-1.08-2.69c0-1.34.49-2.37,1.46-3.08.97-.72,2.35-1.07,4.14-1.07.73,0,1.37.04,1.92.12.56.08,1.07.21,1.54.38l-.52,1.94c-.51-.12-1.01-.19-1.48-.21-.47-.02-.95-.03-1.46-.03-2,0-2.99.6-2.99,1.8,0,.51.17.9.52,1.17s.85.41,1.49.41c.74,0,1.37-.13,1.87-.4.5-.27.88-.6,1.13-1.01.25-.41.37-.83.37-1.27v-1.17l.65,3.19h-.99l.4-.38c0,.72-.17,1.32-.5,1.8-.32.48-.78.84-1.37,1.08-.59.24-1.28.36-2.09.36ZM373.79,200.83v-.47c0-2.06.85-3.09,2.56-3.09.33,0,.63.05.9.15.27.1.56.23.86.4.34.17.64.31.87.42s.46.16.66.16c.42,0,.63-.24.63-.73v-.95h2.29v1c0,.94-.18,1.64-.53,2.11-.36.47-.9.7-1.64.7-.27,0-.57-.05-.89-.15-.32-.1-.67-.25-1.06-.43-.25-.13-.49-.26-.73-.38s-.47-.18-.72-.18c-.29,0-.51.07-.65.2s-.22.36-.22.67v.55h-2.35ZM380.76,215.69l-.2-3.68-.25-1.22v-2.97c0-.77-.29-1.34-.86-1.71-.58-.36-1.43-.56-2.58-.59l-3.04-.08.24-2.42,2.57.03c2.12.03,3.69.48,4.72,1.33,1.03.86,1.54,2.11,1.54,3.75v5l1.98.26v2.18l-4.13.12Z"/>
        <path class="cls-1" d="M392.36,215.81c-1.74,0-3.1-.56-4.06-1.69s-1.44-2.71-1.44-4.76.48-3.65,1.44-4.77c.96-1.12,2.32-1.68,4.06-1.68s3.1.56,4.06,1.68c.96,1.12,1.44,2.71,1.44,4.77s-.48,3.64-1.44,4.76c-.96,1.13-2.32,1.69-4.06,1.69ZM392.36,213.33c.87,0,1.54-.35,2.01-1.04.47-.69.71-1.67.71-2.94s-.24-2.26-.71-2.95c-.47-.69-1.14-1.03-2.01-1.03s-1.54.34-2.01,1.03c-.47.69-.71,1.67-.71,2.95s.24,2.25.71,2.94c.47.69,1.14,1.04,2.01,1.04Z"/>
        <path class="cls-1" d="M419.48,215.81c-1.6,0-2.82-.54-3.66-1.63-.84-1.08-1.27-2.67-1.27-4.75s.42-3.75,1.27-4.86c.85-1.11,2.07-1.67,3.67-1.67.92,0,1.66.22,2.21.65s.88,1.04,1,1.84h.99l-.73,3.69c0-1.26-.24-2.2-.71-2.83s-1.17-.94-2.09-.94-1.67.35-2.15,1.06c-.49.7-.73,1.73-.73,3.09s.24,2.31.73,2.98c.49.67,1.21,1,2.15,1s1.66-.31,2.12-.94.69-1.57.69-2.83l.85,3.67h-1.09c-.09.8-.42,1.41-.99,1.84-.56.43-1.31.65-2.24.65ZM423.27,215.69l-.32-2.45v-15.27h2.7v17.6l-2.38.12Z"/>
        <path class="cls-1" d="M432.74,215.81c-1.3,0-2.31-.32-3.03-.95-.72-.63-1.08-1.53-1.08-2.69,0-1.34.49-2.37,1.46-3.08.97-.72,2.35-1.07,4.14-1.07.73,0,1.37.04,1.92.12.56.08,1.07.21,1.54.38l-.52,1.94c-.51-.12-1.01-.19-1.48-.21-.47-.02-.95-.03-1.46-.03-2,0-2.99.6-2.99,1.8,0,.51.17.9.52,1.17.35.27.85.41,1.49.41.74,0,1.37-.13,1.87-.4.5-.27.88-.6,1.13-1.01.25-.41.37-.83.37-1.27v-1.17l.65,3.19h-.99l.4-.38c0,.72-.17,1.32-.5,1.8-.32.48-.78.84-1.37,1.08-.59.24-1.28.36-2.09.36ZM437.09,215.69l-.2-3.68-.25-1.22v-2.97c0-.77-.29-1.34-.86-1.71-.58-.36-1.43-.56-2.58-.59l-3.04-.08.24-2.42,2.57.03c2.12.03,3.69.48,4.72,1.33,1.03.86,1.54,2.11,1.54,3.75v5l1.98.26v2.18l-4.13.12Z"/>
        <path class="cls-1" d="M447.73,215.81c-.94,0-1.75-.03-2.44-.08-.69-.05-1.31-.14-1.86-.27l.31-2.5c.88.13,1.63.22,2.28.28.64.06,1.22.09,1.73.09,1.2,0,2.07-.11,2.61-.32.54-.22.81-.56.81-1.03,0-.32-.09-.56-.26-.72s-.45-.29-.8-.38l-3.24-.87c-1.1-.29-1.92-.67-2.44-1.14-.52-.47-.79-1.16-.79-2.06,0-1.36.53-2.35,1.6-2.98,1.07-.62,2.76-.93,5.07-.93.58,0,1.14.02,1.68.05.54.04,1.09.1,1.67.18l-.28,2.41c-.66-.06-1.24-.1-1.74-.13-.5-.02-.97-.04-1.4-.04-1.34,0-2.31.1-2.91.31-.6.21-.9.55-.9,1.01,0,.31.11.53.32.68.21.14.54.27.97.38l2.68.69c1.24.31,2.14.72,2.72,1.26.58.53.87,1.28.87,2.24,0,1.34-.5,2.32-1.5,2.93-1,.62-2.58.93-4.74.93Z"/>
        <path class="cls-1" d="M476.28,215.81c-.95,0-1.84-.08-2.69-.24s-1.62-.38-2.32-.68l.34-2.62c.86.36,1.7.64,2.52.83.82.2,1.6.29,2.34.29,1.02,0,1.78-.18,2.28-.53.5-.36.76-.89.76-1.6,0-.92-.49-1.6-1.48-2.04l-2.73-1.27c-1.15-.54-2.03-1.19-2.65-1.96-.62-.77-.93-1.68-.93-2.75,0-1.46.45-2.58,1.36-3.38.9-.8,2.18-1.2,3.83-1.2,1.09,0,2.07.17,2.95.51.88.34,1.7.87,2.47,1.59l-1.8,1.91c-.64-.55-1.25-.95-1.84-1.21-.58-.26-1.18-.39-1.78-.39-.77,0-1.36.18-1.79.54-.43.36-.64.88-.64,1.57,0,.49.14.9.43,1.23.29.34.7.64,1.24.9l2.38,1.16c1.22.59,2.15,1.26,2.79,2.01.64.76.96,1.67.96,2.74,0,1.5-.5,2.64-1.51,3.41s-2.5,1.16-4.49,1.16Z"/>
        <path class="cls-1" d="M491.99,215.81c-2.13,0-3.77-.56-4.93-1.67-1.16-1.12-1.74-2.72-1.74-4.81s.49-3.61,1.47-4.74,2.37-1.69,4.16-1.69,3.04.51,3.97,1.54,1.4,2.52,1.4,4.47c0,.56-.02,1.1-.07,1.6h-8.85v-1.99h6.4c0-1.03-.25-1.81-.74-2.37-.5-.55-1.19-.83-2.08-.83-.98,0-1.74.34-2.28,1.01-.54.68-.82,1.64-.82,2.88,0,1.35.38,2.38,1.14,3.09s1.84,1.06,3.24,1.06c.53,0,1.06-.03,1.57-.09.52-.06,1.04-.14,1.57-.24l.31,2.44c-.75.14-1.44.23-2.07.27s-1.18.06-1.67.06Z"/>
        <path class="cls-1" d="M499.89,215.57v-12.44h2.43l.27,2.63v9.81h-2.7ZM507.45,215.57v-7.85c0-.75-.18-1.33-.55-1.74-.37-.41-.88-.61-1.55-.61-1.84,0-2.76,1.15-2.76,3.45l-.73-3.44h.99c.09-.84.39-1.46.9-1.87.51-.41,1.27-.62,2.27-.62,1.31,0,2.33.4,3.05,1.2.72.8,1.08,1.92,1.08,3.38v8.1h-2.7Z"/>
        <path class="cls-1" d="M513.98,215.57v-17.6h2.7v17.6h-2.7ZM521.54,215.57v-7.91c0-.76-.18-1.34-.55-1.75-.37-.41-.88-.62-1.55-.62-1.84,0-2.76,1.16-2.76,3.47l-.73-3.38h.99c.09-.84.39-1.46.9-1.87.51-.41,1.27-.62,2.27-.62,1.31,0,2.33.4,3.05,1.2.72.8,1.08,1.92,1.08,3.38v8.1h-2.7Z"/>
        <path class="cls-1" d="M533.19,215.81c-1.74,0-3.1-.56-4.06-1.69s-1.44-2.71-1.44-4.76.48-3.65,1.44-4.77c.96-1.12,2.32-1.68,4.06-1.68s3.1.56,4.06,1.68c.96,1.12,1.44,2.71,1.44,4.77s-.48,3.64-1.44,4.76-2.32,1.69-4.06,1.69ZM533.19,213.33c.87,0,1.54-.35,2.01-1.04.47-.69.71-1.67.71-2.94s-.24-2.26-.71-2.95c-.47-.69-1.14-1.03-2.01-1.03s-1.54.34-2.01,1.03c-.47.69-.71,1.67-.71,2.95s.24,2.25.71,2.94c.47.69,1.14,1.04,2.01,1.04Z"/>
        <path class="cls-1" d="M541.11,215.57v-2.35h8.42v2.35h-8.42ZM541.58,205.48v-2.35h4.32l.24,2.35h-4.55ZM543.83,215.57v-12.44h2.23l.47,3.57v8.87h-2.7ZM546.53,210.22l-.73-4.01h1c.13-2.21,1.25-3.31,3.34-3.31,1.25,0,2.17.39,2.77,1.17.59.78.89,1.99.89,3.62h-2.69c0-.85-.13-1.47-.4-1.84-.27-.37-.7-.56-1.3-.56-.97,0-1.69.43-2.17,1.28s-.72,2.07-.72,3.64Z"/>
        <path class="cls-1" d="M559.49,215.81c-1.3,0-2.31-.32-3.03-.95-.72-.63-1.08-1.53-1.08-2.69,0-1.34.49-2.37,1.46-3.08.97-.72,2.35-1.07,4.14-1.07.73,0,1.37.04,1.92.12.56.08,1.07.21,1.54.38l-.52,1.94c-.51-.12-1.01-.19-1.48-.21-.47-.02-.95-.03-1.46-.03-2,0-2.99.6-2.99,1.8,0,.51.17.9.52,1.17s.85.41,1.49.41c.74,0,1.37-.13,1.87-.4.5-.27.88-.6,1.13-1.01.25-.41.37-.83.37-1.27v-1.17l.65,3.19h-.99l.4-.38c0,.72-.17,1.32-.5,1.8-.32.48-.78.84-1.37,1.08-.59.24-1.28.36-2.09.36ZM563.83,215.69l-.2-3.68-.25-1.22v-2.97c0-.77-.29-1.34-.86-1.71-.58-.36-1.43-.56-2.58-.59l-3.04-.08.24-2.42,2.57.03c2.12.03,3.69.48,4.72,1.33,1.03.86,1.54,2.11,1.54,3.75v5l1.98.26v2.18l-4.13.12Z"/>
        <path class="cls-1" d="M574.48,215.81c-.94,0-1.75-.03-2.44-.08-.69-.05-1.31-.14-1.86-.27l.31-2.5c.88.13,1.63.22,2.28.28.64.06,1.22.09,1.73.09,1.2,0,2.07-.11,2.61-.32.54-.22.81-.56.81-1.03,0-.32-.09-.56-.26-.72s-.45-.29-.8-.38l-3.24-.87c-1.1-.29-1.92-.67-2.44-1.14-.52-.47-.79-1.16-.79-2.06,0-1.36.53-2.35,1.6-2.98,1.07-.62,2.76-.93,5.07-.93.58,0,1.14.02,1.68.05.54.04,1.09.1,1.67.18l-.28,2.41c-.66-.06-1.24-.1-1.74-.13-.5-.02-.97-.04-1.4-.04-1.34,0-2.31.1-2.91.31-.6.21-.9.55-.9,1.01,0,.31.11.53.32.68.21.14.54.27.97.38l2.68.69c1.24.31,2.14.72,2.72,1.26.58.53.87,1.28.87,2.24,0,1.34-.5,2.32-1.5,2.93-1,.62-2.58.93-4.74.93Z"/>
        <path class="cls-1" d="M597.03,215.57l4.81-16.66h3.52l4.81,16.66h-2.73l-3.73-14h-.21l-3.73,14h-2.73ZM599.32,211.79v-2.43h8.45v2.43h-8.45Z"/>
        <path class="cls-1" d="M611.52,215.57v-2.35h8.42v2.35h-8.42ZM611.99,205.48v-2.35h4.32l.24,2.35h-4.55ZM614.25,215.57v-12.44h2.23l.47,3.57v8.87h-2.7ZM616.95,210.22l-.73-4.01h1c.13-2.21,1.25-3.31,3.34-3.31,1.25,0,2.17.39,2.77,1.17.59.78.89,1.99.89,3.62h-2.69c0-.85-.13-1.47-.4-1.84-.27-.37-.7-.56-1.3-.56-.97,0-1.69.43-2.17,1.28s-.72,2.07-.72,3.64Z"/>
        <path class="cls-1" d="M625.49,205.55v-2.42h11.38v2.42h-11.38ZM628.56,209.64v-10.27h2.7v10.27h-2.7ZM634.14,215.81c-1.96,0-3.38-.4-4.26-1.21-.88-.81-1.31-2.1-1.31-3.87v-1.96h2.7v1.78c0,.97.24,1.68.72,2.12.48.44,1.28.66,2.39.66.38,0,.79-.02,1.22-.06s.92-.1,1.47-.17l.28,2.43c-.54.09-1.06.16-1.57.21-.51.05-1.05.07-1.63.07Z"/>
        <path class="cls-1" d="M646.89,215.81c-2.13,0-3.77-.56-4.93-1.67-1.16-1.12-1.74-2.72-1.74-4.81s.49-3.61,1.47-4.74,2.37-1.69,4.16-1.69,3.04.51,3.97,1.54,1.4,2.52,1.4,4.47c0,.56-.02,1.1-.07,1.6h-8.85v-1.99h6.4c0-1.03-.25-1.81-.74-2.37-.5-.55-1.19-.83-2.08-.83-.98,0-1.74.34-2.28,1.01-.54.68-.82,1.64-.82,2.88,0,1.35.38,2.38,1.14,3.09s1.84,1.06,3.24,1.06c.53,0,1.06-.03,1.57-.09.52-.06,1.04-.14,1.57-.24l.31,2.44c-.75.14-1.44.23-2.07.27s-1.18.06-1.67.06Z"/>
        <path class="cls-1" d="M658.97,215.81c-.94,0-1.75-.03-2.44-.08-.69-.05-1.31-.14-1.86-.27l.31-2.5c.88.13,1.63.22,2.28.28.64.06,1.22.09,1.73.09,1.2,0,2.07-.11,2.61-.32.54-.22.81-.56.81-1.03,0-.32-.09-.56-.26-.72s-.45-.29-.8-.38l-3.24-.87c-1.1-.29-1.92-.67-2.44-1.14-.52-.47-.79-1.16-.79-2.06,0-1.36.53-2.35,1.6-2.98,1.07-.62,2.76-.93,5.07-.93.58,0,1.14.02,1.68.05.54.04,1.09.1,1.67.18l-.28,2.41c-.66-.06-1.24-.1-1.74-.13-.5-.02-.97-.04-1.4-.04-1.34,0-2.31.1-2.91.31-.6.21-.9.55-.9,1.01,0,.31.11.53.32.68.21.14.54.27.97.38l2.68.69c1.24.31,2.14.72,2.72,1.26.58.53.87,1.28.87,2.24,0,1.34-.5,2.32-1.5,2.93-1,.62-2.58.93-4.74.93Z"/>
        <path class="cls-1" d="M672.15,215.81c-1.3,0-2.31-.32-3.03-.95s-1.08-1.53-1.08-2.69c0-1.34.49-2.37,1.46-3.08.97-.72,2.35-1.07,4.14-1.07.73,0,1.37.04,1.92.12.56.08,1.07.21,1.54.38l-.52,1.94c-.51-.12-1.01-.19-1.48-.21-.47-.02-.95-.03-1.46-.03-2,0-2.99.6-2.99,1.8,0,.51.17.9.52,1.17s.85.41,1.49.41c.74,0,1.37-.13,1.87-.4.5-.27.88-.6,1.13-1.01.25-.41.37-.83.37-1.27v-1.17l.65,3.19h-.99l.4-.38c0,.72-.17,1.32-.5,1.8-.32.48-.78.84-1.37,1.08-.59.24-1.28.36-2.09.36ZM669.52,200.83v-.47c0-2.06.85-3.09,2.56-3.09.33,0,.63.05.9.15.27.1.56.23.86.4.34.17.64.31.87.42s.46.16.66.16c.42,0,.63-.24.63-.73v-.95h2.29v1c0,.94-.18,1.64-.53,2.11-.36.47-.9.7-1.64.7-.27,0-.57-.05-.89-.15-.32-.1-.67-.25-1.06-.43-.25-.13-.49-.26-.73-.38s-.47-.18-.72-.18c-.29,0-.51.07-.65.2s-.22.36-.22.67v.55h-2.35ZM676.49,215.69l-.2-3.68-.25-1.22v-2.97c0-.77-.29-1.34-.86-1.71-.58-.36-1.43-.56-2.58-.59l-3.04-.08.24-2.42,2.57.03c2.12.03,3.69.48,4.72,1.33,1.03.86,1.54,2.11,1.54,3.75v5l1.98.26v2.18l-4.13.12Z"/>
        <path class="cls-1" d="M687.14,215.81c-.94,0-1.75-.03-2.44-.08-.69-.05-1.31-.14-1.86-.27l.31-2.5c.88.13,1.63.22,2.28.28.64.06,1.22.09,1.73.09,1.2,0,2.07-.11,2.61-.32.54-.22.81-.56.81-1.03,0-.32-.09-.56-.26-.72s-.45-.29-.8-.38l-3.24-.87c-1.1-.29-1.92-.67-2.44-1.14-.52-.47-.79-1.16-.79-2.06,0-1.36.53-2.35,1.6-2.98,1.07-.62,2.76-.93,5.07-.93.58,0,1.14.02,1.68.05.54.04,1.09.1,1.67.18l-.28,2.41c-.66-.06-1.24-.1-1.74-.13-.5-.02-.97-.04-1.4-.04-1.34,0-2.31.1-2.91.31-.6.21-.9.55-.9,1.01,0,.31.11.53.32.68.21.14.54.27.97.38l2.68.69c1.24.31,2.14.72,2.72,1.26.58.53.87,1.28.87,2.24,0,1.34-.5,2.32-1.5,2.93-1,.62-2.58.93-4.74.93Z"/>
      </g>
      <g>
        <path class="cls-1" d="M137.29,162.2c-4.13.13-7.39-2.06-10.5-4.58-6.78-5.49-11.01-12.8-14.72-20.48-1.1-2.27-1-2.98.81-4.71,1.45-1.38,3.05-2.6,4.57-3.91,3.32-2.86,5.17-6.68,6.77-10.62,1.36-3.38,3.05-4.06,6.24-2.23,6.35,3.65,11.7,8.41,16.2,14.19,2.91,3.74,5.36,7.62,6.45,12.33,1.26,5.43-.33,10.03-3.76,14.09-2.4,2.85-5.52,4.77-9.17,5.75-.92.25-1.84.06-2.88.17Z"/>
        <path class="cls-1" d="M81.86,157.24c.02-2.09.6-2.58,3.72-3.02,7.15-1.02,13.4-4.03,18.94-8.59.4-.33.85-.58,1.24-.91,2.93-2.55,3.81-2.34,5.62,1.15,3.95,7.63,9.51,13.7,17.33,17.5,1.28.62,2.66,1.03,4,1.51,3.32,1.19,4.29,3.88,2.33,6.77-2.11,3.1-5.03,5.34-8.26,7.14-3.95,2.19-8.19,3.33-12.76,3.58-8.45.47-15.68-2.18-21.98-7.73-4.86-4.28-8.04-9.56-9.92-15.71-.17-.57-.24-1.11-.26-1.68Z"/>
        <path class="cls-1" d="M82.23,114.99c2.46-.17,5.03.11,7.18,2.02,1.13,1.01,2.03,2.19,2.66,3.51,2.46,5.16,6.54,8.62,11.5,11.18,1.22.63,2.47,1.23,3.69,1.88,1.16.62,1.39,1.8.55,2.83-4.6,5.59-10.4,9.45-17.2,11.82-3.8,1.32-7.68,2.3-11.76,2.14-6-.25-10.59-2.84-13.69-8.06-1.95-3.29-2.96-6.88-3.01-10.61-.06-4.39,1.7-8.13,4.93-11.27,3.62-3.52,9.41-5.68,15.16-5.44Z"/>
        <path class="cls-1" d="M161.56,147.92c-2.17.12-3.23-.64-3.65-2.27-1.15-4.5-2.57-8.89-4.85-12.97-2.13-3.82-4.59-7.38-7.61-10.55-.99-1.04-1.89-2.17-2.88-3.2-1.8-1.88-1.77-2.51.48-3.95,2.07-1.33,4.2-2.54,6.29-3.84,4.08-2.55,7.98-5.32,11.22-8.94.91-1.02,2.27-1.17,3.46-.34,4.6,3.21,8.55,7.07,11.63,11.8,2.08,3.19,3.25,6.7,3.68,10.4.21,1.82-.15,3.78-.63,5.59-2.33,8.78-7.27,15.3-16.27,18.13-.43.14-.9.16-.86.16Z"/>
        <path class="cls-1" d="M138.19,13.51c3.56-1.39,7.12-.71,10.75-.29,5.42.63,10.73,1.6,15.96,3.16,7.71,2.29,14.6,6.11,20.84,11.07,6.73,5.35,11.62,12.16,14.38,20.33,1,2.97,2,6.03,1.92,9.28-.02.81-.31,1.41-1,1.63-.65.21-1.36.15-1.86-.52-2.15-2.86-5.04-4.97-7.7-7.29-3.24-2.83-6.75-5.39-10.67-7.21-5.26-2.44-10.79-4.05-16.64-4.35-3.09-.16-5.08-1.66-5.84-4.73-1.71-6.95-5.96-12.04-11.7-16-2-1.37-4.21-2.42-6.5-3.28-.83-.31-1.91-.57-1.95-1.79Z"/>
        <path class="cls-1" d="M96.42,96.3c.43,7.62-4.58,13.88-10.82,15.63-2.61.73-5.1.55-7.5-.47-7.78-3.3-14.37-8.2-19.21-15.17-3.91-5.62-2.39-12.67,3.38-16.36,2.49-1.6,5.39-2.03,8.28-1.68,4.03.49,7.97,1.35,11.73,3.02,3.07,1.36,5.87,3.11,8.39,5.28,1.68,1.44,3.44,2.84,4.72,4.74,1.13,1.67,1.06,3.46,1.02,5.02Z"/>
        <path class="cls-1" d="M47.78,158.96c-.56,1.73-.34,3.93-.29,6.1.11,4.52,1.22,8.83,3.07,12.95,2.64,5.86,6.21,11.07,10.61,15.74.31.32.65.71.74,1.12.18.79.72,1.68-1.08,1.38-4.94-.81-9.37-2.76-13.74-5.08-3.76-2-7.41-4.19-10.73-6.82-7.76-6.16-14.34-13.26-17.42-23.01-1.31-4.17-1.43-8.42-1.29-12.71.02-.72.07-1.71.97-2.02.75-.26,1.34.16,2,.65,5.82,4.34,12.35,6.99,19.55,7.99,2.01.28,4.02.62,6.01,1.05,1.12.24,1.75,1.01,1.6,2.66Z"/>
        <path class="cls-1" d="M53.17,26.82c.35,0,.69,0,1.04,0,1.85.04,2.39.88,1.56,2.52-2.08,4.09-4.18,8.17-6.29,12.24-1.6,3.08-2.59,6.38-3.35,9.72-.58,2.54-1.93,4.29-4.21,5.34-3.55,1.64-6.74,3.74-9.5,6.53-4.14,4.2-6.55,9.29-7.89,14.96-.23.98-.57,1.94-.93,2.89-.43,1.15-1.33,1.59-2.52,1.68-1.23.1-1.89-.5-2.46-1.47-1.17-2.02-1.32-4.34-1.65-6.52-1.76-11.57,1.25-21.97,8.38-31.15,6.58-8.47,15.39-13.63,25.58-16.59.22-.06.44-.15.66-.16.52-.02,1.04,0,1.56,0Z"/>
        <path class="cls-1" d="M136.28,205.22c-10.39-.01-19.18-3.05-27.26-8.2-2.04-1.3-3.62-3.25-4.3-5.77-.55-2.04.58-3.26,2.66-3.01,5.7.7,11.27.12,16.73-1.72,4.04-1.36,7.6-3.6,11.21-5.77,2.4-1.44,4.71-1.22,6.8.55,4.57,3.88,9.77,5.94,15.81,5.88,1.86-.02,2.59,1.02,2.02,3.07-1.87,6.69-7.14,12.65-14.5,13.93-3.27.57-6.53,1.12-9.17,1.04Z"/>
        <path class="cls-1" d="M96.45,79.16c-.26-7.92,2.82-13.76,8.51-18.34,4.65-3.74,10.45-2.8,14.6.74,3.67,3.13,5.57,7.31,5.57,11.93,0,5.67.02,11.54-3.69,16.44-2.78,3.66-6.44,5.78-11.11,5.95-2.25.08-4.47.02-6.6-.87-3.95-1.64-5.78-4.89-6.53-8.84-.46-2.47-1.1-4.94-.76-7.01Z"/>
        <path class="cls-1" d="M33.23,106.54c.16,2.99-.8,5.88-.75,8.89.1,5.44,2.2,10.02,5.68,13.94,4,4.51,8.76,8.23,13.75,11.61,2.52,1.71,2.44,4.11-.31,5.39-2.48,1.16-5.2,1.45-7.89,1.17-4.3-.44-8.57-1.09-12.63-2.71-7.05-2.82-12.87-7-15.46-14.47-2.17-6.27-.81-12.16,2.91-17.45,2.8-3.98,6.53-7.06,10.83-9.35,3.04-1.63,4.21-.87,3.87,2.29-.02.23,0,.46,0,.69Z"/>
        <path class="cls-1" d="M148.59,81.21c3.72-.25,9.81,3.19,10.9,9.51.7,4.08-.61,7.59-3.36,10.57-5.43,5.88-12.31,8.95-20.11,10.24-2.33.39-4.64.75-7,.67-1.87-.06-2.84-.76-3.01-2.61-.38-4.16-1.73-7.9-4.3-11.2-.94-1.21-.8-2.42.25-3.38,3.54-3.26,6.95-6.68,11.12-9.19,4.33-2.61,8.88-4.45,15.52-4.61Z"/>
        <path class="cls-1" d="M117.74,221.2c-9.51,0-18.57-1.98-27.09-6.26-6.07-3.05-11.37-7.15-15.92-12.2-.89-.99-2.31-2.44-1.7-3.44.67-1.1,2.2.31,3.34.61,4.14,1.09,8.13,2.79,12.36,3.49,4.3.71,8.6.42,12.81-.91,2.07-.65,4-.54,6.03.59,6.01,3.34,12.39,5.67,19.26,6.7,5.38.8,10.68.87,16.03-.04,2.53-.43,5.12-.23,7.65-.68,1.15-.2,1.63.78,1.18,1.92-.39.99-1.34,1.15-2.06,1.66-6.11,4.29-13.11,6.13-20.31,7.51-3.84.74-7.69,1.09-11.59,1.04Z"/>
        <path class="cls-1" d="M106.87,0c7.08.13,14.43,2.59,21.08,7.18,1.17.81,2.12,1.92,3.24,2.81.77.61.85,1.42.61,2.17-.26.83-1.14.79-1.88.77-5.39-.14-10.71.24-15.84,2.08-3.28,1.18-6.23,2.9-8.85,5.24-1.58,1.41-2.25,1.95-4.53.7-3.64-1.99-7.51-3.45-11.59-4.15-5.63-.96-11.1-.05-16.38,1.95-3.93,1.49-7.62,3.46-10.96,6.06-.45.35-1.19,1.01-1.61.44-.43-.58-.4-1.52.28-2.2,2.47-2.44,4.77-5.06,7.41-7.31,4.79-4.09,9.96-7.69,15.76-10.26,4.97-2.2,10.14-3.69,15.48-4.8,2.29-.47,4.5-.44,7.79-.68Z"/>
        <path class="cls-1" d="M139.95,51.12c9.81.17,16.44,6.08,18.98,15.19.6,2.13,1.03,4.32,1.37,6.52.26,1.71-.11,3.43-.64,5.07-.43,1.33-1.29,1.9-2.77,1.37-3.46-1.23-7.01-2.19-10.71-2.1-4.09.09-8.04.99-11.82,2.55-2.98,1.23-3.91.57-4.24-2.57-.56-5.37-1.61-10.63-4.81-15.18-.66-.93-1.41-1.8-2.1-2.7-.94-1.22-.81-2.45.52-3.18,5.07-2.75,10.32-4.97,16.23-4.96Z"/>
        <path class="cls-1" d="M178.02,158.18c.03,5.65-.96,11.02-4.45,15.69-5.61,7.52-17.02,10.75-25.33,4.21-2.47-1.94-4.28-4.23-5.37-7.15-.64-1.71-.24-3.27,1.15-4.44,2.28-1.92,4.65-3.73,6.79-5.79,1.81-1.74,3.39-3.73,4.95-5.71.93-1.17,2.1-1.84,3.48-1.81,5.12.13,9.8-1.36,14.34-3.51,1.65-.78,2.74-.26,3.41,1.6.39,1.07.82,2.15.98,3.26.17,1.19.04,2.42.04,3.63Z"/>
        <path class="cls-1" d="M59.26,73.08c.39-3.12,1.75-5.92,3.27-8.59,2.64-4.62,6.26-8.27,11.27-10.39,2.29-.96,4.64-1.45,7.13-1.65,5.16-.41,9.97.63,14.57,2.86.31.15.62.3.91.49,2.95,1.86,3.18,3.04,1.31,6.02-2.85,4.52-4.44,9.5-5.08,14.77-.34,2.79-1.6,3.83-4.72,2.59-3.25-1.3-6.42-2.7-9.89-3.27-4.86-.8-9.75-.6-14.64-.34-1.06.06-2.17-.02-3.19-.3-1.03-.28-.98-1.29-.95-2.2Z"/>
        <path class="cls-1" d="M54.85,134.75c-1.31.25-2.41-.53-3.44-1.18-5.23-3.28-9.23-7.63-11.47-13.48-1.91-4.98-1.64-9.91.1-14.85,1.16-3.29,2.99-6.16,5.48-8.61,1.11-1.09,1.52-2.67,2.69-3.75,1.95-1.79,3.16-1.53,4.27.84,3.21,6.83,7.73,12.55,14.38,16.39,1.98,1.14,1.94,2.46.2,3.96-4.01,3.47-6.65,7.81-7.76,13.03-.37,1.72-.66,3.46-1.01,5.18-.37,1.82-1.52,2.61-3.42,2.47Z"/>
        <path class="cls-1" d="M162.26,45.56c4.88.07,9.26,1.51,13.55,3.24,5.89,2.37,11.29,5.56,15.6,10.31,3.33,3.66,6.07,7.7,5.7,12.93-.26,3.68-1.7,6.96-4.53,9.5-.91.82-1.75.61-2.55-.24-1.64-1.76-2.73-3.92-4.25-5.79-3.37-4.11-7.41-7.08-12.58-8.44-3.36-.88-6.49-2.12-8.88-4.84-1.02-1.16-1.77-2.48-2.17-3.85-.97-3.37-3.26-5.83-5.28-8.49-1.72-2.25-1.42-3.42,1.32-3.87,1.39-.23,2.81-.66,4.08-.47Z"/>
        <path class="cls-1" d="M164.21,207.29c-1.35,0-2.35.08-3.32-.02-1.38-.15-2.09-1.44-1.19-2.21,3.65-3.16,4.76-7.6,6.23-11.88.73-2.12,1.23-4.33,2.7-6.17,1.51-1.88,3.68-2.09,5.7-2.2,5.1-.28,10-1.25,14.7-3.19,3.06-1.27,5.77-3.1,8.32-5.2,2.35-1.94,4.27-4.26,6.22-6.56.46-.55.94-1.36,1.82-1.02.91.35.81,1.27.77,2.06-.15,3.17-1.41,6.04-2.57,8.91-2.64,6.54-7.02,11.86-12.27,16.44-6.39,5.57-13.79,9.26-22.19,10.67-1.73.29-3.5.74-4.93.39Z"/>
        <path class="cls-1" d="M83.24,22.68c4.74-.25,8.81.98,12.81,2.56.63.25,1.38.56,1.38,1.37,0,.99-.92,1.31-1.64,1.54-4.13,1.26-7.47,3.58-10.02,7.07-1.09,1.49-1.66,3.23-2.41,4.89-1.82,4.04-4.8,6.43-9.23,7.28-4.5.87-8.15,3.63-11.88,6.13-1.37.92-2.72,1.88-4.15,2.69-1.76.98-3.28.14-3.32-1.84-.14-8.1,2.23-15.33,7.42-21.64,4.69-5.7,10.89-8.6,17.93-10,1.11-.22,2.31-.03,3.1-.03Z"/>
        <path class="cls-1" d="M125.69,19.16c8.94.05,16.35,3.51,22.11,10.29,3.09,3.64,4.69,8.03,5.22,12.76.34,2.99-1.54,4.34-4.56,3.88-3.04-.47-6.04-1.41-9.15-1.21-2.95.19-5.11-.72-6.8-3.29-2.89-4.4-7.22-7.19-11.8-9.58-2.98-1.56-6.08-2.84-9.3-3.85-2.72-.86-2.89-2.13-.68-4.01,3.58-3.05,9.33-4.96,14.95-4.99Z"/>
        <path class="cls-1" d="M203.78,152.64c-.04,9.82-4.3,15.72-11.51,19.78-3.5,1.98-7.32,3.07-11.23,3.91-.6.13-1.19-.07-1.39-.41-.5-.86-.23-1.8.31-2.59,1.47-2.15,2.36-4.55,2.95-7.04,1.31-5.57.87-11.11-.49-16.63-.34-1.37-.81-2.69-.93-4.15-.21-2.47,1.08-3.8,2.96-4.88,2.73-1.57,5.64-2.73,8.63-3.65,2.48-.76,4.49.1,6.07,2.36,3.05,4.39,4.59,9.25,4.64,13.3Z"/>
        <path class="cls-1" d="M186.05,128.96c.28-3.66-.69-7.55-2.16-11.27-1.71-4.35-.73-7.85,2.57-10.94,3.4-3.18,4.82-7.37,5.84-11.75.23-.99.23-2.21,1.42-2.51,1.13-.29,2.27-.08,3.17.87,5.99,6.37,9.46,13.74,8.55,22.65-.38,3.7-2.18,6.98-4.67,9.7-2.66,2.91-5.37,5.84-9.12,7.49-1.05.47-2.14.76-3.23,1.06-1.57.43-2.23-.08-2.36-1.75,0-.06,0-.12,0-.17,0-.98,0-1.97,0-3.37Z"/>
        <path class="cls-1" d="M111.48,54.95c-4.37-.33-8.47-1.71-12.51-3.29-3.09-1.21-6.09-2.6-9.03-4.14-2.07-1.08-2.69-2.42-1.74-4.5,2.57-5.59,6.52-9.2,13.02-10.04,8.33-1.08,15.02,2.37,21.49,6.76,1.94,1.32,3.74,2.85,5.34,4.6,1.14,1.25,1.05,2.27-.51,2.97-3.87,1.73-7.42,4.01-11,6.23-1.53.95-3.21,1.49-5.05,1.41Z"/>
        <path class="cls-1" d="M52.88,60.12c3.42.25,4.18.93,3.18,4.16-1.19,3.83-3.07,7.53-2.73,11.76.1,1.23.43,2.35.77,3.49.64,2.12.25,3.24-1.65,4.29-3.99,2.21-7.53,4.99-10.71,8.25-1,1.02-1.86,2.19-2.88,3.19-1.53,1.5-3.74,1.41-4.96-.32-2.47-3.5-3.66-7.31-3.19-11.72.29-2.76.66-5.4,1.72-7.97,2.21-5.34,6.03-9.16,10.96-12.01,3.01-1.74,6.25-2.74,9.49-3.11Z"/>
        <path class="cls-1" d="M121.44,110.35c.12,6.41-2.33,11.63-7.52,15.37-3.01,2.17-6.46,2.3-9.73.55-4.13-2.21-7.32-5.4-8.48-10.08-1.22-4.92.34-10.4,4.71-13.41,2.5-1.72,5.04-3.52,8.16-3.77,6.7-.53,12.88,1.11,12.86,10.31,0,.35,0,.69,0,1.04Z"/>
        <path class="cls-1" d="M11.29,137.12c-2.91-2.52-5.2-5.07-6.93-8.11-2.61-4.57-3.66-9.51-4.18-14.72-.72-7.25.91-13.96,3.74-20.47,1.34-3.09,3.35-5.82,6.71-6.89,4.39-1.4,8.68,0,11.78,4.05.79,1.03,1.68,2.06,1.87,3.55.22,1.81-.42,3.6-1.86,4.85-4.33,3.74-8.83,7.38-11.58,12.54-2.19,4.12-2.75,8.6-2.03,13.25.48,3.08,1.22,6.07,2.41,8.95.34.82.13,1.71.08,3Z"/>
        <path class="cls-1" d="M186.41,89.65c-.34,4.47-1.48,9.16-3.98,13.42-2.06,3.51-5.61,3.39-8.33-.24-2.84-3.79-6.13-7.11-9.94-9.93-1.59-1.17-2.43-3.94-1.77-5.87,1.53-4.47,2.99-8.94,3.59-13.67.37-2.9,2.1-3.7,4.95-2.53,5.1,2.1,9.72,4.87,12.73,9.69,1.65,2.64,2.78,5.5,2.76,9.13Z"/>
        <path class="cls-1" d="M55.81,157.91c-.31-3.9.54-7.61,1.76-11.27.25-.75.53-1.62,1.45-1.76.86-.13,1.28.6,1.7,1.21,2.33,3.4,5.24,6.17,8.87,8.18,1.51.84,3.1,1.43,4.72,1.98,1.71.58,2.52,1.62,2.73,3.49.51,4.53,2.55,8.46,5.26,12.05,1.1,1.46,2.28,2.86,3.53,4.2.56.6.6,1.23.51,1.91-.11.84-.98.84-1.48.86-8.05.33-16,0-22.7-5.3-3.97-3.14-6.1-7.35-6.34-12.44-.05-1.04,0-2.08,0-3.12Z"/>
        <path class="cls-1" d="M221.51,103.07c-.53,5.54-1.74,10.84-6,14.89-.9.85-1.98,1.51-2.96,2.28-.58.46-1.29.46-1.76.11-.48-.36-.78-.9-.54-1.75.81-2.94,1.55-5.88,1.56-9.01.02-5.72-2.09-10.58-5.4-15.04-1.36-1.83-2.85-3.56-4.46-5.2-1.79-1.82-1.69-4.06-.82-6.21,1.39-3.45,2.51-6.93,2.27-10.71-.07-1.04.35-1.32,1.29-1.2.94.12,1.76.51,2.43,1.12,3.18,2.9,5.7,6.33,7.94,9.99,3.13,5.13,4.81,10.78,6.02,16.6.28,1.33.29,2.72.43,4.11Z"/>
        <path class="cls-1" d="M88.87,197.98c-5.05-.32-10.13-1.52-15.03-3.4-4.9-1.88-9.26-4.71-12.92-8.45-2.46-2.51-4.77-5.21-6.13-8.56-.34-.85-.67-1.64.27-2.29.91-.62,1.52.1,2.09.59,3.84,3.26,7.78,6.33,12.8,7.61,4.29,1.09,8.59,1.61,13.05,1,3.09-.42,6.26-.96,9.38-.02,2.74.82,4.18,3.01,5.49,5.31.42.74.8,1.51,1.18,2.28,1.13,2.27.42,4-2.03,4.82-2.57.86-5.26.94-8.17,1.11Z"/>
        <path class="cls-1" d="M209.66,154.99c.3-6.85-1.45-12.86-5.4-18.24-1.8-2.46-1.92-4.25.77-6.19,2.59-1.88,5.02-4.05,8.37-4.6,3.63-.59,4.9-.52,6.32,3.46,1.38,3.89,1.22,7.91.79,11.98-.44,4.16-1.6,8.09-3.28,11.85-1.22,2.74-2.88,5.29-5.13,7.36-1.05.97-1.68.7-2.15-.7-.57-1.7-.05-3.43-.28-4.92Z"/>
      </g>
    </g>
  </g>
</svg>