<?xml version="1.0" encoding="UTF-8"?>
<svg id="Camada_2" data-name="Camada 2" xmlns="http://www.w3.org/2000/svg" viewBox="0 0 513.48 121.41">
  <defs>
    <style>
      .cls-1 {
        fill: #fff;
      }
    </style>
  </defs>
  <g id="Camada_1-2" data-name="Camada 1">
    <g>
      <path class="cls-1" d="M19.5,118.19s.29-11.12,9.46-15.25c9.17-4.12,32.07-2.71,42.01-25.08,9.95-22.36-6.55-35.57-6.55-35.57,0,0-.93,25.1-26.32,29.1-6.66,1.05-11.2,5.65-14.29,12.54,0,0-1.1-12.31,13.25-18.05,1.82-.73,17.02-6.27,21.05-21.14,1.73-6.38.56-13.55-2.35-19.54C49.09,11.41,29.66,3.92,29.66,3.92c0,0,16.82,13.33,1.99,29.04C16.82,48.65-1.05,55.27.05,82.69c1.1,27.41,19.45,35.5,19.45,35.5Z"/>
      <path class="cls-1" d="M15.42,42.06s15.81-11.66,15.2-23.71C30.11,8.5,16.24,0,16.24,0c0,0,6.54,6.08,6.99,18.39.44,11.76-7.82,23.67-7.82,23.67Z"/>
      <path class="cls-1" d="M23.02,120.28s-1.39-8.85,6.04-13.22c7.43-4.37,24.61-4.26,34.66-13.22,0,0-7.54,13.22-24.58,16.83-14.94,3.16-16.12,9.62-16.12,9.62Z"/>
      <path class="cls-1" d="M24.61,121.37s2.04-5.53,15.08-8.38c0,0-8.38,9.1-15.08,8.38Z"/>
    </g>
    <g>
      <path class="cls-1" d="M101.89,85.58c-3.93-2.11-7-5.18-9.21-9.21-2.21-4.03-3.31-8.8-3.31-14.33s1.17-10.34,3.51-14.47c2.34-4.12,5.64-7.31,9.89-9.55,4.25-2.24,9.14-3.36,14.67-3.36,4.42,0,8.48.36,12.18,1.07,3.7.72,6.82,1.59,9.36,2.63l-10.04,18.91h-2.63l-3.7-8.09c-1.82-3.9-3.22-6.61-4.19-8.14-.97-1.53-2.08-2.29-3.31-2.29-.72,0-1.41.46-2.1,1.36-.68.91-1.23,2.42-1.66,4.53-.42,2.11-.63,4.86-.63,8.23,0,4.81.75,8.95,2.24,12.42,1.49,3.48,3.65,6.14,6.48,7.99s6.15,2.78,9.99,2.78c1.3,0,2.63-.08,4-.24,1.36-.16,2.73-.41,4.09-.73l1.27,2.44c-1.17,1.43-2.65,2.94-4.43,4.53-1.79,1.59-4.34,3.1-7.65,4.53-3.31,1.43-7.15,2.14-11.5,2.14-4.94,0-9.37-1.06-13.3-3.17Z"/>
      <path class="cls-1" d="M159.34,85.29c-4.81-2.31-8.51-5.6-11.11-9.89-2.6-4.29-3.9-9.32-3.9-15.11s1.32-10.72,3.95-15.01c2.63-4.29,6.35-7.62,11.16-9.99,4.81-2.37,10.39-3.56,16.76-3.56s11.94,1.19,16.71,3.56c4.78,2.37,8.48,5.7,11.11,9.99,2.63,4.29,3.95,9.29,3.95,15.01s-1.3,10.82-3.9,15.11c-2.6,4.29-6.29,7.59-11.06,9.89-4.78,2.3-10.38,3.46-16.81,3.46s-12.05-1.15-16.86-3.46ZM181.41,82.22c1.14-1.17,1.92-3.39,2.34-6.68.42-3.28.63-8.33.63-15.15s-.21-12.07-.63-15.35c-.42-3.28-1.2-5.52-2.34-6.72-1.14-1.2-2.87-1.8-5.21-1.8s-4.08.6-5.21,1.8c-1.14,1.2-1.92,3.43-2.34,6.68-.42,3.25-.63,8.32-.63,15.2s.21,12.07.63,15.35c.42,3.28,1.2,5.51,2.34,6.68,1.14,1.17,2.88,1.75,5.21,1.75s4.08-.58,5.21-1.75Z"/>
      <path class="cls-1" d="M213.42,84.85l2.44-1.56c.84-.52,1.38-1.06,1.61-1.61.23-.55.34-1.54.34-2.97v-30.5c0-1.88-.11-3.15-.34-3.8-.23-.65-.76-1.23-1.61-1.75l-2.44-1.56v-2.73l26.51-3.41v11.5l-2.44-1.36.97-.78c1.69-1.36,3.62-2.74,5.8-4.14,2.18-1.4,4.58-2.61,7.21-3.65,2.63-1.04,5.18-1.56,7.65-1.56,4.55,0,7.93,1.24,10.13,3.7,2.21,2.47,3.31,6.24,3.31,11.3v28.75c0,1.36.13,2.34.39,2.92.26.58.81,1.14,1.66,1.66l2.34,1.56v2.44h-30.21v-2.44l1.66-1.27c.78-.58,1.28-1.17,1.51-1.75.23-.58.34-1.62.34-3.12v-27.48c0-1.69-.39-2.92-1.17-3.7-.78-.78-1.95-1.17-3.51-1.17-.91,0-1.89.1-2.92.29-1.04.2-1.89.39-2.53.58v31.48c0,1.5.11,2.53.34,3.12.23.58.73,1.17,1.51,1.75l1.66,1.27v2.44h-30.21v-2.44Z"/>
      <path class="cls-1" d="M312.92,77.83l1.66.68c-2.6,3.12-5.3,5.55-8.09,7.31-2.79,1.75-5.94,2.63-9.45,2.63-3.77,0-6.92-.93-9.45-2.78-2.53-1.85-4.45-4.66-5.75-8.43-1.3-3.77-1.95-8.54-1.95-14.33,0-6.17.94-11.35,2.83-15.54,1.88-4.19,4.42-7.29,7.6-9.31,3.18-2.01,6.82-3.02,10.91-3.02,2.86,0,5.31.44,7.36,1.32,2.05.88,4.24,2.13,6.58,3.75l-2.24,1.17v-14.33c0-1.88-.11-3.15-.34-3.8-.23-.65-.76-1.23-1.61-1.75l-2.44-1.56v-2.73l26.51-3.41v61.59c0,1.88.11,3.15.34,3.8.23.65.76,1.23,1.61,1.75l2.44,1.56v2.73l-26.51,3.41v-10.72ZM311.65,77.1c.52-.1.94-.18,1.27-.24v-34.01c-.58-.26-1.2-.45-1.85-.58-.65-.13-1.27-.2-1.85-.2-2.27,0-4,1.24-5.17,3.7-1.17,2.47-1.75,7.15-1.75,14.03,0,4.68.29,8.28.88,10.82.58,2.53,1.41,4.27,2.48,5.21,1.07.94,2.49,1.41,4.24,1.41.65,0,1.23-.05,1.75-.15Z"/>
      <path class="cls-1" d="M342.35,84.85l2.44-1.56c.84-.52,1.38-1.06,1.61-1.61.23-.55.34-1.54.34-2.97v-35.67h-5.46v-2.44l5.46-4.38.29-1.46c.91-4.61,2.39-8.45,4.43-11.5,2.05-3.05,5-5.41,8.87-7.06,3.86-1.66,8.88-2.49,15.06-2.49,5.07,0,10.28.49,15.64,1.46,5.36.97,9.79,1.95,13.3,2.92-.78,3.18-1.58,5.65-2.39,7.41-.81,1.75-2,3.13-3.56,4.14-1.56,1.01-3.7,1.51-6.43,1.51-2.4,0-5.12-.49-8.14-1.46-3.02-.97-6.64-2.31-10.87-4-3.7-1.43-6.47-2.45-8.28-3.07-1.82-.62-3.41-.93-4.78-.93-.91,0-1.64.28-2.19.83-.55.55-.83,1.25-.83,2.09,0,1.37.88,3.09,2.63,5.17,1.75,2.08,4.77,4.78,9.06,8.09,3.51,0,15.01-.97,34.5-2.92v43.76c0,1.43.11,2.42.34,2.97.23.55.76,1.09,1.61,1.61l2.44,1.56v2.44h-31.09v-2.44l2.44-1.56c.84-.52,1.38-1.06,1.61-1.61.23-.55.34-1.54.34-2.97v-32.84c0-.84-.24-1.53-.73-2.05-.49-.52-1.15-.78-2-.78h-8.97v35.67c0,1.36.13,2.34.39,2.92.26.58.81,1.14,1.66,1.66l2.34,1.56v2.44h-31.09v-2.44Z"/>
      <path class="cls-1" d="M409.98,84.85l2.44-1.56c.84-.52,1.38-1.06,1.61-1.61.23-.55.34-1.54.34-2.97v-30.5c0-1.88-.11-3.15-.34-3.8-.23-.65-.76-1.23-1.61-1.75l-2.44-1.56v-2.73l26.51-3.41-.78,20.46h.39c1.17-3.7,2.6-7.28,4.29-10.72,1.69-3.44,3.61-6.3,5.75-8.58h9.84v20.95h-12.67c-1.75,0-3.22.34-4.38,1.02-1.17.68-1.92,1.51-2.24,2.48v18.13c0,1.62.1,2.71.29,3.26.19.55.71,1.02,1.56,1.41l2.83,1.46v2.44h-31.38v-2.44Z"/>
      <path class="cls-1" d="M472.79,85.34c-4.19-2.27-7.41-5.44-9.65-9.5-2.24-4.06-3.36-8.69-3.36-13.89s1.09-9.86,3.26-13.99c2.18-4.12,5.36-7.37,9.55-9.75,4.19-2.37,9.24-3.56,15.15-3.56,5.39,0,10,.91,13.84,2.73,3.83,1.82,6.77,4.48,8.82,7.99,2.05,3.51,3.07,7.8,3.07,12.86,0,1.37-.07,2.7-.2,4l-37.62-1.66v-3.31l17.44-1.95c0-4.94-.46-8.92-1.36-11.94-.91-3.02-2.47-4.53-4.68-4.53-2.53,0-4.16,1.51-4.87,4.53-.72,3.02-1.07,7.49-1.07,13.4,0,4.35.79,7.96,2.39,10.82,1.59,2.86,4,4.97,7.21,6.33s7.26,2.05,12.13,2.05c3.05,0,6.17-.29,9.36-.88l1.27,2.44c-2.67,2.79-6.3,5.36-10.92,7.7-4.61,2.34-9.62,3.51-15.01,3.51s-10.57-1.14-14.76-3.41Z"/>
    </g>
  </g>
</svg>