<?xml version="1.0" encoding="UTF-8"?>
<svg id="Camada_2" data-name="Camada 2" xmlns="http://www.w3.org/2000/svg" viewBox="0 0 1299.2 767.71">
  <defs>
    <style>
      .cls-1 {
        fill: #fff;
      }
    </style>
  </defs>
  <g id="Camada_1-2" data-name="Camada 1">
    <g>
      <g>
        <path class="cls-1" d="M95.88,307.84c-.69-.69,30.17-23.25,30.17-54.03,0-33.26-28.03-56.74-60.73-56.74H4.73c-1.41,0-2.31,1.45-1.71,2.73,1.63,3.49,3.95,10.56,3.95,22.45v177.7c0,2.53.02,17.04-4.01,22.57-4.03,5.53-3.34,9.44-1.5,9.44h60.06c11.46,0,22.89-1.97,33.5-6.31,18.21-7.44,41.38-29.34,41.38-56.67,0-43.43-39.84-60.45-40.53-61.14ZM40.95,217.33s48.14-2.53,48.14,40.17-48.14,46.69-48.14,46.69v-86.86ZM40.95,412.41v-100.62c21.72,0,57.18,15.92,57.18,52.84,0,50.67-57.18,47.77-57.18,47.77Z"/>
        <path class="cls-1" d="M336.29,203.95v34.34c0,.86-.88,1.42-1.64,1.01-5.15-2.77-22.17-11.05-47.56-14.59-40.56-5.65-101.01,20.28-101.01,99.59,0,67.84,60.26,82.51,87.95,81.95,39.33-.8,65.31-22.72,65.87-23.16,1.13-.91,2.49-2.23,2.49-.43v33.28c0,1.83-1,3.49-2.64,4.31-5.08,2.57-15.21,5.6-28.29,8.86-7.37,1.84-14.92,3.12-22.48,3.8-13.39,1.2-19.74,1.09-27.01,1.09-3.08,0-111.66-3.32-111.66-109.7s99.26-126.54,102.79-127.24c6.15-1.21,31.02-8.68,81.05,4.14,1.24.32,2.14,1.46,2.14,2.74Z"/>
        <path class="cls-1" d="M893.09,199.3c-76.87-181.21-198.23-148.75-259.6-106.99-26.82,18.25-88.55,50.04-163.97,209.76-11.81,25.01-21.16,53.99-30.33,86.29-15.74,55.47-18.49,108.78-21.48,113.32-3.87,5.87-7.61-49.43,8.79-117.92,5.76-24.08,22.57-91.64,65.61-172.34,11.17-20.95,69.66-137.15,166.93-193.03,65.91-37.87,183.48-34.48,244.1,179.86,10.07,35.62,13.81,90.93,10.77,75.33-3.81-19.56-11.53-52.38-20.82-74.28Z"/>
        <path class="cls-1" d="M637.31,325.92s50.16-20.06,46.63-64.74c-3.59-45.51-48.5-62.93-89.52-62.93h-38.4c-12.02,0-3.6,12.45-1.11,14.94,2.49,2.49,0,209.17,0,209.17,0,2.27-6.13.62-6.13,2.26v4.99c0,.69.56,1.79,1.24,1.79h46.71c.69,0,1.26-1.08,1.28-1.77.05-1.41.14-3.38.14-5.01,0-1.17-5.31-1.03-5.31-2.26s-1.02-91.71,0-91.71h5.53c2.25,0,83,100.76,83,100.76h34.06l-78.13-105.49ZM592.84,317.48v-99.87c29.58,0,57.48,17.74,55.8,51.5-2.17,43.5-55.8,48.37-55.8,48.37Z"/>
        <path class="cls-1" d="M1067.92,315.12c0-58.71-57.61-116.95-123.94-116.9-86.1.07-119.51,72.74-119.51,116.9,0,40.37,22.11,118,119.51,118s123.94-81.14,123.94-118ZM943.98,408.45c-45.84,0-82.2-36.93-82.2-90.97,0-23.45,13.12-93.69,82.2-93.69,59.78,0,86.04,41.44,86.04,93.69,0,59.14-40.96,90.97-86.04,90.97Z"/>
        <path class="cls-1" d="M913.86,270.97v48.33s91.99-34.06,195.56-8.58c109.43,26.92,147.96,65.86,187.41,144.11,16.23,32.19-44.71-266.85-382.97-183.86Z"/>
        <path class="cls-1" d="M486.01,362.91c.9,15.45-.91,30.89-15.9,49.05-12.05,14.59-30.22,19.66-42.8,21.28-28.54,3.67-62.64-4.49-62.64-6.7v-44.77c0-3.1,2.02-1.62,2.83-.94.81.67,8.59,12.78,20.84,19.98,9.04,5.31,17.81,7.15,22.88,7.67,8.73.9,15.14-.86,21.36-4.34,5.23-2.93,12.34-7.68,15.49-21.64,4.81-21.32-12.1-35.25-15.64-37.99-3.88-3-40.23-25.05-50.23-33.08-24.54-19.72-30.73-47.65-18.13-75.88,16.17-36.22,47.22-40.43,64.7-40.87,3.03-.08,6.03.09,9.05.42,15.85,1.73,34.85,11.2,34.85,13.55,0,5.61-.89,22.19-1.22,26.99-.05.78-.91,1.21-1.56.78-12.1-8.12-54.95-26.44-73.69,8.36-17.76,32.98,43.72,61.4,50.17,65.38,6.45,3.98,37.74,19.95,39.66,52.77Z"/>
        <path class="cls-1" d="M792.1,422.85c-3.1-3.88-7.24-3.36-7.24-9.06v-192.3c0-16.27,9.32-16.77,9.32-20.26s-.78-2.98-2.72-2.98h-48.7c-1.94,0-2.72-.52-2.72,2.98s9.32,3.99,9.32,20.26v192.3c0,5.7-4.14,5.18-7.24,9.06-3.1,3.88-2.07,7.42-2.07,8.56,0,.57,13.29.57,26.59.43,13.29.14,27.54.14,27.54-.43,0-1.14,1.03-4.68-2.07-8.56Z"/>
      </g>
      <g>
        <path class="cls-1" d="M18.02,660.93c-1.33,0-2.7-.03-4.11-.1-1.41-.07-2.81-.15-4.2-.25-1.4-.1-2.76-.25-4.09-.43v-56.91c1.3-.26,2.68-.49,4.13-.68s2.97-.35,4.58-.47,3.28-.18,5.03-.18c4.8,0,8.72.55,11.77,1.64,3.05,1.1,5.3,2.76,6.75,5.01,1.45,2.24,2.17,5.11,2.17,8.61,0,2.14-.37,4.16-1.11,6.06-.74,1.9-1.94,3.53-3.6,4.87s-3.87,2.25-6.63,2.72v-.55c4.33.55,7.58,2.1,9.74,4.65,2.16,2.56,3.25,5.88,3.25,9.97,0,2.63-.45,4.96-1.35,6.96-.9,2.01-2.3,3.68-4.2,5.01-1.9,1.33-4.35,2.34-7.33,3.03s-6.58,1.04-10.78,1.04ZM19.24,655.96c4.07,0,7.32-.4,9.76-1.19,2.44-.79,4.2-2.02,5.3-3.68s1.64-3.76,1.64-6.32c0-3.86-1.14-6.75-3.42-8.66-2.28-1.92-5.91-2.88-10.89-2.88h-10.95v-5.05h9.5c3.62,0,6.46-.42,8.51-1.25,2.05-.83,3.49-2.05,4.34-3.64.85-1.59,1.27-3.55,1.27-5.87,0-3.75-1.08-6.45-3.25-8.1-2.16-1.64-5.88-2.46-11.15-2.46-1.67,0-3.17.05-4.52.16-1.34.1-2.65.26-3.93.47v48.11c1.33.16,2.64.25,3.93.29,1.29.04,2.57.06,3.85.06Z"/>
        <path class="cls-1" d="M49.12,660.42v-42.44h4.93l.47,5.79h.39c1.25-2.14,2.82-3.71,4.71-4.71,1.89-1,3.89-1.51,6-1.51.5,0,.95.02,1.37.06s.77.08,1.06.14v5.59c-.47-.08-.91-.12-1.33-.14-.42-.01-.89-.02-1.41-.02-1.33,0-2.65.23-3.97.7-1.32.47-2.53,1.17-3.64,2.11-1.11.94-2.01,2.09-2.72,3.44v30.98h-5.87Z"/>
        <path class="cls-1" d="M76.35,608.75c-1.33,0-2.35-.35-3.07-1.06-.72-.7-1.08-1.66-1.08-2.86s.36-2.19,1.08-2.89c.72-.7,1.74-1.06,3.07-1.06s2.35.35,3.07,1.06,1.08,1.67,1.08,2.89-.36,2.15-1.08,2.86-1.74,1.06-3.07,1.06ZM73.41,660.42v-42.44h5.87v42.44h-5.87Z"/>
        <path class="cls-1" d="M84.25,622.87v-4.89h24.1v4.89h-24.1ZM103.45,661.16c-3.75,0-6.69-1.01-8.8-3.03-2.11-2.02-3.17-5.38-3.17-10.07v-30.08l.94-15.45h4.89v44.75c0,3.26.59,5.51,1.78,6.77,1.19,1.25,3.03,1.88,5.54,1.88.65,0,1.34-.05,2.07-.16.73-.1,1.47-.23,2.23-.39v5.12c-.78.18-1.66.34-2.64.47-.98.13-1.92.2-2.84.2Z"/>
        <path class="cls-1" d="M117.26,608.75c-1.33,0-2.35-.35-3.07-1.06-.72-.7-1.08-1.66-1.08-2.86s.36-2.19,1.08-2.89c.72-.7,1.74-1.06,3.07-1.06s2.35.35,3.07,1.06,1.08,1.67,1.08,2.89-.36,2.15-1.08,2.86-1.74,1.06-3.07,1.06ZM114.33,660.42v-42.44h5.87v42.44h-5.87Z"/>
        <path class="cls-1" d="M138.19,661.16c-1.7,0-3.35-.14-4.97-.41-1.62-.27-3.18-.67-4.69-1.19v-5.01c1.72.55,3.36.96,4.93,1.23,1.56.27,3.12.41,4.65.41,3,0,5.26-.63,6.79-1.88,1.53-1.25,2.29-3.02,2.29-5.32,0-2.03-.48-3.57-1.45-4.62-.96-1.04-2.4-1.83-4.3-2.35l-4.26-1.13c-3.42-.94-5.86-2.35-7.33-4.22-1.47-1.88-2.21-4.29-2.21-7.24,0-3.55,1.27-6.45,3.81-8.72,2.54-2.27,6.2-3.4,10.97-3.4,1.59,0,3.05.08,4.38.25,1.33.17,2.62.4,3.87.68v5.05c-1.43-.39-2.77-.66-4.01-.8-1.24-.14-2.58-.21-4.01-.21-2.22,0-4.03.32-5.44.96-1.41.64-2.43,1.49-3.07,2.56-.64,1.07-.96,2.24-.96,3.52,0,1.83.46,3.25,1.37,4.28.91,1.03,2.32,1.82,4.22,2.37l4.26,1.13c3.6.97,6.12,2.41,7.55,4.32,1.43,1.92,2.15,4.38,2.15,7.37,0,3.86-1.29,6.88-3.85,9.07-2.57,2.19-6.13,3.29-10.7,3.29Z"/>
        <path class="cls-1" d="M159.74,660.42v-63.21h5.87v25.5h.35c1.41-1.8,3.05-3.15,4.93-4.05,1.88-.9,3.92-1.35,6.14-1.35,2.09,0,3.98.42,5.67,1.25,1.7.83,3.04,2.24,4.03,4.22.99,1.98,1.49,4.69,1.49,8.14v29.49h-5.87v-29.26c0-3.23-.65-5.44-1.96-6.63-1.3-1.19-3.03-1.78-5.16-1.78-1.02,0-2.12.17-3.31.51s-2.34.92-3.46,1.74c-1.12.82-2.07,1.92-2.86,3.31v32.11h-5.87Z"/>
        <path class="cls-1" d="M209.96,660.42l18.07-57.89h8.45l18.07,57.89h-6.02l-16.86-54.96h1.06l-16.82,54.96h-5.95ZM218.92,641.6l1.29-5.24h24.06l1.29,5.24h-26.64Z"/>
        <path class="cls-1" d="M260.19,660.42v-42.44h4.97l.47,4.73h.39c1.41-1.72,3.06-3.05,4.97-3.99,1.9-.94,3.99-1.41,6.26-1.41s4.11.42,5.83,1.25c1.72.83,3.08,2.23,4.09,4.19,1,1.96,1.51,4.63,1.51,8.02v29.65h-5.87v-29.3c0-3.21-.65-5.42-1.96-6.63-1.3-1.21-3.03-1.82-5.16-1.82-1.02,0-2.12.18-3.31.53-1.19.35-2.34.95-3.46,1.78-1.12.83-2.07,1.94-2.86,3.33v32.11h-5.87Z"/>
        <path class="cls-1" d="M310.57,661.16c-2.56,0-4.92-.65-7.1-1.96s-3.92-3.49-5.24-6.57c-1.32-3.08-1.98-7.28-1.98-12.6s.72-9.46,2.17-12.81,3.6-5.83,6.45-7.45c2.86-1.62,6.4-2.42,10.62-2.42.73,0,1.5.03,2.31.08.81.05,1.58.12,2.31.2v-20.42h5.87v63.21h-5.05l-.43-4.3h-.39c-.89,1.41-2.15,2.6-3.78,3.58s-3.55,1.47-5.77,1.47ZM311.98,656c1.56,0,3.1-.41,4.6-1.23,1.5-.82,2.68-2.03,3.54-3.62v-28.52c-.65-.1-1.45-.2-2.41-.29s-1.82-.14-2.6-.14c-4.12,0-7.28,1.29-9.49,3.85-2.2,2.57-3.3,7.05-3.3,13.44,0,4.49.42,7.92,1.27,10.29.85,2.37,2,4,3.46,4.89,1.46.89,3.1,1.33,4.93,1.33Z"/>
        <path class="cls-1" d="M373.58,661.16c-3.52,0-6.68-.52-9.49-1.54-2.8-1.03-5.2-2.69-7.18-4.99s-3.49-5.33-4.54-9.11c-1.04-3.78-1.56-8.42-1.56-13.92,0-7.22.92-13.02,2.78-17.39,1.85-4.37,4.52-7.53,8-9.49s7.69-2.93,12.62-2.93c1.75,0,3.51.12,5.28.37,1.77.25,3.49.62,5.16,1.12v5.28c-1.83-.6-3.57-1-5.22-1.21-1.66-.21-3.36-.31-5.1-.31-3.73,0-6.88.74-9.45,2.23s-4.52,4-5.85,7.55c-1.33,3.55-2,8.42-2,14.63s.67,11.29,2.01,14.84,3.29,6.06,5.83,7.49c2.54,1.43,5.61,2.15,9.21,2.15,1.75,0,3.46-.16,5.14-.49,1.68-.33,3.49-.83,5.42-1.51v5.28c-1.51.55-3.21,1.01-5.1,1.39s-3.88.57-5.96.57Z"/>
        <path class="cls-1" d="M404.13,661.16c-3.18,0-5.95-.73-8.29-2.19-2.35-1.46-4.16-3.8-5.44-7.02-1.28-3.22-1.92-7.45-1.92-12.69s.63-9.51,1.9-12.73c1.26-3.22,3.06-5.56,5.4-7.02,2.33-1.46,5.12-2.19,8.35-2.19s5.95.74,8.31,2.21c2.36,1.47,4.18,3.82,5.46,7.04s1.92,7.44,1.92,12.65-.64,9.51-1.92,12.73c-1.28,3.22-3.08,5.56-5.42,7.02-2.33,1.46-5.12,2.19-8.35,2.19ZM404.13,656.39c1.98,0,3.69-.49,5.12-1.47,1.43-.98,2.54-2.7,3.33-5.16.78-2.46,1.17-5.93,1.17-10.38s-.4-8.06-1.19-10.56c-.8-2.5-1.91-4.25-3.34-5.24-1.43-.99-3.13-1.49-5.08-1.49s-3.65.49-5.08,1.47c-1.43.98-2.54,2.7-3.33,5.16-.78,2.46-1.17,5.93-1.17,10.38s.38,8.06,1.15,10.56c.77,2.5,1.88,4.25,3.33,5.24,1.45.99,3.15,1.49,5.1,1.49Z"/>
        <path class="cls-1" d="M427.72,660.42v-42.44h4.97l.47,4.77h.39c1.46-1.85,3.12-3.22,4.99-4.11s3.85-1.33,5.96-1.33c1.96,0,3.74.42,5.36,1.25,1.62.83,2.9,2.22,3.85,4.17.95,1.94,1.43,4.61,1.43,8v29.69h-5.79v-29.22c0-3.26-.63-5.5-1.88-6.71-1.25-1.21-2.86-1.82-4.81-1.82-.91,0-1.93.18-3.05.55-1.12.37-2.22.97-3.29,1.82-1.07.85-1.98,2-2.74,3.46v31.92h-5.87ZM470.75,660.42v-29.22c0-3.26-.65-5.5-1.96-6.71-1.3-1.21-2.92-1.82-4.85-1.82-.91,0-1.96.2-3.13.59-1.17.39-2.32,1.06-3.44,2-1.12.94-2.07,2.26-2.86,3.95l-1.41-4.65c1.69-2.69,3.66-4.56,5.89-5.63s4.4-1.6,6.51-1.6,3.93.42,5.61,1.25c1.68.83,3.02,2.25,4.01,4.24.99,2,1.49,4.71,1.49,8.16v29.45h-5.87Z"/>
        <path class="cls-1" d="M486.24,660.42v-42.44h4.97l.47,4.77h.39c1.46-1.85,3.12-3.22,4.99-4.11s3.85-1.33,5.96-1.33c1.96,0,3.74.42,5.36,1.25,1.62.83,2.9,2.22,3.85,4.17.95,1.94,1.43,4.61,1.43,8v29.69h-5.79v-29.22c0-3.26-.63-5.5-1.88-6.71-1.25-1.21-2.86-1.82-4.81-1.82-.91,0-1.93.18-3.05.55-1.12.37-2.22.97-3.29,1.82-1.07.85-1.98,2-2.74,3.46v31.92h-5.87ZM529.26,660.42v-29.22c0-3.26-.65-5.5-1.96-6.71-1.3-1.21-2.92-1.82-4.85-1.82-.91,0-1.96.2-3.13.59-1.17.39-2.32,1.06-3.44,2-1.12.94-2.07,2.26-2.86,3.95l-1.41-4.65c1.69-2.69,3.66-4.56,5.89-5.63s4.4-1.6,6.51-1.6,3.93.42,5.61,1.25c1.68.83,3.02,2.25,4.01,4.24.99,2,1.49,4.71,1.49,8.16v29.45h-5.87Z"/>
        <path class="cls-1" d="M558.4,661.16c-3.18,0-5.95-.73-8.29-2.19-2.35-1.46-4.16-3.8-5.44-7.02-1.28-3.22-1.92-7.45-1.92-12.69s.63-9.51,1.9-12.73c1.26-3.22,3.06-5.56,5.4-7.02,2.33-1.46,5.12-2.19,8.35-2.19s5.95.74,8.31,2.21c2.36,1.47,4.18,3.82,5.46,7.04,1.28,3.22,1.92,7.44,1.92,12.65s-.64,9.51-1.92,12.73c-1.28,3.22-3.08,5.56-5.42,7.02-2.33,1.46-5.12,2.19-8.35,2.19ZM558.4,656.39c1.98,0,3.69-.49,5.12-1.47,1.43-.98,2.54-2.7,3.33-5.16.78-2.46,1.17-5.93,1.17-10.38s-.4-8.06-1.19-10.56c-.8-2.5-1.91-4.25-3.34-5.24-1.43-.99-3.13-1.49-5.08-1.49s-3.65.49-5.08,1.47c-1.43.98-2.54,2.7-3.33,5.16-.78,2.46-1.17,5.93-1.17,10.38s.38,8.06,1.15,10.56c.77,2.5,1.88,4.25,3.33,5.24,1.45.99,3.15,1.49,5.1,1.49Z"/>
        <path class="cls-1" d="M581.99,660.42v-42.44h4.97l.47,4.73h.39c1.41-1.72,3.06-3.05,4.97-3.99,1.9-.94,3.99-1.41,6.26-1.41s4.11.42,5.83,1.25c1.72.83,3.08,2.23,4.09,4.19,1,1.96,1.51,4.63,1.51,8.02v29.65h-5.87v-29.3c0-3.21-.65-5.42-1.96-6.63-1.3-1.21-3.03-1.82-5.16-1.82-1.02,0-2.12.18-3.31.53-1.19.35-2.34.95-3.46,1.78-1.12.83-2.07,1.94-2.86,3.33v32.11h-5.87Z"/>
        <path class="cls-1" d="M627.56,660.42l-10.91-42.44h5.63l9.27,37.08h-.59l10.01-37.08h6.85l9.94,37.04h-.67l9.35-37.04h5.44l-10.88,42.44h-6.88l-10.09-37.39h.62l-10.25,37.39h-6.85Z"/>
        <path class="cls-1" d="M694.02,661.16c-3.91,0-7.17-.72-9.78-2.15s-4.56-3.76-5.87-6.98c-1.3-3.22-1.96-7.52-1.96-12.89s.63-9.39,1.88-12.59c1.25-3.21,3-5.55,5.26-7.02s4.88-2.21,7.88-2.21,5.48.73,7.59,2.19c2.11,1.46,3.74,3.8,4.87,7.02,1.13,3.22,1.7,7.46,1.7,12.73v2h-25.07v-4.22h20.42l-1.02.86c0-4.25-.35-7.55-1.06-9.9-.7-2.35-1.7-3.98-2.97-4.89s-2.76-1.37-4.46-1.37-3.3.46-4.65,1.37c-1.36.91-2.42,2.54-3.19,4.89-.77,2.35-1.15,5.65-1.15,9.9v2.27c0,4.07.44,7.26,1.31,9.58.87,2.32,2.21,3.97,4.01,4.95,1.8.98,4.09,1.47,6.88,1.47,1.33,0,2.72-.13,4.19-.39,1.46-.26,3.08-.65,4.85-1.17v5.05c-1.77.55-3.44.94-4.99,1.17-1.55.23-3.11.35-4.67.35Z"/>
        <path class="cls-1" d="M722.22,661.12c-3.36,0-6.1-1-8.21-3.01s-3.17-4.84-3.17-8.49,1.12-6.73,3.36-8.84c2.24-2.11,5.75-3.39,10.52-3.83l9.35-1.02.82,4.07-9.74,1.02c-2.87.26-4.99,1.06-6.36,2.39s-2.05,3.17-2.05,5.52c0,2.53.63,4.4,1.88,5.61,1.25,1.21,2.99,1.82,5.2,1.82,1.46,0,2.99-.37,4.58-1.11s3.01-2.12,4.26-4.13v-19.32c0-2.45-.35-4.36-1.06-5.73s-1.75-2.33-3.15-2.89c-1.39-.56-3.16-.84-5.3-.84-1.38,0-2.94.14-4.67.41-1.73.27-3.47.71-5.22,1.31v-5.05c1.54-.52,3.29-.93,5.26-1.23,1.97-.3,3.8-.45,5.5-.45,3.16,0,5.8.46,7.94,1.37s3.75,2.44,4.83,4.6,1.62,5.07,1.62,8.74v28.4h-4.89l-.47-4.66h-.39c-1.17,1.83-2.66,3.18-4.46,4.05-1.8.87-3.79,1.31-5.98,1.31Z"/>
        <path class="cls-1" d="M748,660.42v-63.21h5.87v63.21h-5.87Z"/>
        <path class="cls-1" d="M758.83,622.87v-4.89h24.1v4.89h-24.1ZM778.04,661.16c-3.75,0-6.69-1.01-8.8-3.03-2.11-2.02-3.17-5.38-3.17-10.07v-30.08l.94-15.45h4.89v44.75c0,3.26.59,5.51,1.78,6.77,1.19,1.25,3.03,1.88,5.54,1.88.65,0,1.34-.05,2.07-.16.73-.1,1.47-.23,2.23-.39v5.12c-.78.18-1.66.34-2.64.47-.98.13-1.92.2-2.84.2Z"/>
        <path class="cls-1" d="M788.91,660.42v-63.21h5.87v25.5h.35c1.41-1.8,3.05-3.15,4.93-4.05,1.88-.9,3.92-1.35,6.14-1.35,2.09,0,3.98.42,5.67,1.25,1.7.83,3.04,2.24,4.03,4.22.99,1.98,1.49,4.69,1.49,8.14v29.49h-5.87v-29.26c0-3.23-.65-5.44-1.96-6.63-1.3-1.19-3.03-1.78-5.16-1.78-1.02,0-2.12.17-3.31.51s-2.34.92-3.46,1.74c-1.12.82-2.07,1.92-2.86,3.31v32.11h-5.87Z"/>
        <path class="cls-1" d="M853.53,661.16c-1.83,0-3.81-.18-5.95-.53-2.14-.35-4.16-.88-6.06-1.58v-5.24c1.38.47,2.75.86,4.11,1.17,1.36.31,2.7.55,4.03.7,1.33.16,2.65.24,3.95.24,4.12,0,7.21-.89,9.27-2.66,2.06-1.77,3.09-4.39,3.09-7.86,0-2.95-.76-5.23-2.27-6.87-1.51-1.63-4.11-3.07-7.78-4.32l-2.7-.94c-3.94-1.36-7.02-3.29-9.23-5.79-2.22-2.5-3.33-5.8-3.33-9.9,0-4.93,1.56-8.79,4.69-11.6,3.13-2.8,7.74-4.21,13.85-4.21,1.8,0,3.63.13,5.5.39,1.86.26,3.51.63,4.95,1.1v5.24c-1.64-.52-3.31-.9-5.01-1.13-1.7-.24-3.4-.35-5.12-.35-2.97,0-5.4.4-7.28,1.19-1.88.8-3.27,1.96-4.17,3.48-.9,1.53-1.35,3.34-1.35,5.46,0,2.82.71,5.01,2.13,6.57,1.42,1.56,3.87,2.96,7.33,4.18l2.74.94c2.82.94,5.2,2.13,7.14,3.56,1.94,1.43,3.42,3.17,4.44,5.22,1.02,2.05,1.53,4.47,1.53,7.26,0,3.44-.72,6.38-2.17,8.8-1.45,2.42-3.55,4.28-6.3,5.55s-6.1,1.92-10.03,1.92Z"/>
        <path class="cls-1" d="M892.8,661.16c-3.18,0-5.95-.73-8.29-2.19-2.35-1.46-4.16-3.8-5.44-7.02-1.28-3.22-1.92-7.45-1.92-12.69s.63-9.51,1.9-12.73c1.26-3.22,3.06-5.56,5.4-7.02,2.33-1.46,5.12-2.19,8.35-2.19s5.95.74,8.31,2.21c2.36,1.47,4.18,3.82,5.46,7.04s1.92,7.44,1.92,12.65-.64,9.51-1.92,12.73c-1.28,3.22-3.08,5.56-5.42,7.02-2.33,1.46-5.12,2.19-8.35,2.19ZM892.8,656.39c1.98,0,3.69-.49,5.12-1.47,1.43-.98,2.54-2.7,3.33-5.16.78-2.46,1.17-5.93,1.17-10.38s-.4-8.06-1.19-10.56c-.8-2.5-1.91-4.25-3.34-5.24-1.43-.99-3.13-1.49-5.08-1.49s-3.65.49-5.08,1.47c-1.43.98-2.54,2.7-3.33,5.16-.78,2.46-1.17,5.93-1.17,10.38s.38,8.06,1.15,10.56c.77,2.5,1.88,4.25,3.33,5.24,1.45.99,3.15,1.49,5.1,1.49Z"/>
        <path class="cls-1" d="M930.71,661.16c-3.5,0-6.45-.72-8.88-2.17-2.43-1.45-4.27-3.77-5.54-6.98-1.27-3.21-1.9-7.47-1.9-12.79s.7-9.66,2.09-12.87c1.39-3.21,3.44-5.51,6.14-6.92,2.7-1.41,5.96-2.11,9.8-2.11,1.12,0,2.29.07,3.5.2,1.21.13,2.39.34,3.54.63v5.12c-1.15-.31-2.27-.52-3.36-.63-1.1-.1-2.03-.16-2.82-.16-2.89,0-5.29.49-7.18,1.47-1.89.98-3.29,2.67-4.21,5.08-.91,2.41-1.37,5.74-1.37,9.99s.42,7.77,1.25,10.25c.83,2.48,2.09,4.22,3.77,5.24,1.68,1.02,3.77,1.53,6.28,1.53,1.09,0,2.26-.12,3.5-.37,1.24-.25,2.61-.63,4.13-1.15v5.12c-1.49.52-2.96.91-4.42,1.15-1.46.25-2.91.37-4.34.37Z"/>
        <path class="cls-1" d="M948.23,608.75c-1.33,0-2.35-.35-3.07-1.06-.72-.7-1.08-1.66-1.08-2.86s.36-2.19,1.08-2.89c.72-.7,1.74-1.06,3.07-1.06s2.35.35,3.07,1.06,1.08,1.67,1.08,2.89-.36,2.15-1.08,2.86-1.74,1.06-3.07,1.06ZM945.3,660.42v-42.44h5.87v42.44h-5.87Z"/>
        <path class="cls-1" d="M976.71,661.16c-3.91,0-7.17-.72-9.78-2.15s-4.56-3.76-5.87-6.98c-1.3-3.22-1.96-7.52-1.96-12.89s.63-9.39,1.88-12.59c1.25-3.21,3-5.55,5.26-7.02s4.88-2.21,7.88-2.21,5.48.73,7.59,2.19c2.11,1.46,3.74,3.8,4.87,7.02,1.13,3.22,1.7,7.46,1.7,12.73v2h-25.07v-4.22h20.42l-1.02.86c0-4.25-.35-7.55-1.06-9.9-.7-2.35-1.7-3.98-2.97-4.89s-2.76-1.37-4.46-1.37-3.3.46-4.65,1.37c-1.36.91-2.42,2.54-3.19,4.89-.77,2.35-1.15,5.65-1.15,9.9v2.27c0,4.07.44,7.26,1.31,9.58.87,2.32,2.21,3.97,4.01,4.95,1.8.98,4.09,1.47,6.88,1.47,1.33,0,2.72-.13,4.19-.39,1.46-.26,3.08-.65,4.85-1.17v5.05c-1.77.55-3.44.94-4.99,1.17-1.55.23-3.11.35-4.67.35Z"/>
        <path class="cls-1" d="M990.83,622.87v-4.89h24.1v4.89h-24.1ZM1010.03,661.16c-3.75,0-6.69-1.01-8.8-3.03-2.11-2.02-3.17-5.38-3.17-10.07v-30.08l.94-15.45h4.89v44.75c0,3.26.59,5.51,1.78,6.77,1.19,1.25,3.03,1.88,5.54,1.88.65,0,1.34-.05,2.07-.16.73-.1,1.47-.23,2.23-.39v5.12c-.78.18-1.66.34-2.64.47-.98.13-1.92.2-2.84.2Z"/>
        <path class="cls-1" d="M1029.82,660.42l-13.65-42.44h6.22l12.87,42.44h-5.44ZM1026.19,677.63l5.55-17.21,1.56-4.19,11.85-38.25h6.06l-19.17,59.65h-5.87Z"/>
        <path class="cls-1" d="M23.93,755.04c-4.15,0-7.76-.97-10.84-2.91-3.08-1.94-5.46-5.09-7.16-9.45-1.7-4.35-2.54-10.13-2.54-17.33s.85-12.97,2.54-17.33c1.7-4.35,4.08-7.5,7.16-9.45,3.08-1.94,6.69-2.91,10.84-2.91s7.75.97,10.82,2.91c3.06,1.94,5.45,5.09,7.16,9.45,1.71,4.36,2.56,10.13,2.56,17.33s-.85,12.97-2.56,17.33c-1.71,4.36-4.09,7.5-7.16,9.45-3.06,1.94-6.67,2.91-10.82,2.91ZM23.93,749.84c2.92,0,5.46-.73,7.61-2.19s3.82-3.96,5.01-7.49c1.19-3.53,1.78-8.4,1.78-14.61s-.59-11.3-1.78-14.88c-1.19-3.58-2.86-6.12-5.01-7.59-2.15-1.47-4.69-2.21-7.61-2.21s-5.46.73-7.61,2.19c-2.15,1.46-3.82,3.96-5.01,7.49-1.19,3.53-1.78,8.4-1.78,14.61s.59,11.3,1.78,14.88c1.19,3.59,2.86,6.12,5.01,7.59s4.69,2.21,7.61,2.21Z"/>
        <path class="cls-1" d="M48.18,716.74v-4.89h24.06v4.89h-24.06ZM55.42,754.3v-50.77c0-2.87.5-5.28,1.49-7.24.99-1.96,2.46-3.44,4.42-4.46,1.96-1.02,4.41-1.53,7.35-1.53.76,0,1.57.03,2.45.1.87.06,1.71.18,2.52.33v5.01c-.76-.13-1.48-.23-2.17-.29-.69-.07-1.45-.1-2.29-.1-2.66,0-4.66.62-5.99,1.86-1.33,1.24-1.99,3.28-1.99,6.12v50.97h-5.79Z"/>
        <path class="cls-1" d="M93.75,754.3v-57.23c1.33-.23,2.7-.45,4.11-.65s2.88-.35,4.4-.47,3.15-.18,4.87-.18c6.94,0,12.11,1.43,15.53,4.28s5.12,7.14,5.12,12.85c0,3.83-.85,7.04-2.56,9.6-1.71,2.57-4.19,4.51-7.45,5.83-3.26,1.32-7.25,1.97-11.97,1.97-1.36,0-2.5-.02-3.44-.06s-1.85-.1-2.74-.18v24.21h-5.87ZM105.6,725.35c5.74,0,9.92-1,12.54-3.01,2.62-2.01,3.93-5.15,3.93-9.43,0-2.74-.51-5.01-1.53-6.81-1.02-1.8-2.59-3.14-4.73-4.03-2.14-.89-4.92-1.33-8.33-1.33-1.54,0-2.91.05-4.13.16-1.21.1-2.46.26-3.74.47v23.74c.78.05,1.49.1,2.13.14.64.04,1.26.07,1.88.08.61.01,1.27.02,1.97.02ZM125.63,754.3l-18.5-27.03h6.49l18.7,27.03h-6.69Z"/>
        <path class="cls-1" d="M141.43,702.62c-1.33,0-2.35-.35-3.07-1.06-.72-.7-1.08-1.66-1.08-2.86s.36-2.19,1.08-2.89c.72-.7,1.74-1.06,3.07-1.06s2.35.35,3.07,1.06,1.08,1.67,1.08,2.89-.36,2.15-1.08,2.86-1.74,1.06-3.07,1.06ZM138.5,754.3v-42.44h5.87v42.44h-5.87Z"/>
        <path class="cls-1" d="M167.95,755.04c-3.18,0-5.95-.73-8.29-2.19-2.35-1.46-4.16-3.8-5.44-7.02-1.28-3.22-1.92-7.45-1.92-12.69s.63-9.51,1.9-12.73c1.26-3.22,3.06-5.56,5.4-7.02,2.33-1.46,5.12-2.19,8.35-2.19s5.95.74,8.31,2.21c2.36,1.47,4.18,3.82,5.46,7.04s1.92,7.44,1.92,12.65-.64,9.51-1.92,12.73c-1.28,3.22-3.08,5.56-5.42,7.02-2.33,1.46-5.12,2.19-8.35,2.19ZM167.95,750.27c1.98,0,3.69-.49,5.12-1.47,1.43-.98,2.54-2.7,3.33-5.16.78-2.46,1.17-5.93,1.17-10.38s-.4-8.06-1.19-10.56c-.8-2.5-1.91-4.25-3.34-5.24-1.43-.99-3.13-1.49-5.08-1.49s-3.65.49-5.08,1.47c-1.43.98-2.54,2.7-3.33,5.16-.78,2.46-1.17,5.93-1.17,10.38s.38,8.06,1.15,10.56c.77,2.5,1.88,4.25,3.33,5.24,1.45.99,3.15,1.49,5.1,1.49Z"/>
        <path class="cls-1" d="M206.4,767.71l-4.03-2.7c1.51-2.37,2.73-4.63,3.66-6.79.93-2.15,1.6-4.44,2.01-6.87.42-2.43.63-5.24.63-8.45v-46.51h5.95v47.21c0,3.23-.28,6.15-.84,8.76-.56,2.61-1.45,5.14-2.66,7.59-1.21,2.45-2.78,5.03-4.71,7.75Z"/>
        <path class="cls-1" d="M234.33,755c-3.36,0-6.1-1-8.21-3.01s-3.17-4.84-3.17-8.49,1.12-6.73,3.36-8.84c2.24-2.11,5.75-3.39,10.52-3.83l9.35-1.02.82,4.07-9.74,1.02c-2.87.26-4.99,1.06-6.36,2.39s-2.05,3.17-2.05,5.52c0,2.53.63,4.4,1.88,5.61,1.25,1.21,2.99,1.82,5.2,1.82,1.46,0,2.99-.37,4.58-1.11s3.01-2.12,4.26-4.13v-19.32c0-2.45-.35-4.36-1.06-5.73s-1.75-2.33-3.15-2.89c-1.39-.56-3.16-.84-5.3-.84-1.38,0-2.94.14-4.67.41-1.73.27-3.47.71-5.22,1.31v-5.05c1.54-.52,3.29-.93,5.26-1.23,1.97-.3,3.8-.45,5.5-.45,3.16,0,5.8.46,7.94,1.37s3.75,2.44,4.83,4.6,1.62,5.07,1.62,8.74v28.4h-4.89l-.47-4.66h-.39c-1.17,1.83-2.66,3.18-4.46,4.05-1.8.87-3.79,1.31-5.98,1.31Z"/>
        <path class="cls-1" d="M260.11,754.3v-42.44h4.97l.47,4.73h.39c1.41-1.72,3.06-3.05,4.97-3.99,1.9-.94,3.99-1.41,6.26-1.41s4.11.42,5.83,1.25c1.72.83,3.08,2.23,4.09,4.19,1,1.96,1.51,4.63,1.51,8.02v29.65h-5.87v-29.3c0-3.21-.65-5.42-1.96-6.63-1.3-1.21-3.03-1.82-5.16-1.82-1.02,0-2.12.18-3.31.53-1.19.35-2.34.95-3.46,1.78-1.12.83-2.07,1.94-2.86,3.33v32.11h-5.87Z"/>
        <path class="cls-1" d="M313.78,755.04c-3.91,0-7.17-.72-9.78-2.15s-4.56-3.76-5.87-6.98c-1.3-3.22-1.96-7.52-1.96-12.89s.63-9.39,1.88-12.59c1.25-3.21,3-5.55,5.26-7.02s4.88-2.21,7.88-2.21,5.48.73,7.59,2.19c2.11,1.46,3.74,3.8,4.87,7.02,1.13,3.22,1.7,7.46,1.7,12.73v2h-25.07v-4.22h20.42l-1.02.86c0-4.25-.35-7.55-1.06-9.9-.7-2.35-1.7-3.98-2.97-4.89s-2.76-1.37-4.46-1.37-3.3.46-4.65,1.37c-1.36.91-2.42,2.54-3.19,4.89-.77,2.35-1.15,5.65-1.15,9.9v2.27c0,4.07.44,7.26,1.31,9.58.87,2.32,2.21,3.97,4.01,4.95,1.8.98,4.09,1.47,6.88,1.47,1.33,0,2.72-.13,4.19-.39,1.46-.26,3.08-.65,4.85-1.17v5.05c-1.77.55-3.44.94-4.99,1.17-1.55.23-3.11.35-4.67.35Z"/>
        <path class="cls-1" d="M335.8,702.62c-1.33,0-2.35-.35-3.07-1.06-.72-.7-1.08-1.66-1.08-2.86s.36-2.19,1.08-2.89c.72-.7,1.74-1.06,3.07-1.06s2.35.35,3.07,1.06,1.08,1.67,1.08,2.89-.36,2.15-1.08,2.86-1.74,1.06-3.07,1.06ZM332.86,754.3v-42.44h5.87v42.44h-5.87Z"/>
        <path class="cls-1" d="M348.67,754.3v-42.44h4.93l.47,5.79h.39c1.25-2.14,2.82-3.71,4.71-4.71,1.89-1,3.89-1.51,6-1.51.5,0,.95.02,1.37.06s.77.08,1.06.14v5.59c-.47-.08-.91-.12-1.33-.14-.42-.01-.89-.02-1.41-.02-1.33,0-2.65.23-3.97.7-1.32.47-2.53,1.17-3.64,2.11-1.11.94-2.01,2.09-2.72,3.44v30.98h-5.87Z"/>
        <path class="cls-1" d="M386.61,755.04c-3.18,0-5.95-.73-8.29-2.19-2.35-1.46-4.16-3.8-5.44-7.02-1.28-3.22-1.92-7.45-1.92-12.69s.63-9.51,1.9-12.73c1.26-3.22,3.06-5.56,5.4-7.02,2.33-1.46,5.12-2.19,8.35-2.19s5.95.74,8.31,2.21c2.36,1.47,4.18,3.82,5.46,7.04s1.92,7.44,1.92,12.65-.64,9.51-1.92,12.73c-1.28,3.22-3.08,5.56-5.42,7.02-2.33,1.46-5.12,2.19-8.35,2.19ZM386.61,750.27c1.98,0,3.69-.49,5.12-1.47,1.43-.98,2.54-2.7,3.33-5.16.78-2.46,1.17-5.93,1.17-10.38s-.4-8.06-1.19-10.56c-.8-2.5-1.91-4.25-3.34-5.24-1.43-.99-3.13-1.49-5.08-1.49s-3.65.49-5.08,1.47c-1.43.98-2.54,2.7-3.33,5.16-.78,2.46-1.17,5.93-1.17,10.38s.38,8.06,1.15,10.56c.77,2.5,1.88,4.25,3.33,5.24,1.45.99,3.15,1.49,5.1,1.49Z"/>
      </g>
    </g>
  </g>
</svg>