<?xml version="1.0" encoding="UTF-8"?>
<svg id="Camada_2" data-name="Camada 2" xmlns="http://www.w3.org/2000/svg" viewBox="0 0 1346.96 343.73">
  <defs>
    <style>
      .cls-1 {
        fill: #fff;
      }
    </style>
  </defs>
  <g id="Camada_1-2" data-name="Camada 1">
    <g>
      <polygon class="cls-1" points="264.17 3.88 107.91 257.4 294.96 257.4 252.08 326.31 0 326.31 0 265.2 162.76 3.88 264.17 3.88"/>
      <polygon class="cls-1" points="848.85 72.78 891.7 3.88 779.62 3.88 748.86 3.97 748.92 3.88 644.06 3.88 481.07 265.2 443.64 326.31 736.17 326.31 778.99 257.4 589.66 257.4 705.63 72.78 848.85 72.78"/>
      <polyline class="cls-1" points="294.96 326.31 495.38 3.79 601.17 3.82 400.46 326.31"/>
      <path class="cls-1" d="M940.16,2.78h9.58v92.16l-3.19-3.19h20.96v8.19h-27.34V2.78Z"/>
      <path class="cls-1" d="M975.63,97.37c-2.73-2.73-4.09-6.68-4.09-11.87v-47.89c0-5.18,1.34-9.09,4.03-11.73,2.68-2.64,6.29-3.96,10.83-3.96h.42c4.53,0,8.12,1.3,10.76,3.89,2.64,2.59,3.96,6.52,3.96,11.8v22.21h-23.18v-7.36h18.32l-4.3,4.44v-20.4c0-2.13-.53-3.75-1.6-4.86-1.06-1.11-2.43-1.67-4.09-1.67h-.14c-1.67,0-3.03.56-4.09,1.67-1.07,1.11-1.6,2.73-1.6,4.86v49.97c0,2.22.53,3.93,1.6,5.14,1.06,1.2,2.47,1.81,4.23,1.81h.28c1.67,0,3.03-.6,4.09-1.81,1.06-1.2,1.6-2.91,1.6-5.14v-19.15h9.3v18.18c0,5.18-1.37,9.14-4.09,11.87-2.73,2.73-6.32,4.1-10.76,4.1h-.56c-4.53,0-8.17-1.37-10.9-4.1Z"/>
      <path class="cls-1" d="M1014.01,115.41c-2.87-2.73-4.3-6.73-4.3-12.01v-2.78c0-2.78.58-5.11,1.73-7.01,1.16-1.9,2.71-3.21,4.65-3.96l1.53,1.94h-1.67c-2.31,0-4.26-.74-5.83-2.22-1.57-1.48-2.36-3.56-2.36-6.25s.95-4.81,2.85-6.66c1.9-1.85,4.65-3.1,8.26-3.75l6.52,5.55c-1.57,0-2.91-.09-4.03-.28-.37-.09-.88-.14-1.53-.14-1.2,0-2.18.33-2.91.97-.74.65-1.11,1.48-1.11,2.5,0,1.76,1.06,2.64,3.19,2.64h7.22c4.81,0,8.67,1.39,11.59,4.16,2.91,2.78,4.37,6.76,4.37,11.94v3.33c0,5.18-1.48,9.16-4.44,11.94-2.96,2.78-6.8,4.16-11.52,4.16h-.56c-4.91,0-8.79-1.37-11.66-4.09ZM1014.42,74.26c-2.68-2.68-4.03-6.66-4.03-11.94v-24.43c0-5.28,1.34-9.25,4.03-11.94s6.25-4.03,10.69-4.03h.56c4.53,0,8.12,1.32,10.76,3.96,2.64,2.64,3.96,6.64,3.96,12.01v24.43c0,5.27-1.34,9.25-4.03,11.94-2.69,2.68-6.25,4.03-10.69,4.03h-.56c-4.44,0-8-1.34-10.69-4.03ZM1031.22,109.58c1.3-1.34,1.94-3.22,1.94-5.62v-4.58c0-2.31-.65-4.14-1.94-5.48-1.3-1.34-3.01-2.01-5.14-2.01h-.28c-2.13,0-3.86.67-5.2,2.01s-2.01,3.17-2.01,5.48v4.58c0,2.41.67,4.28,2.01,5.62s3.08,2.01,5.2,2.01h.28c2.13,0,3.84-.67,5.14-2.01ZM1029.69,68.57c1.11-1.2,1.67-2.91,1.67-5.14v-26.65c0-2.22-.56-3.91-1.67-5.07-1.11-1.16-2.5-1.73-4.16-1.73h-.28c-1.67,0-3.05.58-4.16,1.73-1.11,1.16-1.67,2.85-1.67,5.07v26.65c0,2.22.56,3.93,1.67,5.14,1.11,1.2,2.5,1.8,4.16,1.8h.28c1.67,0,3.05-.6,4.16-1.8ZM1034.13,27.2l10.96-5.27v8.19l-10.96,5.27v-8.19Z"/>
      <path class="cls-1" d="M1053.35,97.37c-2.73-2.73-4.09-6.68-4.09-11.87v-47.89c0-5.18,1.34-9.09,4.03-11.73,2.68-2.64,6.29-3.96,10.83-3.96h.42c4.53,0,8.12,1.3,10.76,3.89,2.64,2.59,3.96,6.52,3.96,11.8v22.21h-23.18v-7.36h18.32l-4.3,4.44v-20.4c0-2.13-.53-3.75-1.6-4.86-1.06-1.11-2.43-1.67-4.09-1.67h-.14c-1.67,0-3.03.56-4.09,1.67-1.07,1.11-1.6,2.73-1.6,4.86v49.97c0,2.22.53,3.93,1.6,5.14,1.06,1.2,2.47,1.81,4.23,1.81h.28c1.67,0,3.03-.6,4.09-1.81,1.06-1.2,1.6-2.91,1.6-5.14v-19.15h9.3v18.18c0,5.18-1.37,9.14-4.09,11.87-2.73,2.73-6.32,4.1-10.76,4.1h-.56c-4.53,0-8.17-1.37-10.9-4.1Z"/>
      <path class="cls-1" d="M1087.71,23.46h7.22l1.39,9.44-2.08-.83c.37-2.96,1.62-5.39,3.75-7.29,2.13-1.9,4.81-2.85,8.05-2.85h.42c3.79,0,6.68,1.11,8.67,3.33,1.99,2.22,2.98,5.41,2.98,9.58v65.1h-9.16V35.81c0-1.94-.46-3.4-1.39-4.37-.93-.97-2.18-1.46-3.75-1.46h-.28c-1.94,0-3.52.76-4.72,2.29-1.2,1.53-1.8,3.68-1.8,6.45v61.21h-9.3V23.46Z"/>
      <path class="cls-1" d="M1129.62,98.13c-2.04-2.22-3.05-5.41-3.05-9.58v-53.72c0-4.16,1.02-7.36,3.05-9.58,2.03-2.22,4.9-3.33,8.61-3.33h.42c3.24,0,5.85.93,7.84,2.78,1.99,1.85,3.17,4.3,3.54,7.36l-2.36-.28V0h9.3v99.93h-6.94l-1.11-7.49,1.53-1.11c-.28,2.96-1.48,5.39-3.61,7.29-2.13,1.9-4.86,2.85-8.19,2.85h-.42c-3.7,0-6.57-1.11-8.61-3.33ZM1145.86,91.12c1.2-1.53,1.8-3.68,1.8-6.45v-45.94c0-2.78-.6-4.93-1.8-6.45-1.2-1.53-2.78-2.29-4.72-2.29h-.14c-1.67,0-2.94.49-3.82,1.46-.88.97-1.32,2.43-1.32,4.37v51.77c0,1.94.44,3.4,1.32,4.37.88.97,2.15,1.46,3.82,1.46h.14c1.94,0,3.52-.76,4.72-2.29Z"/>
      <path class="cls-1" d="M1168.97,97.37c-2.73-2.73-4.09-6.68-4.09-11.87v-17.63h9.3v18.6c0,2.22.53,3.93,1.6,5.14,1.06,1.2,2.47,1.81,4.23,1.81h.28c1.67,0,3.03-.6,4.09-1.81,1.06-1.2,1.6-2.91,1.6-5.14v-7.36c0-2.96-.69-5.62-2.08-7.98-1.39-2.36-3.61-5.2-6.66-8.54l-.28-.42c-4.07-4.35-7.03-8.14-8.88-11.38-1.85-3.24-2.78-7.12-2.78-11.66v-1.67c0-5.18,1.32-9.07,3.96-11.66,2.64-2.59,6.18-3.89,10.62-3.89h.42c4.44,0,7.98,1.3,10.62,3.89,2.64,2.59,3.96,6.48,3.96,11.66v13.46h-9.16v-14.44c0-2.22-.51-3.86-1.53-4.93-1.02-1.06-2.36-1.6-4.03-1.6h-.14c-1.67,0-3.01.53-4.03,1.6-1.02,1.06-1.53,2.71-1.53,4.93v2.91c0,2.96.69,5.69,2.08,8.19,1.39,2.5,3.61,5.41,6.66,8.74l.28.28c4.07,4.26,7.06,8.05,8.95,11.38,1.9,3.33,2.85,7.17,2.85,11.52v5.97c0,5.18-1.34,9.14-4.03,11.87-2.69,2.73-6.29,4.1-10.83,4.1h-.55c-4.54,0-8.17-1.37-10.9-4.1Z"/>
      <path class="cls-1" d="M940.81,115.8h9.53v96.71h-9.53v-96.71Z"/>
      <path class="cls-1" d="M959.73,136.38h7.18l1.38,9.39-2.07-.83c.37-2.95,1.61-5.36,3.73-7.25,2.12-1.89,4.79-2.83,8.01-2.83h.41c3.78,0,6.65,1.11,8.63,3.31,1.98,2.21,2.97,5.39,2.97,9.53v64.79h-9.12v-63.83c0-1.93-.46-3.38-1.38-4.35-.92-.97-2.17-1.45-3.73-1.45h-.28c-1.93,0-3.5.76-4.7,2.28-1.2,1.52-1.8,3.66-1.8,6.42v60.92h-9.26v-76.12Z"/>
      <path class="cls-1" d="M994.55,138.45l8.7-2.07h17.41v8.15h-26.11v-6.08ZM1004.29,210.64c-2.07-2.26-3.11-5.27-3.11-9.05v-77.64h9.26v75.85c0,2.21.48,3.8,1.45,4.77.97.97,2.42,1.45,4.35,1.45,1.56,0,3.04-.28,4.42-.83v7.6c-2.12.83-4.47,1.24-7.05,1.24-4.14,0-7.25-1.13-9.33-3.38Z"/>
      <path class="cls-1" d="M1029.57,209.95c-2.72-2.72-4.08-6.65-4.08-11.81v-47.66c0-5.16,1.33-9.05,4.01-11.67,2.67-2.63,6.26-3.94,10.78-3.94h.41c4.51,0,8.08,1.29,10.71,3.87,2.62,2.58,3.94,6.49,3.94,11.74v22.1h-23.07v-7.32h18.24l-4.28,4.42v-20.31c0-2.12-.53-3.73-1.59-4.83-1.06-1.11-2.42-1.66-4.08-1.66h-.14c-1.66,0-3.02.55-4.08,1.66-1.06,1.11-1.59,2.72-1.59,4.83v49.73c0,2.21.53,3.92,1.59,5.11,1.06,1.2,2.46,1.8,4.21,1.8h.28c1.66,0,3.02-.6,4.08-1.8,1.06-1.2,1.59-2.9,1.59-5.11v-19.06h9.26v18.1c0,5.16-1.36,9.1-4.08,11.81-2.72,2.72-6.29,4.08-10.71,4.08h-.55c-4.51,0-8.13-1.36-10.84-4.08Z"/>
      <path class="cls-1" d="M1063.76,136.38h7.18l1.38,9.39-2.07-.83c.37-2.95,1.54-5.36,3.52-7.25,1.98-1.89,4.54-2.83,7.67-2.83h.41c3.5,0,6.19,1.11,8.08,3.31,1.89,2.21,2.83,5.34,2.83,9.39v16.72h-8.84v-15.61c0-2.02-.41-3.5-1.24-4.42-.83-.92-1.98-1.38-3.45-1.38h-.28c-1.75,0-3.18.76-4.28,2.28-1.11,1.52-1.66,3.66-1.66,6.42v60.92h-9.26v-76.12Z"/>
      <path class="cls-1" d="M1098.85,136.38h7.18l1.38,9.39-2.07-.83c.37-2.95,1.61-5.36,3.73-7.25,2.12-1.89,4.79-2.83,8.01-2.83h.41c3.78,0,6.65,1.11,8.63,3.31,1.98,2.21,2.97,5.39,2.97,9.53v64.79h-9.12v-63.83c0-1.93-.46-3.38-1.38-4.35-.92-.97-2.17-1.45-3.73-1.45h-.28c-1.93,0-3.5.76-4.7,2.28-1.2,1.52-1.8,3.66-1.8,6.42v60.92h-9.26v-76.12Z"/>
      <path class="cls-1" d="M1139.88,210.71c-2.03-2.21-3.04-5.39-3.04-9.53v-11.61c0-2.85.41-5.29,1.24-7.32.83-2.02,1.96-3.78,3.38-5.25,1.43-1.47,3.38-3.08,5.87-4.83,4.24-3.13,7.05-5.55,8.43-7.25,1.38-1.7,2.07-3.94,2.07-6.7v-8.98c0-2.12-.48-3.71-1.45-4.77-.97-1.06-2.33-1.59-4.08-1.59h-.14c-1.66,0-2.99.53-4.01,1.59-1.01,1.06-1.52,2.65-1.52,4.77v15.06h-8.98v-14.09c0-5.06,1.31-8.89,3.94-11.47,2.62-2.58,6.15-3.87,10.57-3.87h.41c4.42,0,7.94,1.29,10.57,3.87,2.62,2.58,3.94,6.4,3.94,11.47v62.31h-6.91l-1.38-9.12,1.8.55c-.28,2.95-1.5,5.37-3.66,7.25-2.17,1.89-4.86,2.83-8.08,2.83h-.41c-3.69,0-6.54-1.11-8.57-3.32ZM1156.04,203.73c1.2-1.52,1.8-3.66,1.8-6.42v-26.66h.83c-.19,1.11-.81,2.21-1.87,3.32-1.06,1.11-2.51,2.4-4.35,3.87l-.55.41c-2.12,1.66-3.62,3.2-4.49,4.63-.88,1.43-1.31,3.34-1.31,5.73v11.6c0,1.93.44,3.38,1.31,4.35.87.97,2.14,1.45,3.8,1.45h.14c1.93,0,3.5-.76,4.7-2.28Z"/>
      <path class="cls-1" d="M1171.38,138.45l8.7-2.07h17.41v8.15h-26.11v-6.08ZM1181.12,210.64c-2.07-2.26-3.11-5.27-3.11-9.05v-77.64h9.26v75.85c0,2.21.48,3.8,1.45,4.77.97.97,2.42,1.45,4.35,1.45,1.56,0,3.04-.28,4.42-.83v7.6c-2.12.83-4.47,1.24-7.05,1.24-4.14,0-7.25-1.13-9.33-3.38Z"/>
      <path class="cls-1" d="M1203.7,115.8h9.53v14.09h-9.53v-14.09ZM1203.7,136.38h9.39v76.12h-9.39v-76.12Z"/>
      <path class="cls-1" d="M1225.74,209.95c-2.72-2.72-4.08-6.65-4.08-11.81v-47.39c0-5.25,1.36-9.21,4.08-11.88,2.72-2.67,6.33-4.01,10.84-4.01h.55c4.42,0,7.99,1.34,10.71,4.01,2.72,2.67,4.08,6.63,4.08,11.88v47.39c0,5.16-1.36,9.1-4.08,11.81-2.72,2.72-6.29,4.08-10.71,4.08h-.55c-4.51,0-8.13-1.36-10.84-4.08ZM1241.07,204.21c1.06-1.2,1.59-2.9,1.59-5.11v-49.32c0-2.21-.53-3.91-1.59-5.11-1.06-1.2-2.42-1.8-4.08-1.8h-.28c-1.75,0-3.16.6-4.21,1.8-1.06,1.2-1.59,2.9-1.59,5.11v49.32c0,2.21.53,3.92,1.59,5.11,1.06,1.2,2.46,1.8,4.21,1.8h.28c1.66,0,3.02-.6,4.08-1.8Z"/>
      <path class="cls-1" d="M1260.2,136.38h7.18l1.38,9.39-2.07-.83c.37-2.95,1.61-5.36,3.73-7.25,2.12-1.89,4.79-2.83,8.01-2.83h.41c3.78,0,6.65,1.11,8.63,3.31,1.98,2.21,2.97,5.39,2.97,9.53v64.79h-9.12v-63.83c0-1.93-.46-3.38-1.38-4.35-.92-.97-2.17-1.45-3.73-1.45h-.28c-1.93,0-3.5.76-4.7,2.28-1.2,1.52-1.8,3.66-1.8,6.42v60.92h-9.26v-76.12Z"/>
      <path class="cls-1" d="M1301.23,210.71c-2.03-2.21-3.04-5.39-3.04-9.53v-11.61c0-2.85.41-5.29,1.24-7.32.83-2.02,1.96-3.78,3.38-5.25,1.43-1.47,3.38-3.08,5.87-4.83,4.24-3.13,7.05-5.55,8.43-7.25,1.38-1.7,2.07-3.94,2.07-6.7v-8.98c0-2.12-.48-3.71-1.45-4.77-.97-1.06-2.33-1.59-4.08-1.59h-.14c-1.66,0-2.99.53-4.01,1.59-1.01,1.06-1.52,2.65-1.52,4.77v15.06h-8.98v-14.09c0-5.06,1.31-8.89,3.94-11.47,2.62-2.58,6.15-3.87,10.57-3.87h.41c4.42,0,7.94,1.29,10.57,3.87,2.62,2.58,3.94,6.4,3.94,11.47v62.31h-6.91l-1.38-9.12,1.8.55c-.28,2.95-1.5,5.37-3.66,7.25-2.17,1.89-4.86,2.83-8.08,2.83h-.41c-3.69,0-6.54-1.11-8.57-3.32ZM1317.4,203.73c1.2-1.52,1.8-3.66,1.8-6.42v-26.66h.83c-.19,1.11-.81,2.21-1.87,3.32-1.06,1.11-2.51,2.4-4.35,3.87l-.55.41c-2.12,1.66-3.62,3.2-4.49,4.63-.88,1.43-1.31,3.34-1.31,5.73v11.6c0,1.93.44,3.38,1.31,4.35.87.97,2.14,1.45,3.8,1.45h.14c1.93,0,3.5-.76,4.7-2.28Z"/>
      <path class="cls-1" d="M1337.57,113.03h9.39v99.47h-9.39v-99.47Z"/>
      <path class="cls-1" d="M943.32,321.49c-2.87-2.78-4.31-6.9-4.31-12.37v-67.54c0-5.37,1.41-9.43,4.24-12.16,2.82-2.73,6.6-4.1,11.32-4.1h.56c4.72,0,8.5,1.37,11.33,4.1,2.83,2.73,4.24,6.79,4.24,12.16v17.79h-9.45v-18.76c0-2.22-.58-3.96-1.74-5.21-1.16-1.25-2.66-1.88-4.52-1.88h-.28c-1.85,0-3.36.63-4.52,1.88-1.16,1.25-1.74,2.99-1.74,5.21v69.48c0,2.32.63,4.12,1.88,5.42,1.25,1.3,2.8,1.95,4.66,1.95h.28c2.04,0,3.63-.65,4.79-1.95,1.16-1.3,1.74-3.1,1.74-5.42v-24.87h9.45v23.9c0,5.47-1.44,9.59-4.31,12.37-2.87,2.78-6.67,4.17-11.39,4.17h-.7c-4.82,0-8.66-1.39-11.53-4.17Z"/>
      <path class="cls-1" d="M982.86,321.56c-2.73-2.73-4.1-6.69-4.1-11.88v-47.66c0-5.28,1.37-9.26,4.1-11.95,2.73-2.69,6.37-4.03,10.91-4.03h.56c4.45,0,8.04,1.34,10.77,4.03,2.73,2.69,4.1,6.67,4.1,11.95v47.66c0,5.19-1.37,9.15-4.1,11.88-2.73,2.73-6.32,4.1-10.77,4.1h-.56c-4.54,0-8.18-1.37-10.91-4.1ZM998.28,315.8c1.06-1.2,1.6-2.92,1.6-5.14v-49.61c0-2.22-.53-3.94-1.6-5.14-1.07-1.2-2.43-1.81-4.1-1.81h-.28c-1.76,0-3.17.6-4.24,1.81-1.07,1.21-1.6,2.92-1.6,5.14v49.61c0,2.22.53,3.94,1.6,5.14,1.06,1.21,2.48,1.81,4.24,1.81h.28c1.67,0,3.03-.6,4.1-1.81Z"/>
      <path class="cls-1" d="M1017.53,247.57h7.23l1.39,9.87-2.22-1.25c.37-2.96,1.67-5.39,3.89-7.29,2.22-1.9,4.86-2.85,7.92-2.85h.42c3.43,0,6.09,1.11,7.99,3.33,1.9,2.22,2.85,5.37,2.85,9.45v65.31h-9.17v-64.48c0-1.85-.4-3.24-1.18-4.17-.79-.92-1.88-1.39-3.27-1.39h-.28c-1.85,0-3.36.74-4.52,2.22-1.16,1.48-1.74,3.61-1.74,6.39v61.42h-9.31v-76.57ZM1056.78,255.49c-.79-.92-1.88-1.39-3.27-1.39h-.28c-1.85,0-3.36.74-4.52,2.22-1.16,1.48-1.74,3.61-1.74,6.39v3.06h-3.89v-9.45h1.39c.37-3.06,1.6-5.53,3.68-7.43,2.08-1.9,4.7-2.85,7.85-2.85h.42c3.43,0,6.09,1.11,7.99,3.33,1.9,2.22,2.85,5.33,2.85,9.31v65.45h-9.31v-64.48c0-1.85-.4-3.24-1.18-4.17Z"/>
      <path class="cls-1" d="M1076.17,247.57h7.09l1.11,7.5-1.67,1.11c.37-2.96,1.62-5.39,3.75-7.29,2.13-1.9,4.82-2.85,8.06-2.85h.42c3.8,0,6.69,1.11,8.68,3.33,1.99,2.22,2.99,5.42,2.99,9.59v53.78c0,4.17-1,7.37-2.99,9.59-1.99,2.22-4.84,3.34-8.55,3.34h-.42c-3.24,0-5.88-.93-7.92-2.78-2.04-1.85-3.2-4.31-3.47-7.37l2.22.28v26.4h-9.31v-94.63ZM1096.04,316.14c.92-.97,1.39-2.43,1.39-4.38v-51.83c0-1.95-.46-3.4-1.39-4.38-.93-.97-2.18-1.46-3.75-1.46h-.28c-1.95,0-3.52.76-4.72,2.29-1.21,1.53-1.81,3.68-1.81,6.46v46c0,2.78.6,4.93,1.81,6.46,1.2,1.53,2.78,2.29,4.72,2.29h.28c1.57,0,2.83-.49,3.75-1.46Z"/>
      <path class="cls-1" d="M1116.74,322.33c-2.04-2.22-3.06-5.42-3.06-9.59v-11.67c0-2.87.42-5.33,1.25-7.37.83-2.04,1.97-3.8,3.4-5.28,1.44-1.48,3.4-3.1,5.91-4.86,4.26-3.15,7.09-5.58,8.48-7.3,1.39-1.71,2.08-3.96,2.08-6.74v-9.03c0-2.13-.49-3.73-1.46-4.79-.97-1.06-2.34-1.6-4.1-1.6h-.14c-1.67,0-3.01.53-4.03,1.6-1.02,1.07-1.53,2.66-1.53,4.79v15.15h-9.03v-14.17c0-5.09,1.32-8.94,3.96-11.53,2.64-2.59,6.18-3.89,10.63-3.89h.42c4.45,0,7.99,1.3,10.63,3.89,2.64,2.6,3.96,6.44,3.96,11.53v62.67h-6.95l-1.39-9.17,1.81.56c-.28,2.97-1.51,5.4-3.68,7.3-2.18,1.9-4.89,2.85-8.13,2.85h-.42c-3.71,0-6.58-1.11-8.62-3.34ZM1133,315.31c1.2-1.53,1.81-3.68,1.81-6.46v-26.82h.83c-.19,1.11-.81,2.22-1.88,3.34-1.07,1.11-2.53,2.41-4.38,3.89l-.56.42c-2.13,1.67-3.64,3.22-4.52,4.66-.88,1.44-1.32,3.36-1.32,5.77v11.67c0,1.95.44,3.4,1.32,4.38.88.97,2.15,1.46,3.82,1.46h.14c1.95,0,3.52-.76,4.72-2.29Z"/>
      <path class="cls-1" d="M1153.15,247.57h7.23l1.39,9.45-2.08-.83c.37-2.96,1.62-5.39,3.75-7.29,2.13-1.9,4.82-2.85,8.06-2.85h.42c3.8,0,6.69,1.11,8.68,3.33,1.99,2.22,2.99,5.42,2.99,9.59v65.17h-9.17v-64.2c0-1.95-.46-3.4-1.39-4.38-.93-.97-2.18-1.46-3.75-1.46h-.28c-1.95,0-3.52.76-4.72,2.29-1.21,1.53-1.81,3.68-1.81,6.46v61.28h-9.31v-76.57Z"/>
      <path class="cls-1" d="M1185.95,341.64v-7.78c1.85,1.2,3.98,1.81,6.39,1.81,1.3,0,2.45-.12,3.47-.35,1.02-.23,1.81-.67,2.36-1.32,1.2-1.11,1.81-3.15,1.81-6.11,0-1.48-.14-3.47-.42-5.98l-10.7-74.34h9.03l5.7,49.89,1.81,18.76h-.42l1.67-18.76,5.84-49.89h9.17l-12.23,84.35c-.56,3.7-1.99,6.6-4.31,8.68-2.32,2.08-5.7,3.13-10.14,3.13-3.43,0-6.44-.69-9.03-2.08Z"/>
    </g>
  </g>
</svg>