<?xml version="1.0" encoding="UTF-8"?>
<svg id="Camada_2" data-name="Camada 2" xmlns="http://www.w3.org/2000/svg" xmlns:xlink="http://www.w3.org/1999/xlink" viewBox="0 0 776 436">
  <defs>
    <style>
      .cls-1 {
        fill: url(#Gradiente_sem_nome_16);
      }

      .cls-2 {
        fill: #f6f3fe;
      }

      .cls-3 {
        fill: #292929;
      }
    </style>
    <linearGradient id="Gradiente_sem_nome_16" data-name="Gradiente sem nome 16" x1="190" y1="216.58" x2="275.79" y2="216.58" gradientUnits="userSpaceOnUse">
      <stop offset="0" stop-color="#836737"/>
      <stop offset=".47" stop-color="#af9358"/>
      <stop offset="1" stop-color="#e7cb81"/>
    </linearGradient>
  </defs>
  <g id="Camada_1-2" data-name="Camada 1">
    <g>
      <rect class="cls-3" width="776" height="436"/>
      <polygon class="cls-1" points="266.83 169.69 221.39 243.42 275.79 243.42 263.31 263.46 190 263.46 190 245.69 237.34 169.69 266.83 169.69"/>
      <polygon class="cls-2" points="436.87 189.73 449.33 169.69 416.74 169.69 407.79 169.72 407.81 169.69 377.31 169.69 329.91 245.69 319.03 263.46 404.1 263.46 416.55 243.42 361.49 243.42 395.22 189.73 436.87 189.73"/>
      <polyline class="cls-2" points="275.79 263.46 334.07 169.67 364.84 169.67 306.47 263.46"/>
      <g>
        <path class="cls-2" d="M461.72,170.72h2.77v26.62l-.92-.92h6.05v2.37h-7.9v-28.06Z"/>
        <path class="cls-2" d="M471.97,198.04c-.79-.79-1.18-1.93-1.18-3.43v-13.83c0-1.5.39-2.63,1.16-3.39.77-.76,1.82-1.14,3.13-1.14h.12c1.31,0,2.35.37,3.11,1.12s1.14,1.88,1.14,3.41v6.41h-6.69v-2.12h5.29l-1.24,1.28v-5.89c0-.61-.15-1.08-.46-1.4-.31-.32-.7-.48-1.18-.48h-.04c-.48,0-.88.16-1.18.48-.31.32-.46.79-.46,1.4v14.43c0,.64.15,1.14.46,1.48.31.35.71.52,1.22.52h.08c.48,0,.88-.17,1.18-.52.31-.35.46-.84.46-1.48v-5.53h2.69v5.25c0,1.5-.39,2.64-1.18,3.43-.79.79-1.82,1.18-3.11,1.18h-.16c-1.31,0-2.36-.4-3.15-1.18Z"/>
        <path class="cls-2" d="M483.05,203.25c-.83-.79-1.24-1.94-1.24-3.47v-.8c0-.8.17-1.48.5-2.02.33-.55.78-.93,1.34-1.14l.44.56h-.48c-.67,0-1.23-.21-1.68-.64-.46-.43-.68-1.03-.68-1.8s.27-1.39.82-1.92c.55-.53,1.34-.89,2.39-1.08l1.88,1.6c-.46,0-.84-.03-1.16-.08-.11-.03-.25-.04-.44-.04-.35,0-.63.09-.84.28-.21.19-.32.43-.32.72,0,.51.31.76.92.76h2.08c1.39,0,2.51.4,3.35,1.2s1.26,1.95,1.26,3.45v.96c0,1.5-.43,2.65-1.28,3.45-.86.8-1.96,1.2-3.33,1.2h-.16c-1.42,0-2.54-.39-3.37-1.18ZM483.17,191.36c-.78-.78-1.16-1.92-1.16-3.45v-7.06c0-1.52.39-2.67,1.16-3.45.77-.77,1.8-1.16,3.09-1.16h.16c1.31,0,2.35.38,3.11,1.14.76.76,1.14,1.92,1.14,3.47v7.06c0,1.52-.39,2.67-1.16,3.45-.78.78-1.8,1.16-3.09,1.16h-.16c-1.28,0-2.31-.39-3.09-1.16ZM488.02,201.57c.37-.39.56-.93.56-1.62v-1.32c0-.67-.19-1.2-.56-1.58-.37-.39-.87-.58-1.48-.58h-.08c-.62,0-1.12.19-1.5.58-.39.39-.58.92-.58,1.58v1.32c0,.7.19,1.24.58,1.62.39.39.89.58,1.5.58h.08c.61,0,1.11-.19,1.48-.58ZM487.58,189.72c.32-.35.48-.84.48-1.48v-7.7c0-.64-.16-1.13-.48-1.46s-.72-.5-1.2-.5h-.08c-.48,0-.88.17-1.2.5-.32.33-.48.82-.48,1.46v7.7c0,.64.16,1.14.48,1.48.32.35.72.52,1.2.52h.08c.48,0,.88-.17,1.2-.52ZM488.86,177.77l3.17-1.52v2.37l-3.17,1.52v-2.36Z"/>
        <path class="cls-2" d="M494.42,198.04c-.79-.79-1.18-1.93-1.18-3.43v-13.83c0-1.5.39-2.63,1.16-3.39.77-.76,1.82-1.14,3.13-1.14h.12c1.31,0,2.35.37,3.11,1.12s1.14,1.88,1.14,3.41v6.41h-6.69v-2.12h5.29l-1.24,1.28v-5.89c0-.61-.15-1.08-.46-1.4-.31-.32-.7-.48-1.18-.48h-.04c-.48,0-.88.16-1.18.48-.31.32-.46.79-.46,1.4v14.43c0,.64.15,1.14.46,1.48.31.35.71.52,1.22.52h.08c.48,0,.88-.17,1.18-.52.31-.35.46-.84.46-1.48v-5.53h2.69v5.25c0,1.5-.39,2.64-1.18,3.43-.79.79-1.82,1.18-3.11,1.18h-.16c-1.31,0-2.36-.4-3.15-1.18Z"/>
        <path class="cls-2" d="M504.34,176.69h2.08l.4,2.73-.6-.24c.11-.85.47-1.56,1.08-2.1.61-.55,1.39-.82,2.33-.82h.12c1.1,0,1.93.32,2.51.96s.86,1.56.86,2.77v18.8h-2.65v-18.52c0-.56-.13-.98-.4-1.26-.27-.28-.63-.42-1.08-.42h-.08c-.56,0-1.02.22-1.36.66-.35.44-.52,1.06-.52,1.86v17.68h-2.69v-22.09Z"/>
        <path class="cls-2" d="M516.44,198.26c-.59-.64-.88-1.56-.88-2.77v-15.51c0-1.2.29-2.12.88-2.77.59-.64,1.42-.96,2.49-.96h.12c.94,0,1.69.27,2.26.8.57.53.92,1.24,1.02,2.12l-.68-.08v-9.18h2.69v28.86h-2l-.32-2.17.44-.32c-.08.86-.43,1.56-1.04,2.1s-1.4.82-2.36.82h-.12c-1.07,0-1.9-.32-2.49-.96ZM521.13,196.23c.35-.44.52-1.06.52-1.86v-13.27c0-.8-.17-1.42-.52-1.86-.35-.44-.8-.66-1.36-.66h-.04c-.48,0-.85.14-1.1.42-.25.28-.38.7-.38,1.26v14.95c0,.56.13.98.38,1.26.25.28.62.42,1.1.42h.04c.56,0,1.02-.22,1.36-.66Z"/>
        <path class="cls-2" d="M527.81,198.04c-.79-.79-1.18-1.93-1.18-3.43v-5.09h2.69v5.37c0,.64.15,1.14.46,1.48.31.35.71.52,1.22.52h.08c.48,0,.88-.17,1.18-.52.31-.35.46-.84.46-1.48v-2.12c0-.85-.2-1.62-.6-2.3s-1.04-1.5-1.92-2.47l-.08-.12c-1.18-1.26-2.03-2.35-2.57-3.29-.54-.94-.8-2.06-.8-3.37v-.48c0-1.5.38-2.62,1.14-3.37s1.78-1.12,3.07-1.12h.12c1.28,0,2.3.37,3.07,1.12s1.14,1.87,1.14,3.37v3.89h-2.65v-4.17c0-.64-.15-1.12-.44-1.42s-.68-.46-1.16-.46h-.04c-.48,0-.87.15-1.16.46-.29.31-.44.78-.44,1.42v.84c0,.86.2,1.64.6,2.37s1.04,1.56,1.92,2.53l.08.08c1.18,1.23,2.04,2.33,2.59,3.29.55.96.82,2.07.82,3.33v1.72c0,1.5-.39,2.64-1.16,3.43-.78.79-1.82,1.18-3.13,1.18h-.16c-1.31,0-2.36-.4-3.15-1.18Z"/>
        <path class="cls-2" d="M461.72,203.37h2.77v28.06h-2.77v-28.06Z"/>
        <path class="cls-2" d="M467.22,209.34h2.08l.4,2.73-.6-.24c.11-.85.47-1.56,1.08-2.1.61-.55,1.39-.82,2.33-.82h.12c1.1,0,1.93.32,2.51.96s.86,1.56.86,2.77v18.8h-2.65v-18.52c0-.56-.13-.98-.4-1.26-.27-.28-.63-.42-1.08-.42h-.08c-.56,0-1.02.22-1.36.66-.35.44-.52,1.06-.52,1.86v17.68h-2.69v-22.09Z"/>
        <path class="cls-2" d="M477.32,209.94l2.53-.6h5.05v2.37h-7.58v-1.76ZM480.14,230.89c-.6-.65-.9-1.53-.9-2.63v-22.53h2.69v22.01c0,.64.14,1.1.42,1.38.28.28.7.42,1.26.42.45,0,.88-.08,1.28-.24v2.21c-.62.24-1.3.36-2.04.36-1.2,0-2.1-.33-2.71-.98Z"/>
        <path class="cls-2" d="M487.48,230.69c-.79-.79-1.18-1.93-1.18-3.43v-13.83c0-1.5.39-2.63,1.16-3.39.77-.76,1.82-1.14,3.13-1.14h.12c1.31,0,2.35.37,3.11,1.12s1.14,1.88,1.14,3.41v6.41h-6.69v-2.12h5.29l-1.24,1.28v-5.89c0-.61-.15-1.08-.46-1.4-.31-.32-.7-.48-1.18-.48h-.04c-.48,0-.88.16-1.18.48-.31.32-.46.79-.46,1.4v14.43c0,.64.15,1.14.46,1.48.31.35.71.52,1.22.52h.08c.48,0,.88-.17,1.18-.52.31-.35.46-.84.46-1.48v-5.53h2.69v5.25c0,1.5-.39,2.64-1.18,3.43-.79.79-1.82,1.18-3.11,1.18h-.16c-1.31,0-2.36-.4-3.15-1.18Z"/>
        <path class="cls-2" d="M497.4,209.34h2.08l.4,2.73-.6-.24c.11-.85.45-1.56,1.02-2.1.57-.55,1.32-.82,2.22-.82h.12c1.02,0,1.8.32,2.35.96.55.64.82,1.55.82,2.73v4.85h-2.57v-4.53c0-.59-.12-1.02-.36-1.28-.24-.27-.57-.4-1-.4h-.08c-.51,0-.92.22-1.24.66-.32.44-.48,1.06-.48,1.86v17.68h-2.69v-22.09Z"/>
        <path class="cls-2" d="M507.58,209.34h2.08l.4,2.73-.6-.24c.11-.85.47-1.56,1.08-2.1.61-.55,1.39-.82,2.33-.82h.12c1.1,0,1.93.32,2.51.96s.86,1.56.86,2.77v18.8h-2.65v-18.52c0-.56-.13-.98-.4-1.26-.27-.28-.63-.42-1.08-.42h-.08c-.56,0-1.02.22-1.36.66-.35.44-.52,1.06-.52,1.86v17.68h-2.69v-22.09Z"/>
        <path class="cls-2" d="M519.49,230.91c-.59-.64-.88-1.56-.88-2.77v-3.37c0-.83.12-1.54.36-2.12.24-.59.57-1.1.98-1.52.41-.43.98-.9,1.7-1.4,1.23-.91,2.04-1.61,2.45-2.1.4-.49.6-1.14.6-1.94v-2.61c0-.61-.14-1.08-.42-1.38-.28-.31-.68-.46-1.18-.46h-.04c-.48,0-.87.15-1.16.46-.29.31-.44.77-.44,1.38v4.37h-2.61v-4.09c0-1.47.38-2.58,1.14-3.33s1.78-1.12,3.07-1.12h.12c1.28,0,2.31.37,3.07,1.12s1.14,1.86,1.14,3.33v18.08h-2l-.4-2.65.52.16c-.08.86-.43,1.56-1.06,2.1-.63.55-1.41.82-2.35.82h-.12c-1.07,0-1.9-.32-2.49-.96ZM524.18,228.88c.35-.44.52-1.06.52-1.86v-7.74h.24c-.05.32-.23.64-.54.96-.31.32-.73.7-1.26,1.12l-.16.12c-.61.48-1.05.93-1.3,1.34-.25.41-.38.97-.38,1.66v3.37c0,.56.13.98.38,1.26.25.28.62.42,1.1.42h.04c.56,0,1.02-.22,1.36-.66Z"/>
        <path class="cls-2" d="M528.63,209.94l2.53-.6h5.05v2.37h-7.58v-1.76ZM531.46,230.89c-.6-.65-.9-1.53-.9-2.63v-22.53h2.69v22.01c0,.64.14,1.1.42,1.38.28.28.7.42,1.26.42.45,0,.88-.08,1.28-.24v2.21c-.62.24-1.3.36-2.04.36-1.2,0-2.1-.33-2.71-.98Z"/>
        <path class="cls-2" d="M538.01,203.37h2.77v4.09h-2.77v-4.09ZM538.01,209.34h2.73v22.09h-2.73v-22.09Z"/>
        <path class="cls-2" d="M544.4,230.69c-.79-.79-1.18-1.93-1.18-3.43v-13.75c0-1.52.39-2.67,1.18-3.45.79-.77,1.84-1.16,3.15-1.16h.16c1.28,0,2.32.39,3.11,1.16.79.78,1.18,1.92,1.18,3.45v13.75c0,1.5-.39,2.64-1.18,3.43-.79.79-1.82,1.18-3.11,1.18h-.16c-1.31,0-2.36-.4-3.15-1.18ZM548.85,229.02c.31-.35.46-.84.46-1.48v-14.31c0-.64-.15-1.14-.46-1.48-.31-.35-.7-.52-1.18-.52h-.08c-.51,0-.92.17-1.22.52-.31.35-.46.84-.46,1.48v14.31c0,.64.15,1.14.46,1.48.31.35.71.52,1.22.52h.08c.48,0,.88-.17,1.18-.52Z"/>
        <path class="cls-2" d="M554.41,209.34h2.08l.4,2.73-.6-.24c.11-.85.47-1.56,1.08-2.1.61-.55,1.39-.82,2.33-.82h.12c1.1,0,1.93.32,2.51.96s.86,1.56.86,2.77v18.8h-2.65v-18.52c0-.56-.13-.98-.4-1.26-.27-.28-.63-.42-1.08-.42h-.08c-.56,0-1.02.22-1.36.66-.35.44-.52,1.06-.52,1.86v17.68h-2.69v-22.09Z"/>
        <path class="cls-2" d="M566.31,230.91c-.59-.64-.88-1.56-.88-2.77v-3.37c0-.83.12-1.54.36-2.12.24-.59.57-1.1.98-1.52.41-.43.98-.9,1.7-1.4,1.23-.91,2.04-1.61,2.45-2.1.4-.49.6-1.14.6-1.94v-2.61c0-.61-.14-1.08-.42-1.38-.28-.31-.68-.46-1.18-.46h-.04c-.48,0-.87.15-1.16.46-.29.31-.44.77-.44,1.38v4.37h-2.61v-4.09c0-1.47.38-2.58,1.14-3.33s1.78-1.12,3.07-1.12h.12c1.28,0,2.31.37,3.07,1.12s1.14,1.86,1.14,3.33v18.08h-2l-.4-2.65.52.16c-.08.86-.43,1.56-1.06,2.1-.63.55-1.41.82-2.35.82h-.12c-1.07,0-1.9-.32-2.49-.96ZM571,228.88c.35-.44.52-1.06.52-1.86v-7.74h.24c-.05.32-.23.64-.54.96-.31.32-.73.7-1.26,1.12l-.16.12c-.61.48-1.05.93-1.3,1.34-.25.41-.38.97-.38,1.66v3.37c0,.56.13.98.38,1.26.25.28.62.42,1.1.42h.04c.56,0,1.02-.22,1.36-.66Z"/>
        <path class="cls-2" d="M576.85,202.57h2.73v28.86h-2.73v-28.86Z"/>
        <path class="cls-2" d="M462.69,263.32c-.83-.8-1.24-1.99-1.24-3.57v-19.48c0-1.55.41-2.72,1.22-3.51.81-.79,1.9-1.18,3.27-1.18h.16c1.36,0,2.45.39,3.27,1.18.81.79,1.22,1.96,1.22,3.51v5.13h-2.73v-5.41c0-.64-.17-1.14-.5-1.5-.33-.36-.77-.54-1.3-.54h-.08c-.53,0-.97.18-1.3.54-.33.36-.5.86-.5,1.5v20.04c0,.67.18,1.19.54,1.56s.81.56,1.34.56h.08c.59,0,1.05-.19,1.38-.56.33-.37.5-.9.5-1.56v-7.18h2.73v6.9c0,1.58-.41,2.77-1.24,3.57-.83.8-1.92,1.2-3.29,1.2h-.2c-1.39,0-2.5-.4-3.33-1.2Z"/>
        <path class="cls-2" d="M474.09,263.34c-.79-.79-1.18-1.93-1.18-3.43v-13.75c0-1.52.39-2.67,1.18-3.45.79-.77,1.84-1.16,3.15-1.16h.16c1.28,0,2.32.39,3.11,1.16.79.78,1.18,1.92,1.18,3.45v13.75c0,1.5-.39,2.64-1.18,3.43-.79.79-1.82,1.18-3.11,1.18h-.16c-1.31,0-2.36-.4-3.15-1.18ZM478.54,261.67c.31-.35.46-.84.46-1.48v-14.31c0-.64-.15-1.14-.46-1.48-.31-.35-.7-.52-1.18-.52h-.08c-.51,0-.92.17-1.22.52-.31.35-.46.84-.46,1.48v14.31c0,.64.15,1.14.46,1.48.31.35.71.52,1.22.52h.08c.48,0,.88-.17,1.18-.52Z"/>
        <path class="cls-2" d="M484.09,241.99h2.08l.4,2.85-.64-.36c.11-.85.48-1.56,1.12-2.1.64-.55,1.4-.82,2.29-.82h.12c.99,0,1.76.32,2.31.96.55.64.82,1.55.82,2.73v18.84h-2.65v-18.6c0-.54-.11-.94-.34-1.2-.23-.27-.54-.4-.94-.4h-.08c-.54,0-.97.21-1.3.64-.33.43-.5,1.04-.5,1.84v17.72h-2.69v-22.09ZM495.42,244.28c-.23-.27-.54-.4-.94-.4h-.08c-.53,0-.97.21-1.3.64-.33.43-.5,1.04-.5,1.84v.88h-1.12v-2.73h.4c.11-.88.46-1.6,1.06-2.14.6-.55,1.36-.82,2.26-.82h.12c.99,0,1.76.32,2.31.96.55.64.82,1.54.82,2.69v18.88h-2.69v-18.6c0-.54-.11-.94-.34-1.2Z"/>
        <path class="cls-2" d="M501.01,241.99h2.04l.32,2.17-.48.32c.11-.85.47-1.56,1.08-2.1.61-.55,1.39-.82,2.33-.82h.12c1.1,0,1.93.32,2.51.96s.86,1.56.86,2.77v15.51c0,1.2-.29,2.12-.86,2.77-.57.64-1.4.96-2.47.96h-.12c-.94,0-1.7-.27-2.29-.8-.59-.54-.92-1.24-1-2.12l.64.08v7.62h-2.69v-27.3ZM506.74,261.78c.27-.28.4-.7.4-1.26v-14.95c0-.56-.13-.98-.4-1.26-.27-.28-.63-.42-1.08-.42h-.08c-.56,0-1.02.22-1.36.66-.35.44-.52,1.06-.52,1.86v13.27c0,.8.17,1.42.52,1.86.35.44.8.66,1.36.66h.08c.45,0,.81-.14,1.08-.42Z"/>
        <path class="cls-2" d="M512.72,263.56c-.59-.64-.88-1.56-.88-2.77v-3.37c0-.83.12-1.54.36-2.12.24-.59.57-1.1.98-1.52.41-.43.98-.9,1.7-1.4,1.23-.91,2.04-1.61,2.45-2.1.4-.49.6-1.14.6-1.94v-2.61c0-.61-.14-1.08-.42-1.38-.28-.31-.68-.46-1.18-.46h-.04c-.48,0-.87.15-1.16.46-.29.31-.44.77-.44,1.38v4.37h-2.61v-4.09c0-1.47.38-2.58,1.14-3.33s1.78-1.12,3.07-1.12h.12c1.28,0,2.31.37,3.07,1.12s1.14,1.86,1.14,3.33v18.08h-2l-.4-2.65.52.16c-.08.86-.43,1.56-1.06,2.1-.63.55-1.41.82-2.35.82h-.12c-1.07,0-1.9-.32-2.49-.96ZM517.41,261.53c.35-.44.52-1.06.52-1.86v-7.74h.24c-.05.32-.23.64-.54.96-.31.32-.73.7-1.26,1.12l-.16.12c-.61.48-1.05.93-1.3,1.34-.25.41-.38.97-.38,1.66v3.37c0,.56.13.98.38,1.26.25.28.62.42,1.1.42h.04c.56,0,1.02-.22,1.36-.66Z"/>
        <path class="cls-2" d="M523.22,241.99h2.08l.4,2.73-.6-.24c.11-.85.47-1.56,1.08-2.1.61-.55,1.39-.82,2.33-.82h.12c1.1,0,1.93.32,2.51.96s.86,1.56.86,2.77v18.8h-2.65v-18.52c0-.56-.13-.98-.4-1.26-.27-.28-.63-.42-1.08-.42h-.08c-.56,0-1.02.22-1.36.66-.35.44-.52,1.06-.52,1.86v17.68h-2.69v-22.09Z"/>
        <path class="cls-2" d="M532.68,269.13v-2.24c.53.35,1.15.52,1.84.52.37,0,.71-.03,1-.1.29-.07.52-.19.68-.38.35-.32.52-.91.52-1.76,0-.43-.04-1-.12-1.72l-3.09-21.45h2.61l1.64,14.39.52,5.41h-.12l.48-5.41,1.68-14.39h2.65l-3.53,24.33c-.16,1.07-.57,1.9-1.24,2.5-.67.6-1.64.9-2.93.9-.99,0-1.86-.2-2.61-.6Z"/>
      </g>
    </g>
  </g>
</svg>