<svg xmlns="http://www.w3.org/2000/svg" xmlns:xlink="http://www.w3.org/1999/xlink" id="Layer_1" x="0px" y="0px" viewBox="0 0 428.8 113.4" style="enable-background:new 0 0 428.8 113.4;" xml:space="preserve"><style type="text/css">	.st0{fill-rule:evenodd;clip-rule:evenodd;fill:#47B3E6;}	.st1{fill:#47B3E6;}	.st2{fill-rule:evenodd;clip-rule:evenodd;fill:#1B3F79;}	.st3{clip-path:url(#SVGID_00000154414806543405498700000016463019289625141951_);}	.st4{fill:#1B3F79;}	.st5{fill-rule:evenodd;clip-rule:evenodd;fill:#1D437B;}</style><g>	<path class="st0" d="M20.1,41.4c3.2-16.8,20.6-26.6,44.7-32.9c-75.1-1.9-72.5,105.7,5.5,95.3c0,0,30.6-6.7,35.7-36.9  c0,0-16.1,41.2-60.8,27.8c0,0,48.2-6.7,59.2-37.6c0,0-23.9,32.2-73.3,24.7c0,0-4.3-2-8.2-8.6c0,0,56.1,3.5,71-18.4  c0,0-35.7,19.6-74.9,4.7c0,0-0.8-3.5,0-7.8c0,0,39.6,13.7,63.9-2.7C82.8,48.9,49.9,59.4,20.1,41.4"></path>	<polygon class="st1" points="191.2,21.9 177.1,30.5 179.3,35 191.2,30.1 203.7,35 205.7,30.5  "></polygon>	<path class="st2" d="M359.1,19.5h-13.6v10.4h13.6V19.5z M359.1,37.2h-13.6v41.4h13.6V37.2z M340.6,49v-2c0-2.5-0.6-4.5-1.8-5.9  c-1.2-1.4-2.7-2.4-4.5-3.1c-1.8-0.7-3.8-1-5.9-1.1c-2.1-0.1-4.1-0.2-6-0.2c-2.9,0-5.6,0.1-8,0.2c-2.5,0.2-4.6,0.7-6.4,1.5  c-1.8,0.9-3.2,2.2-4.3,4.1c-1,1.8-1.5,4.4-1.5,7.7c0,2.1,0.2,3.9,0.7,5.5c0.5,1.6,1.5,2.8,2.9,3.8c1.4,1,3.5,1.7,6.2,2.2  c2.7,0.5,6.1,0.7,10.5,0.7c1.2,0,2.2,0,3.1,0.1c0.9,0.1,1.6,0.2,2.2,0.4c0.6,0.2,1.1,0.6,1.3,1.2c0.3,0.6,0.4,1.4,0.4,2.4  c0,0.8-0.1,1.4-0.2,1.9c-0.2,0.5-0.5,0.9-1,1.1c-0.5,0.2-1.2,0.4-2.2,0.5c-0.9,0.1-2.2,0.1-3.7,0.1c-0.8,0-1.7,0-2.4-0.1  c-0.8-0.1-1.5-0.2-2.1-0.5c-0.6-0.3-1.1-0.7-1.5-1.4c-0.4-0.6-0.6-1.5-0.6-2.7H302c0,3.4,0.6,6,1.7,7.9c1.1,1.8,2.6,3.1,4.5,4  c1.9,0.8,4,1.3,6.5,1.4c2.4,0.1,5,0.2,7.7,0.2c2.7,0,5.3-0.2,7.8-0.5c2.4-0.3,4.6-1,6.4-1.9c1.8-1,3.3-2.4,4.4-4.2  c1.1-1.8,1.7-4.3,1.7-7.3c0-2.9-0.4-5.2-1.2-6.8c-0.8-1.7-2-2.9-3.7-3.7c-1.7-0.8-3.8-1.4-6.3-1.6c-2.6-0.2-5.6-0.4-9.1-0.5  c-1.7-0.1-3.1-0.2-4-0.4c-0.9-0.2-1.7-0.4-2.1-0.7c-0.5-0.3-0.7-0.7-0.8-1.1c-0.1-0.4-0.1-0.9-0.1-1.4c0-0.6,0-1.2,0.1-1.6  c0.1-0.4,0.3-0.8,0.8-1c0.4-0.3,1.1-0.4,2.1-0.6c0.9-0.1,2.3-0.2,4.1-0.2c0.5,0,1.1,0,1.7,0c0.6,0,1.2,0.2,1.7,0.4  c0.5,0.2,1,0.6,1.4,1.1c0.4,0.5,0.6,1.1,0.7,2H340.6z M286.8,64.8c0,1.1-0.2,2-0.5,2.6c-0.3,0.6-0.8,1.1-1.4,1.4  c-0.6,0.3-1.3,0.5-2.2,0.6c-0.8,0.1-1.8,0.2-2.8,0.2c-1.4,0-2.6-0.1-3.4-0.4c-0.9-0.3-1.5-0.8-2-1.5c-0.5-0.7-0.8-1.7-1-2.9  c-0.2-1.2-0.3-2.7-0.3-4.5h26.9V58c0-4.2-0.3-7.7-1-10.4c-0.7-2.7-1.8-4.9-3.3-6.5c-1.6-1.6-3.6-2.7-6.2-3.4  c-2.6-0.6-5.8-0.9-9.7-0.9c-4.2,0-7.5,0.4-10.2,1.1c-2.6,0.7-4.7,1.9-6.2,3.6c-1.5,1.7-2.5,3.8-3.1,6.5c-0.6,2.7-0.8,6.1-0.8,10.1  c0,3.9,0.3,7.2,0.9,9.9c0.6,2.7,1.6,4.9,3.2,6.5c1.5,1.7,3.6,2.9,6.2,3.6c2.6,0.8,6,1.1,10.1,1.1c3,0,5.7-0.2,8.2-0.5  c2.5-0.3,4.6-1,6.4-2c1.8-1.1,3.2-2.5,4.1-4.3c1-1.8,1.5-4.3,1.5-7.5H286.8z M273.2,52.8c0.1-1.4,0.2-2.5,0.4-3.3  c0.2-0.8,0.6-1.5,1.1-2c0.5-0.5,1.2-0.8,2-1c0.8-0.2,1.8-0.3,3-0.3c1.2,0,2.2,0.1,3,0.2c0.8,0.1,1.6,0.4,2.1,0.8  c0.6,0.4,1,1.1,1.3,2c0.3,0.9,0.4,2.1,0.4,3.6H273.2z M215.9,37.2v41.4h13.6V55.8c0-1.3,0.1-2.4,0.2-3.5c0.2-1.1,0.5-2,1-2.8  c0.5-0.8,1.2-1.4,2.2-1.8c0.9-0.4,2.1-0.6,3.7-0.6c2.2,0,3.7,0.5,4.4,1.5c0.7,1,1.1,2.5,1.2,4.5v25.5h13.6V50c0-4.5-1.1-7.8-3.2-10  c-2.1-2.2-5.5-3.3-10.1-3.3c-3.2,0-5.8,0.6-7.9,1.7c-2,1.1-3.5,3.3-4.5,6.5h-0.6v-7.7H215.9z M198.7,64.8c0,1.1-0.2,2-0.5,2.6  c-0.3,0.6-0.8,1.1-1.4,1.4c-0.6,0.3-1.3,0.5-2.2,0.6c-0.8,0.1-1.8,0.2-2.8,0.2c-1.4,0-2.6-0.1-3.4-0.4c-0.9-0.3-1.5-0.8-2-1.5  c-0.5-0.7-0.8-1.7-1-2.9c-0.2-1.2-0.3-2.7-0.3-4.5H212V58c0-4.2-0.3-7.7-1-10.4c-0.7-2.7-1.8-4.9-3.3-6.5c-1.6-1.6-3.6-2.7-6.2-3.4  c-2.6-0.6-5.8-0.9-9.7-0.9c-4.2,0-7.5,0.4-10.2,1.1c-2.6,0.7-4.7,1.9-6.2,3.6c-1.5,1.7-2.5,3.8-3.1,6.5c-0.6,2.7-0.8,6.1-0.8,10.1  c0,3.9,0.3,7.2,0.9,9.9c0.6,2.7,1.6,4.9,3.2,6.5c1.5,1.7,3.6,2.9,6.2,3.6c2.6,0.8,6,1.1,10.1,1.1c3,0,5.7-0.2,8.2-0.5  c2.5-0.3,4.6-1,6.4-2c1.8-1.1,3.2-2.5,4.1-4.3c1-1.8,1.5-4.3,1.5-7.5H198.7z M185.1,52.8c0.1-1.4,0.2-2.5,0.4-3.3  c0.2-0.8,0.6-1.5,1.1-2c0.5-0.5,1.2-0.8,2-1c0.8-0.2,1.8-0.3,3-0.3c1.2,0,2.2,0.1,3,0.2c0.8,0.1,1.6,0.4,2.1,0.8  c0.6,0.4,1,1.1,1.3,2c0.3,0.9,0.4,2.1,0.4,3.6H185.1z M169.2,37.8c0-4.7-0.6-8.3-1.9-10.8c-1.3-2.6-3.1-4.4-5.4-5.6  s-5.1-1.9-8.3-2.1c-3.2-0.2-6.7-0.3-10.6-0.3c-4.4,0-8.3,0.3-11.7,0.7c-3.4,0.5-6.4,1.6-8.8,3.2c-2.4,1.6-4.3,3.9-5.6,6.8  c-1.3,2.9-1.9,6.9-1.9,11.8v15.3c0,4.8,0.6,8.6,1.8,11.6c1.2,2.9,2.9,5.2,5.3,6.8c2.3,1.6,5.3,2.7,8.8,3.2  c3.5,0.5,7.6,0.8,12.3,0.8c5.3,0,9.6-0.3,13-0.9c3.4-0.6,6.1-1.7,8-3.4c2-1.7,3.3-4.1,4.1-7.2c0.7-3.1,1.1-7.1,1.1-12.1V45.2h-26.9  v11h10.9c0,2.1-0.2,3.7-0.5,5c-0.3,1.3-0.9,2.3-1.6,3.1c-0.8,0.8-1.8,1.3-3.1,1.5c-1.3,0.3-3,0.4-5,0.4c-2.1,0-3.8-0.1-5.3-0.4  c-1.5-0.2-2.7-0.7-3.7-1.5c-0.9-0.8-1.7-1.9-2.1-3.5c-0.5-1.5-0.7-3.6-0.7-6.2v-9.6c0.1-2.4,0.2-4.4,0.3-6c0.2-1.7,0.6-3,1.4-4  c0.8-1,1.9-1.8,3.5-2.2c1.6-0.5,3.8-0.7,6.6-0.7c1.2,0,2.3,0,3.5,0.1c1.2,0.1,2.3,0.3,3.2,0.6c1,0.4,1.8,1,2.4,1.8  c0.6,0.8,1,2,1.1,3.4H169.2z M400.5,49v-2c0-2.5-0.6-4.5-1.8-5.9c-1.2-1.4-2.7-2.4-4.5-3.1c-1.8-0.7-3.8-1-5.9-1.1  c-2.1-0.1-4.1-0.2-6-0.2c-2.9,0-5.6,0.1-8,0.2c-2.5,0.2-4.6,0.7-6.4,1.5c-1.8,0.9-3.2,2.2-4.3,4.1c-1,1.8-1.5,4.4-1.5,7.7  c0,2.1,0.2,3.9,0.7,5.5c0.5,1.6,1.5,2.8,2.9,3.8c1.4,1,3.5,1.7,6.2,2.2c2.7,0.5,6.1,0.7,10.5,0.7c1.2,0,2.2,0,3.1,0.1  c0.9,0.1,1.6,0.2,2.2,0.4c0.6,0.2,1.1,0.6,1.3,1.2c0.3,0.6,0.4,1.4,0.4,2.4c0,0.8-0.1,1.4-0.2,1.9c-0.2,0.5-0.5,0.9-1,1.1  c-0.5,0.2-1.2,0.4-2.2,0.5c-0.9,0.1-2.2,0.1-3.7,0.1c-0.8,0-1.7,0-2.4-0.1c-0.8-0.1-1.5-0.2-2.1-0.5c-0.6-0.3-1.1-0.7-1.5-1.4  c-0.4-0.6-0.6-1.5-0.6-2.7h-13.6c0,3.4,0.6,6,1.7,7.9c1.1,1.8,2.6,3.1,4.5,4c1.9,0.8,4,1.3,6.5,1.4c2.4,0.1,5,0.2,7.7,0.2  c2.7,0,5.3-0.2,7.8-0.5c2.4-0.3,4.6-1,6.4-1.9c1.8-1,3.3-2.4,4.4-4.2c1.1-1.8,1.7-4.3,1.7-7.3c0-2.9-0.4-5.2-1.2-6.8  c-0.8-1.7-2-2.9-3.7-3.7c-1.7-0.8-3.8-1.4-6.3-1.6c-2.6-0.2-5.6-0.4-9.1-0.5c-1.7-0.1-3.1-0.2-4-0.4c-0.9-0.2-1.7-0.4-2.1-0.7  c-0.5-0.3-0.7-0.7-0.8-1.1c-0.1-0.4-0.1-0.9-0.1-1.4c0-0.6,0-1.2,0.1-1.6c0.1-0.4,0.3-0.8,0.8-1c0.4-0.3,1.1-0.4,2.1-0.6  c0.9-0.1,2.3-0.2,4.1-0.2c0.5,0,1.1,0,1.7,0c0.6,0,1.2,0.2,1.7,0.4c0.5,0.2,1,0.6,1.4,1.1c0.4,0.5,0.6,1.1,0.7,2H400.5z"></path>	<g>		<defs>			<path id="SVGID_1_" d="M347.9,55.9v20.3h8.8V55.9H347.9z M305.4,55.9c0.4,0.7,0.9,1.3,1.6,1.7c1.4,1,3.5,1.5,5.2,1.9    c3.2,0.6,6.8,0.7,10,0.7c1.1,0,2.1,0,3.2,0.1c1,0.1,2,0.2,3,0.6c1.2,0.5,2.1,1.3,2.6,2.4c0.5,1.1,0.7,2.3,0.7,3.4    c0,0.9-0.1,1.8-0.3,2.7c-0.4,1.2-1.2,2-2.2,2.6c-0.9,0.4-2,0.6-3,0.7c-1.3,0.1-2.6,0.1-3.9,0.1c-0.9,0-1.7,0-2.6-0.1    c-1-0.1-2-0.3-3-0.7c-1.1-0.5-1.9-1.3-2.6-2.3c-0.3-0.5-0.5-1-0.7-1.6h-9c0.2,1.5,0.5,3.1,1.2,4.2c0.8,1.4,1.9,2.4,3.4,3    c1.7,0.8,3.7,1.1,5.6,1.2c2.5,0.1,5.1,0.2,7.6,0.2c2.5,0,5-0.1,7.5-0.5c1.9-0.3,3.9-0.8,5.6-1.7c1.5-0.8,2.6-1.9,3.5-3.3    c1.1-1.8,1.3-4.1,1.3-6.1c0-1.8-0.2-4.1-1-5.8c-0.6-1.2-1.4-2-2.6-2.6c-0.7-0.3-1.4-0.6-2.1-0.8H305.4z M297.6,67.2h-8.7    c-0.1,0.4-0.3,0.9-0.5,1.3c-0.5,1.1-1.4,1.9-2.4,2.5c-0.9,0.5-1.9,0.8-3,0.9c-1,0.1-2.1,0.2-3.1,0.2c-1.4,0-2.9-0.1-4.2-0.6    c-1.4-0.5-2.5-1.3-3.3-2.5c-0.7-1.1-1.1-2.5-1.3-3.8c-0.2-1.6-0.3-3.3-0.3-4.9v-2.4h26.9c0-0.6,0-1.3,0-1.9H262c0,0.7,0,1.4,0,2    c0,3.1,0.2,6.3,0.8,9.4c0.4,2,1.2,3.9,2.6,5.4c1.4,1.5,3.2,2.4,5.1,3c2.9,0.9,6.3,1,9.4,1c2.6,0,5.3-0.1,7.9-0.5    c1.9-0.2,3.8-0.7,5.5-1.7c1.4-0.8,2.5-1.9,3.2-3.4C297.1,70,297.4,68.6,297.6,67.2z M244.6,55.9v20.3h8.8V55.9H244.6z     M218.3,55.9v20.3h8.8V55.9H218.3z M209.5,67.2h-8.7c-0.1,0.4-0.3,0.9-0.5,1.3c-0.5,1.1-1.4,1.9-2.4,2.5c-0.9,0.5-1.9,0.8-3,0.9    c-1,0.1-2.1,0.2-3.1,0.2c-1.4,0-2.9-0.1-4.2-0.6c-1.4-0.5-2.5-1.3-3.3-2.5c-0.7-1.1-1.1-2.5-1.3-3.8c-0.2-1.6-0.3-3.3-0.3-4.9    v-2.4h26.9c0-0.6,0-1.3,0-1.9h-35.6c0,0.7,0,1.4,0,2c0,3.1,0.2,6.3,0.8,9.4c0.4,2,1.2,3.9,2.6,5.4c1.4,1.5,3.2,2.4,5.1,3    c2.9,0.9,6.3,1,9.4,1c2.6,0,5.3-0.1,7.9-0.5c1.9-0.2,3.8-0.7,5.5-1.7c1.4-0.8,2.5-1.9,3.2-3.4C209,70,209.3,68.6,209.5,67.2z     M117.3,55.9v0.9c0,3.4,0.3,7.4,1.6,10.7c0.9,2.3,2.3,4.3,4.4,5.7c2.3,1.6,5,2.4,7.8,2.8c3.9,0.6,8,0.8,11.9,0.8    c4.1,0,8.5-0.1,12.6-0.8c2.4-0.4,5-1.2,6.9-2.9c1.8-1.5,2.8-3.7,3.3-5.9c0.8-3.5,1-7.5,1-11.2h-11.2v0.2c0,1.8-0.1,3.8-0.5,5.6    c-0.4,1.6-1.1,3-2.3,4.2c-1.2,1.2-2.7,1.9-4.3,2.2c-1.8,0.4-3.6,0.4-5.4,0.4c-1.9,0-3.8-0.1-5.7-0.4c-1.8-0.3-3.4-0.9-4.8-2.1    c-1.4-1.2-2.3-2.8-2.9-4.6c-0.5-1.7-0.7-3.7-0.8-5.6H117.3z M365.3,55.9c0.4,0.7,0.9,1.3,1.6,1.7c1.4,1,3.5,1.5,5.2,1.9    c3.2,0.6,6.8,0.7,10,0.7c1.1,0,2.1,0,3.2,0.1c1,0.1,2,0.2,3,0.6c1.2,0.5,2.1,1.3,2.6,2.4c0.5,1.1,0.7,2.3,0.7,3.4    c0,0.9-0.1,1.8-0.3,2.7c-0.4,1.2-1.2,2-2.2,2.6c-0.9,0.4-2,0.6-3,0.7c-1.3,0.1-2.6,0.1-3.9,0.1c-0.9,0-1.7,0-2.6-0.1    c-1-0.1-2-0.3-3-0.7c-1.1-0.5-1.9-1.3-2.6-2.3c-0.3-0.5-0.5-1-0.7-1.6h-9c0.2,1.5,0.5,3.1,1.2,4.2c0.8,1.4,1.9,2.4,3.4,3    c1.7,0.8,3.7,1.1,5.6,1.2c2.5,0.1,5.1,0.2,7.6,0.2c2.5,0,5-0.1,7.5-0.5c1.9-0.3,3.9-0.8,5.6-1.7c1.5-0.8,2.6-1.9,3.5-3.3    c1.1-1.8,1.3-4.1,1.3-6.1c0-1.8-0.2-4.1-1-5.8c-0.6-1.2-1.4-2-2.6-2.6c-0.7-0.3-1.4-0.6-2.1-0.8H365.3z"></path>		</defs>		<clipPath id="SVGID_00000049932834426657773780000004862862669069732791_">			<use xlink:href="#SVGID_1_" style="overflow:visible;"></use>		</clipPath>		<g style="clip-path:url(#SVGID_00000049932834426657773780000004862862669069732791_);">			<defs>				<rect id="SVGID_00000137131520627370487460000006803410040467472554_" x="117.3" y="55.9" width="282.8" height="20.8"></rect>			</defs>			<clipPath id="SVGID_00000129187484044671021980000001870517329976892857_">				<use xlink:href="#SVGID_00000137131520627370487460000006803410040467472554_" style="overflow:visible;"></use>			</clipPath>			<g transform="matrix(1 0 0 1 0 0)" style="clip-path:url(#SVGID_00000129187484044671021980000001870517329976892857_);">									<image style="overflow:visible;" width="1179" height="86" transform="matrix(0.2398 0 0 0.2418 117.2925 55.9096)">				</image>			</g>		</g>	</g>	<path class="st4" d="M387.3,97.9v0.6c0,0.9,0.1,1.5,0.4,2c0.3,0.5,0.6,0.8,1.1,1c0.5,0.2,1,0.3,1.6,0.4c0.6,0,1.2,0,1.9,0  c0.8,0,1.4,0,2-0.1c0.6-0.1,1.1-0.2,1.5-0.5c0.4-0.3,0.7-0.6,0.9-1.1c0.2-0.5,0.3-1.1,0.3-2c0-0.8-0.1-1.4-0.2-1.8  c-0.1-0.4-0.4-0.8-0.8-1c-0.4-0.2-0.8-0.4-1.4-0.5c-0.6-0.1-1.4-0.2-2.3-0.2c-0.6,0-1.1-0.1-1.4-0.1c-0.3,0-0.6-0.1-0.8-0.2  c-0.2-0.1-0.3-0.3-0.4-0.5c-0.1-0.2-0.1-0.5-0.1-0.9c0-0.3,0-0.6,0.1-0.8c0.1-0.2,0.2-0.3,0.4-0.5c0.2-0.1,0.5-0.2,0.8-0.2  c0.3,0,0.8-0.1,1.4-0.1c0.4,0,0.7,0,1,0c0.3,0,0.5,0.1,0.7,0.2c0.2,0.1,0.3,0.2,0.4,0.4c0.1,0.2,0.1,0.4,0.1,0.8v0.4h2.3v-0.4  c0-0.8-0.1-1.4-0.4-1.8c-0.2-0.4-0.6-0.8-1-1c-0.4-0.2-0.9-0.3-1.4-0.4c-0.5,0-1.1-0.1-1.7-0.1c-0.7,0-1.4,0-2,0.1  c-0.6,0-1.1,0.2-1.6,0.4c-0.4,0.2-0.8,0.6-1,1c-0.2,0.5-0.4,1.1-0.4,1.9c0,0.9,0.1,1.5,0.4,2c0.2,0.5,0.6,0.8,1,1  c0.4,0.2,0.9,0.3,1.5,0.4c0.6,0,1.2,0.1,1.8,0.1c0.4,0,0.8,0,1.2,0c0.3,0,0.6,0.1,0.8,0.1c0.2,0.1,0.4,0.2,0.5,0.4  c0.1,0.2,0.2,0.5,0.2,1c0,0.4,0,0.6-0.1,0.9c-0.1,0.2-0.2,0.4-0.3,0.5c-0.2,0.1-0.4,0.2-0.7,0.3c-0.3,0.1-0.7,0.1-1.3,0.1  c-0.5,0-1,0-1.3,0c-0.3,0-0.6-0.1-0.8-0.2c-0.2-0.1-0.4-0.2-0.4-0.4c-0.1-0.2-0.1-0.5-0.1-0.8v-0.6H387.3z M360.4,91.6  c0.5,0,1,0,1.3,0.1c0.4,0,0.7,0.1,0.9,0.3c0.2,0.2,0.4,0.4,0.5,0.7c0.1,0.3,0.1,0.8,0.1,1.3v3.2c0,0.6,0,1-0.1,1.4  c-0.1,0.3-0.3,0.6-0.5,0.8c-0.2,0.2-0.5,0.3-0.9,0.4c-0.4,0.1-0.8,0.1-1.3,0.1c-0.6,0-1,0-1.4-0.1c-0.4,0-0.6-0.2-0.8-0.3  c-0.2-0.2-0.3-0.4-0.4-0.8c-0.1-0.3-0.1-0.8-0.1-1.4v-3.2c0-0.5,0-0.9,0.1-1.2c0.1-0.3,0.2-0.6,0.4-0.7c0.2-0.2,0.5-0.3,0.8-0.4  C359.3,91.7,359.8,91.6,360.4,91.6z M360.4,89.7c-0.9,0-1.8,0.1-2.4,0.2c-0.7,0.1-1.2,0.3-1.6,0.6c-0.4,0.3-0.7,0.8-0.8,1.3  c-0.2,0.6-0.3,1.3-0.3,2.3v3.2c0,1,0.1,1.8,0.3,2.4c0.2,0.6,0.5,1.1,0.9,1.4c0.4,0.3,0.9,0.5,1.6,0.6c0.6,0.1,1.4,0.2,2.4,0.2  c0.9,0,1.7-0.1,2.3-0.2c0.6-0.1,1.2-0.3,1.6-0.7c0.4-0.3,0.7-0.8,0.9-1.4c0.2-0.6,0.3-1.4,0.3-2.3v-3.2c0-1-0.1-1.7-0.3-2.3  c-0.2-0.6-0.5-1-1-1.3c-0.4-0.3-1-0.5-1.6-0.6C362,89.7,361.3,89.7,360.4,89.7z M333,89.8h-2.3v12h2.3V89.8z M308.4,93.8v-0.7  c0-0.9-0.2-1.5-0.4-2c-0.2-0.5-0.5-0.8-1-1c-0.4-0.2-0.9-0.3-1.5-0.4c-0.6,0-1.3-0.1-2-0.1c-0.9,0-1.6,0.1-2.3,0.2  c-0.6,0.1-1.2,0.4-1.6,0.7c-0.4,0.4-0.7,0.8-0.9,1.4c-0.2,0.6-0.3,1.4-0.3,2.4v2.8c0,0.9,0.1,1.6,0.2,2.2c0.1,0.6,0.4,1.1,0.7,1.5  c0.4,0.4,0.9,0.7,1.5,0.8c0.7,0.2,1.5,0.2,2.6,0.2c0.7,0,1.4-0.1,2-0.1c0.6,0,1.1-0.2,1.6-0.4c0.4-0.2,0.8-0.6,1-1  c0.2-0.5,0.4-1.2,0.3-2.1v-0.8h-2.3v0.7c0,0.4-0.1,0.8-0.2,1c-0.1,0.2-0.3,0.4-0.5,0.5c-0.2,0.1-0.5,0.2-0.8,0.2  c-0.3,0-0.7,0-1.2,0c-0.6,0-1.1,0-1.4-0.1c-0.4-0.1-0.6-0.2-0.8-0.4c-0.2-0.2-0.3-0.5-0.4-0.9c-0.1-0.4-0.1-0.9-0.1-1.5v-2.7  c0-0.6,0-1.1,0.1-1.4c0.1-0.4,0.2-0.6,0.4-0.8c0.2-0.2,0.5-0.3,0.8-0.4c0.4-0.1,0.8-0.1,1.4-0.1c0.5,0,0.9,0,1.2,0  c0.3,0,0.6,0.1,0.8,0.2c0.2,0.1,0.3,0.2,0.4,0.4c0.1,0.2,0.1,0.5,0.1,0.8v0.7H308.4z M276.1,86.3l-2.8,1.9l0.4,0.8l3.1-1.4  L276.1,86.3z M276.2,89.8h-2.3v12h2.3V89.8z M246.2,91.7h5.6v-2h-7.9v12h2.3v-5h5.3v-1.9h-5.3V91.7z M215.6,91.7h5.9v-2h-8.2v12  h8.3v-2h-6v-3.2h5.6v-1.9h-5.6V91.7z M188.6,99.8L188.6,99.8l-5.2-10h-3.8v12h2.3l-0.2-10h0.1l5.1,10h3.8v-12h-2.3L188.6,99.8z   M151.2,91.7h5.9v-2h-8.2v12h8.3v-2h-6v-3.2h5.6v-1.9h-5.6V91.7z M119.3,91.7h3.3c0.3,0,0.5,0,0.7,0c0.2,0,0.4,0.1,0.5,0.2  c0.1,0.1,0.2,0.2,0.3,0.4c0.1,0.2,0.1,0.4,0.1,0.8c0,0.3,0,0.6-0.1,0.8c0,0.2-0.1,0.4-0.2,0.5c-0.1,0.1-0.3,0.2-0.5,0.3  c-0.2,0.1-0.5,0.1-0.8,0.1h-3.3V91.7z M123.1,101.8c0.6,0,1.2-0.1,1.6-0.2c0.5-0.1,0.8-0.3,1.1-0.5c0.3-0.3,0.5-0.6,0.6-1  c0.1-0.4,0.2-1,0.2-1.6c0-0.4,0-0.7-0.1-1.1c-0.1-0.3-0.2-0.6-0.3-0.8c-0.1-0.2-0.3-0.4-0.6-0.6c-0.3-0.2-0.6-0.3-1-0.3v-0.1  c0.4-0.1,0.7-0.2,0.9-0.4c0.2-0.2,0.4-0.4,0.5-0.6c0.1-0.2,0.2-0.5,0.2-0.8c0-0.3,0.1-0.6,0.1-0.9c0-0.7-0.1-1.2-0.2-1.6  c-0.2-0.4-0.4-0.7-0.7-0.9c-0.3-0.2-0.7-0.4-1.1-0.5c-0.4-0.1-1-0.1-1.5-0.1h-6v12H123.1z M119.3,96.5h3.5c0.3,0,0.6,0,0.8,0.1  c0.2,0.1,0.4,0.1,0.5,0.3c0.1,0.1,0.2,0.3,0.2,0.5c0,0.2,0.1,0.5,0.1,0.8c0,0.4,0,0.7-0.1,0.9c-0.1,0.2-0.2,0.4-0.4,0.5  c-0.2,0.1-0.4,0.2-0.6,0.2c-0.3,0-0.6,0-0.9,0h-3.2V96.5z"></path>	<path class="st5" d="M414.5,36.7c1.3,0,2.6,0.3,3.8,1c1.2,0.7,2.1,1.6,2.7,2.8c0.7,1.2,1,2.4,1,3.8c0,1.3-0.3,2.6-1,3.8  c-0.7,1.2-1.6,2.1-2.7,2.7c-1.2,0.7-2.4,1-3.8,1c-1.3,0-2.6-0.3-3.7-1c-1.2-0.7-2.1-1.6-2.7-2.7c-0.7-1.2-1-2.4-1-3.8  c0-1.3,0.3-2.6,1-3.8c0.7-1.2,1.6-2.1,2.7-2.8C411.9,37,413.2,36.7,414.5,36.7 M414.5,37.3c-1.2,0-2.4,0.3-3.4,0.9  c-1.1,0.6-1.9,1.4-2.5,2.5c-0.6,1.1-0.9,2.2-0.9,3.4c0,1.2,0.3,2.4,0.9,3.4c0.6,1.1,1.4,1.9,2.5,2.5c1.1,0.6,2.2,0.9,3.4,0.9  c1.2,0,2.4-0.3,3.4-0.9c1.1-0.6,1.9-1.4,2.5-2.5c0.6-1.1,0.9-2.2,0.9-3.4c0-1.2-0.3-2.4-0.9-3.4c-0.6-1.1-1.4-1.9-2.5-2.5  C416.9,37.6,415.7,37.3,414.5,37.3z M410.7,39.5h4.1c1,0,1.8,0.2,2.3,0.7c0.6,0.5,0.8,1,0.8,1.7c0,0.6-0.2,1.1-0.6,1.5  c-0.4,0.4-1,0.7-1.8,0.9l2.2,3.2c0.3,0.4,0.5,0.6,0.7,0.7c0.2,0.1,0.4,0.2,0.6,0.2v0.4h-1.9l-3.1-4.3h-0.8v3c0,0.4,0.1,0.6,0.2,0.7  c0.2,0.1,0.5,0.2,1,0.2v0.4h-3.9v-0.4c0.3,0,0.6,0,0.7-0.1c0.1-0.1,0.2-0.2,0.3-0.4c0-0.1,0.1-0.4,0.1-1v-5.9  c0-0.4-0.1-0.7-0.2-0.8c-0.1-0.1-0.4-0.2-0.8-0.2V39.5z M413.2,43.9h0.3c0.9,0,1.6-0.2,2-0.5c0.4-0.3,0.6-0.8,0.6-1.4  c0-0.6-0.2-1-0.6-1.4c-0.4-0.4-0.9-0.6-1.5-0.6c-0.3,0-0.6,0.1-0.9,0.2V43.9z"></path></g></svg>