<?xml version="1.0" encoding="UTF-8"?>
<svg xmlns="http://www.w3.org/2000/svg" viewBox="0 0 917.41 482.06">
  <defs>
    <style>
      .cls-1 {
        fill: #898989;
        mix-blend-mode: multiply;
      }

      .cls-2 {
        fill: #fff;
      }

      .cls-3 {
        isolation: isolate;
      }
    </style>
  </defs>
  <g class="cls-3">
    <g id="Camada_2" data-name="Camada 2">
      <g id="Camada_1-2" data-name="Camada 1">
        <g>
          <path class="cls-2" d="M30.41,392.12c-40.54-40.54-40.54-106.27,0-146.81L245.3,30.41c40.54-40.54,106.27-40.54,146.81,0l66.59,66.59,66.59-66.59c40.54-40.54,106.27-40.54,146.81,0l214.9,214.9c40.54,40.54,40.54,106.27,0,146.81l-59.54,59.54c-40.54,40.54-106.27,40.54-146.81,0l-74.27-74.27-74.27,74.27c-40.54,40.54-106.27,40.54-146.81,0l-74.27-74.27-74.27,74.27c-40.54,40.54-106.27,40.54-146.81,0l-59.54-59.54Z"/>
          <path class="cls-1" d="M606.38,377.38l132.94-132.94c40.54-40.54,106.26-40.54,146.81,0l.87.87c40.54,40.54,40.54,106.27,0,146.81l-59.54,59.54c-40.54,40.54-106.27,40.54-146.81,0l-74.27-74.27Z"/>
          <path class="cls-1" d="M311.02,377.38l-132.94-132.94c-40.54-40.54-106.27-40.54-146.81,0l-.87.87c-40.54,40.54-40.54,106.27,0,146.81l59.54,59.54c40.54,40.54,106.27,40.54,146.81,0l74.27-74.27Z"/>
        </g>
      </g>
    </g>
  </g>
</svg>