<?xml version="1.0" encoding="UTF-8"?>
<svg id="Camada_2" data-name="Camada 2" xmlns="http://www.w3.org/2000/svg" viewBox="0 0 318.76 58.9">
  <defs>
    <style>
      .cls-1 {
        fill: #fff;
      }
    </style>
  </defs>
  <g id="Camada_1-2" data-name="Camada 1">
    <g>
      <g>
        <polygon class="cls-1" points="61.51 0 34.13 0 34.13 32.2 61.51 58.03 61.51 58.03 61.51 0"/>
        <path class="cls-1" d="M24.93,41.39c0-5.08,4.12-9.2,9.2-9.2L0,0v58.03h24.93v-16.64Z"/>
        <polygon class="cls-1" points="34.13 58.03 57.36 58.03 34.13 36.11 34.13 58.03"/>
      </g>
      <g>
        <path class="cls-1" d="M99.53,56.57l2.56-9.34h2.79l2.56,9.34h-1.66l-.56-2.14h-3.48l-.56,2.14h-1.66ZM102.12,52.96h2.74l-1.25-4.74h-.23l-1.25,4.74Z"/>
        <path class="cls-1" d="M113.97,56.57v-9.34h3.99c.59,0,1.1.1,1.54.31.44.2.78.49,1.02.86.24.37.37.81.37,1.33v.15c0,.58-.14,1.04-.41,1.39s-.61.6-1,.76v.21c.35.02.62.14.82.36s.3.52.3.89v3.08h-1.6v-2.86c0-.22-.06-.4-.18-.54-.12-.14-.31-.21-.58-.21h-2.64v3.6h-1.62ZM115.59,51.51h2.22c.46,0,.82-.12,1.09-.37.26-.24.39-.57.39-.98v-.12c0-.42-.13-.75-.39-.99-.26-.24-.62-.37-1.09-.37h-2.22v2.83Z"/>
        <path class="cls-1" d="M131.32,56.75c-1.16,0-2.08-.32-2.77-.97-.69-.65-1.03-1.57-1.03-2.78v-2.22c0-1.21.34-2.14,1.03-2.78.69-.65,1.61-.97,2.77-.97s2.09.32,2.78.97,1.03,1.57,1.03,2.78v2.22c0,1.21-.34,2.14-1.03,2.78s-1.61.97-2.78.97ZM131.32,55.31c.69,0,1.24-.2,1.62-.61.39-.41.58-.95.58-1.65v-2.32c0-.69-.19-1.24-.58-1.65-.39-.4-.93-.61-1.62-.61s-1.22.2-1.61.61c-.39.41-.58.95-.58,1.65v2.32c0,.69.19,1.24.58,1.65.39.4.92.61,1.61.61ZM131.92,58.9c-.41,0-.74-.13-1-.38s-.38-.59-.38-1.02v-.93h1.55v.69c0,.27.12.4.37.4h.81v1.24h-1.36Z"/>
        <path class="cls-1" d="M145.63,56.75c-.75,0-1.39-.14-1.93-.41-.54-.27-.95-.67-1.24-1.18-.29-.52-.43-1.13-.43-1.84v-6.1h1.6v6.14c0,.62.17,1.1.52,1.44.35.34.84.51,1.48.51s1.15-.17,1.49-.51c.34-.34.51-.82.51-1.44v-6.14h1.6v6.1c0,.71-.14,1.33-.43,1.84-.29.52-.7.91-1.24,1.18-.54.27-1.19.41-1.94.41Z"/>
        <path class="cls-1" d="M156.38,56.57v-9.34h1.61v9.34h-1.61Z"/>
        <path class="cls-1" d="M167.38,56.57v-7.89h-2.79v-1.46h7.18v1.46h-2.79v7.89h-1.6Z"/>
        <path class="cls-1" d="M178.36,56.57v-9.34h5.95v1.46h-4.34v2.46h3.96v1.46h-3.96v2.52h4.41v1.46h-6.02Z"/>
        <path class="cls-1" d="M193.33,56.57v-7.89h-2.79v-1.46h7.18v1.46h-2.79v7.89h-1.6Z"/>
        <path class="cls-1" d="M207.5,56.75c-1.16,0-2.08-.32-2.77-.97s-1.03-1.57-1.03-2.78v-2.22c0-1.21.34-2.14,1.03-2.78s1.61-.97,2.77-.97,2.09.32,2.78.97c.68.65,1.03,1.57,1.03,2.78v2.22c0,1.21-.34,2.14-1.03,2.78-.69.65-1.61.97-2.78.97ZM207.5,55.31c.69,0,1.24-.2,1.62-.61.39-.41.58-.95.58-1.65v-2.32c0-.69-.19-1.24-.58-1.65-.39-.4-.93-.61-1.62-.61s-1.22.2-1.61.61c-.39.41-.58.95-.58,1.65v2.32c0,.69.19,1.24.58,1.65.39.4.92.61,1.61.61Z"/>
        <path class="cls-1" d="M221.48,56.75c-.71,0-1.34-.13-1.89-.38-.55-.25-.98-.62-1.29-1.1-.31-.48-.47-1.07-.47-1.76v-.35h1.59v.35c0,.61.19,1.07.56,1.37.37.3.87.45,1.49.45s1.11-.13,1.43-.39c.32-.26.48-.59.48-1,0-.28-.08-.5-.23-.67-.15-.17-.37-.31-.66-.42s-.64-.21-1.05-.31l-.4-.08c-.61-.14-1.15-.32-1.6-.54-.45-.22-.79-.5-1.03-.85-.24-.35-.36-.8-.36-1.36s.13-1.04.4-1.44.64-.71,1.13-.92c.49-.21,1.06-.32,1.72-.32s1.24.11,1.76.33c.52.22.92.56,1.22,1,.3.45.45,1,.45,1.67v.44h-1.59v-.44c0-.38-.08-.69-.23-.92-.15-.23-.37-.4-.64-.51-.28-.11-.6-.16-.97-.16-.55,0-.97.11-1.25.32-.29.21-.43.52-.43.91,0,.25.06.46.19.63.13.17.32.32.57.43.25.11.57.21.95.29l.4.09c.64.14,1.2.32,1.68.54.48.22.86.51,1.13.86.27.36.41.82.41,1.39s-.14,1.05-.43,1.48c-.29.43-.69.76-1.22,1-.52.24-1.14.36-1.85.36Z"/>
      </g>
      <g>
        <path class="cls-1" d="M99.26,38V8.34h6.9l10.33,27.41h.55V8.34h3.52v29.65h-6.9l-10.29-27.45h-.59v27.45h-3.52Z"/>
        <path class="cls-1" d="M141.53,38.59c-3.53,0-6.35-1.02-8.45-3.07-2.1-2.05-3.15-5.03-3.15-8.96v-6.78c0-3.92,1.05-6.91,3.15-8.96,2.1-2.05,4.92-3.07,8.45-3.07s6.39,1.02,8.49,3.07c2.1,2.05,3.16,5.03,3.16,8.96v6.78c0,3.93-1.05,6.91-3.16,8.96-2.1,2.05-4.93,3.07-8.49,3.07ZM141.53,35.41c2.57,0,4.56-.77,5.97-2.31,1.41-1.54,2.12-3.68,2.12-6.42v-7.03c0-2.74-.71-4.88-2.12-6.42-1.41-1.54-3.4-2.31-5.97-2.31s-4.52.77-5.93,2.31c-1.41,1.54-2.12,3.68-2.12,6.42v7.03c0,2.74.71,4.88,2.12,6.42,1.41,1.54,3.39,2.31,5.93,2.31Z"/>
        <path class="cls-1" d="M172.84,38.59c-2.2,0-4.15-.46-5.82-1.38-1.68-.92-2.99-2.27-3.94-4.05-.95-1.78-1.42-3.98-1.42-6.61v-6.78c0-3.92,1.04-6.91,3.13-8.96,2.09-2.05,4.9-3.07,8.43-3.07s6.17.96,8.01,2.88c1.84,1.92,2.75,4.49,2.75,7.71v.21h-3.51v-.3c0-1.41-.25-2.67-.76-3.77-.51-1.1-1.3-1.97-2.37-2.6-1.07-.64-2.44-.95-4.11-.95-2.51,0-4.48.77-5.89,2.31-1.41,1.54-2.12,3.69-2.12,6.46v6.95c0,2.77.71,4.92,2.12,6.46,1.41,1.54,3.39,2.31,5.93,2.31s4.31-.71,5.49-2.12c1.17-1.41,1.76-3.29,1.76-5.63v-.72h-8.98v-3.05h12.45v14.11h-3.22v-3.22h-.59c-.31.62-.75,1.23-1.31,1.82-.57.59-1.33,1.07-2.29,1.44-.96.37-2.2.55-3.73.55Z"/>
        <path class="cls-1" d="M204.56,38.59c-2.2,0-4.12-.4-5.76-1.19-1.64-.79-2.91-1.97-3.81-3.54-.9-1.57-1.35-3.5-1.35-5.78V8.34h3.51v19.78c0,2.43.65,4.25,1.95,5.46,1.3,1.21,3.12,1.82,5.46,1.82s4.17-.61,5.46-1.82c1.3-1.21,1.95-3.04,1.95-5.46V8.34h3.56v19.74c0,2.29-.45,4.21-1.36,5.78s-2.18,2.75-3.83,3.54c-1.65.79-3.58,1.19-5.78,1.19Z"/>
        <path class="cls-1" d="M225.44,38V8.34h18.26v3.22h-14.7v9.91h13.51v3.22h-13.51v10.08h14.91v3.22h-18.47Z"/>
        <path class="cls-1" d="M252.68,38V8.34h3.56v29.65h-3.56Z"/>
        <path class="cls-1" d="M266.4,38V8.34h11.99c1.84,0,3.45.32,4.85.95,1.4.64,2.49,1.54,3.28,2.71s1.19,2.58,1.19,4.21v.47c0,1.95-.47,3.49-1.4,4.62-.93,1.13-2.03,1.89-3.3,2.29v.59c1.02.03,1.86.36,2.52,1,.66.64,1,1.59,1,2.86v9.95h-3.52v-9.53c0-.85-.23-1.5-.7-1.95-.47-.45-1.17-.68-2.1-.68h-10.25v12.16h-3.56ZM269.96,22.62h8.09c1.95,0,3.45-.47,4.51-1.42,1.06-.95,1.59-2.27,1.59-3.96v-.3c0-1.69-.52-3.01-1.57-3.96-1.04-.95-2.56-1.42-4.53-1.42h-8.09v11.06Z"/>
        <path class="cls-1" d="M294.19,38l9.15-29.65h6.27l9.15,29.65h-3.69l-2.29-7.5h-12.62l-2.29,7.5h-3.69ZM301.05,27.28h10.8l-5.08-16.77h-.59l-5.12,16.77Z"/>
      </g>
    </g>
  </g>
</svg>