<?xml version="1.0" encoding="UTF-8"?>
<svg id="Camada_2" data-name="Camada 2" xmlns="http://www.w3.org/2000/svg" viewBox="0 0 906 781.11">
  <defs>
    <style>
      .cls-1 {
        fill: #fff;
      }
    </style>
  </defs>
  <g id="Camada_1-2" data-name="Camada 1">
    <g>
      <g>
        <path class="cls-1" d="M524,377.9h-149V54.4c0-1.69,5.09-13.37,6.29-15.71,25.28-49.39,104.3-51.92,133.53-5.11,1.89,3.02,9.18,18.17,9.18,20.82v323.5Z"/>
        <path class="cls-1" d="M339,85.9v292h-27v-109c-30.7-4.58-59.84-20.5-75.81-47.69-42.03-71.6,28.01-147.26,102.81-135.31Z"/>
        <path class="cls-1" d="M587,377.9h-27V85.9c40.2-6.15,84.48,13.35,104.17,49.33,28.09,51.32-.9,109.36-53.66,127.69-7.78,2.7-16.16,3.56-23.52,6.48v108.5Z"/>
        <g>
          <path class="cls-1" d="M615,450.9h-63.5c-.11,0-1.5,1.39-1.5,1.5v64.5h51c1.12,11.26,1.81,22.78,0,34h-49.5c-.11,0-1.5,1.39-1.5,1.5v67.5c1.28-.55,2.96,1,3.5,1h61.5v33h-102v-237h100.5c.11,0,1.5,1.39,1.5,1.5v32.5Z"/>
          <path class="cls-1" d="M99,450.9h-60.5c-.11,0-1.5,1.39-1.5,1.5v69c0,.11,1.39,1.5,1.5,1.5h46c.11,0,1.5,1.39,1.5,1.5v30c0,.64-4.85,2.5-5.5,2.5h-42c-.11,0-1.5,1.39-1.5,1.5v95.5H0v-235.5c0-.11,1.39-1.5,1.5-1.5h96c.11,0,1.5,1.39,1.5,1.5v32.5Z"/>
          <path class="cls-1" d="M496,416.9v34h-39v203c-12.23,2.27-24.61-.93-37,0v-203h-39v-34h115Z"/>
          <path class="cls-1" d="M790,416.9c-.55,1.28,1,2.96,1,3.5v199.5c.98-.32,2.17,1,2.5,1h58.5v33h-97.5c-.11,0-1.5-1.39-1.5-1.5v-234c0-.11,1.39-1.5,1.5-1.5h35.5Z"/>
          <path class="cls-1" d="M675,416.9v203c.98-.32,2.17,1,2.5,1h58.5v33h-98v-237h37Z"/>
          <path class="cls-1" d="M906,416.9v237c-4.5,2.26-8.3,0-12.46-.04-8.39-.08-16.28,1.22-24.54.04v-237h37Z"/>
          <path class="cls-1" d="M229.02,639.38c-2.19-25.83,6.69-76.07-14.54-94.46-2.9-2.51-6.4-4.24-9.45-6.53,15.28-9.02,21.89-23.53,23.03-40.95,2.55-39.16.87-76.37-46.55-80.55-20.58-1.82-43.66,1.35-64.5,0v237c5.92,2.04,11.02-.07,16.45-.05,7.01.03,14.05,1.41,20.55.05v-96h18.5c4.07,0,10.4,3.75,13.02,6.98,9.43,11.62,4.6,50.27,5.44,66.56.22,4.24,1.36,18.86,3.53,21.47.81.97,1.79,1.07,2.96,1.04l34.56-.06c-.81-4.84-2.57-9.57-2.99-14.51ZM189.49,510.89c-2.09,6.48-10.15,13.01-16.99,13.01h-18.5v-73h22.5c6.18,0,11.63,7.39,13.22,12.78,2.29,7.81,2.26,39.51-.23,47.21Z"/>
          <path class="cls-1" d="M335.81,418.59l-.75-1.25-53.48-.5-37.58,237.06h32.5c3.99-5.92,4.79-38.8,7.74-41.76,1.09-1.1,3.68-1.15,5.22-1.28,4.62-.39,39.07-.35,40.45,1.13l6.09,41.91h37l-37.19-235.31ZM289,578.9l17.01-115,17.99,115h-35Z"/>
        </g>
      </g>
      <g>
        <path class="cls-1" d="M536.01,723.61l14.22-34.76c2.92-1.79,6.51-1.2,9.76-1.23,1.76,1.65-16.38,39.44-16.06,45.48,4.82,15.81,12.66,30.67,17.06,46.51-2.74-.41-8.78,1.08-10.5-.99l-15.48-38-14.12,38.88-9.88.11,17.96-46.56-16.93-43.95c.16-2.05,9.11-2.18,10.49-.52l13.48,35.03Z"/>
        <path class="cls-1" d="M757,712.61c-1.69-.28-9.63.38-10.01,0-.6-.6,1.83-12.23-5.25-15.25-8.78-3.76-15.3,2.03-15.79,10.78-.88,15.47,17.22,21.85,24.87,32.14,12.56,16.88,6.11,43.44-18.25,40.24-14.37-1.89-17.74-15.24-16.59-27.92,1.58.26,8.66-.36,9.01,0,.66.67-1.28,13.91,5.28,17.22,9.88,4.99,17.32-2.39,16.76-12.68-.98-18.02-32.3-23.75-31.09-49.06.78-16.32,12.3-24.01,28.08-20,10.1,2.57,13.58,15.27,12.98,24.53Z"/>
        <path class="cls-1" d="M806,712.61c-1.68-.27-9.64.38-10.01,0-.62-.63,1.55-13.22-5.94-15.55-9.66-3.01-15.13,2.6-15.14,12.05,0,16.86,23.29,23.31,29.13,38.95,7.56,20.23-8.23,40.35-29.44,30.44-10.41-4.87-8.87-16.6-10.61-25.88,1.68.27,9.62-.4,10-.01.65.64-1.97,12.62,4.63,16.87,6.23,4,15.08,1.42,16.3-6.42,3.39-21.76-20.77-25.71-27.82-42.05-4.36-10.1-2.38-29.48,10.07-32.7,18.84-4.88,29.08,6.18,28.82,24.31Z"/>
        <path class="cls-1" d="M708,687.61v10h-28v31h23v9h-21.5c-.11,0-1.5,1.39-1.5,1.5v30c0,.11,1.39,1.5,1.5,1.5h26.5v9h-38v-90.5c0-.11,1.39-1.5,1.5-1.5h36.5Z"/>
        <path class="cls-1" d="M476,697.61v31h23v9h-23v33h28v9h-38v-92h36.5c2.18,0,2.18,10,0,10h-26.5Z"/>
        <path class="cls-1" d="M223,770.61h31v9h-42l.95-11.55,30.05-70.45h-28.5c-2.18,0-2.18-10,0-10h38c2.61,0,1.26,8.95.82,10.82-4.02,16.91-20.2,45.83-27.49,63.51-1.13,2.74-2.69,5.71-2.82,8.68Z"/>
        <polygon class="cls-1" points="204 687.61 203.53 699.64 173 770.61 204 770.61 204 779.61 163 779.61 163.95 767.06 194 697.61 164 697.61 164 687.61 204 687.61"/>
        <rect class="cls-1" x="370" y="687.61" width="10" height="92"/>
        <path class="cls-1" d="M153,687.61v92h-10v-90.5c0-2.19,8.12-1.43,10-1.5Z"/>
        <path class="cls-1" d="M419.87,687.74c-3.57.34-12.98-1.7-14.68,1.56l-17.19,90.3c2.37-.33,8.2.95,9.54-.95,1.65-2.34,1.41-15.18,3.39-16.61l22.45-.49c2.21,2.26,2.98,17.39,3.62,18.05.42.43,9.2-.29,10.99,0l-18.13-91.86ZM402,752.61l10.99-51,9.01,51h-20Z"/>
        <g>
          <path class="cls-1" d="M347.99,735.11c12.68-3.42,12.36-22.05,10.56-32.55-1.81-10.6-9.15-14.01-19.05-14.95-6.1-.58-13.69,0-20,0-.11,0-1.5,1.39-1.5,1.5v90.5h10v-39c8.37-.38,19.41-1.08,20.91,9.59.67,4.79-.83,27.44,1.14,29.36.57.56,9.08-.28,10.95.04-6.17-14.33,5.49-37-13.01-44.49ZM328,730.11v-32.5h14.5c7.75,0,7.71,23.27,5.27,28.27-3.17,6.51-19.77,7-19.77,4.23Z"/>
          <path class="cls-1" d="M278.1,687.71l-18.1,91.89c1.77-.32,9.39.5,9.95-.04.66-.64,2.39-17.8,3.63-18.01l23.41.07c.1,2.41,2.42,17.3,3.11,17.89.82.7,7.99-.27,9.9.1l-17.19-90.3c-1.71-3.29-11.12-1.17-14.71-1.59ZM275,752.61l9.5-52.01,10.5,52.01h-20Z"/>
        </g>
        <g>
          <path class="cls-1" d="M649,735.1c12.41-3.88,12.23-24.4,9.55-34.55-2.49-9.44-10.06-12.09-19.06-12.94-6.53-.62-13.87.45-20.5,0v92h10v-39c24.78-2.08,18.88,9.03,20.01,26.49.12,1.85,1.34,11.17,1.88,11.93,1.05,1.47,7.98.15,10.11.58-3.76-14.64,5.14-36.34-11.99-44.5ZM648.2,725.36c-1.99,6.59-13.38,6.4-19.2,6.25v-34c4.25.61,10.59-.84,14.5,0,7.35,1.59,6.35,22.3,4.7,27.75Z"/>
          <path class="cls-1" d="M603.96,692.15c-2.08-1.72-9.97-4.54-12.46-4.54h-21.5v92h10v-36c13.14.54,27.46.15,29.74-15.76,1.27-8.89,1.67-29.52-5.78-35.7ZM599.23,728.34c-2.56,7.73-12.74,6.21-19.23,6.27v-37c9.21.13,18.64-2.48,20,9.5.51,4.5.54,17.27-.77,21.23Z"/>
        </g>
        <path class="cls-1" d="M135,705.11c-.81-7.13-4.94-13.9-11.97-16.03-.8-.24-7.12-1.47-7.53-1.47h-20.5v92h10v-36c13.21.58,27.44.28,29.74-15.76.77-5.38.88-17.33.26-22.74ZM124.23,728.34c-2.56,7.73-12.74,6.21-19.23,6.27v-37c9.21.13,18.64-2.48,20,9.5.51,4.5.54,17.27-.77,21.23Z"/>
      </g>
    </g>
  </g>
</svg>